<?xml version="1.0" encoding="utf-8"?>
<!-- Generator: Adobe Illustrator 23.0.5, SVG Export Plug-In . SVG Version: 6.00 Build 0)  -->
<svg version="1.1" id="Layer_1" xmlns="http://www.w3.org/2000/svg" xmlns:xlink="http://www.w3.org/1999/xlink" x="0px" y="0px"
	 width="387.2px" height="184.4px" viewBox="0 0 387.2 184.4" style="enable-background:new 0 0 387.2 184.4;" xml:space="preserve"
	>
<style type="text/css">
	.st0{clip-path:url(#SVGID_3_);}
	.st1{clip-path:url(#SVGID_5_);}
	.st2{clip-path:url(#SVGID_7_);}
	.st3{clip-path:url(#SVGID_9_);}
	.st4{clip-path:url(#SVGID_11_);}
	.st5{clip-path:url(#SVGID_13_);}
	.st6{clip-path:url(#SVGID_15_);}
	.st7{clip-path:url(#SVGID_17_);}
	.st8{clip-path:url(#SVGID_19_);}
	.st9{clip-path:url(#SVGID_21_);}
	.st10{clip-path:url(#SVGID_23_);}
	.st11{clip-path:url(#SVGID_25_);}
	.st12{clip-path:url(#SVGID_27_);}
	.st13{clip-path:url(#SVGID_29_);}
	.st14{clip-path:url(#SVGID_31_);}
	.st15{clip-path:url(#SVGID_33_);}
	.st16{clip-path:url(#SVGID_35_);}
	.st17{clip-path:url(#SVGID_37_);}
</style>
<g>
	<g>
		<g>
			<g>
				<path id="SVGID_1_" d="M28.6,7l-1.8,32.2l0.5-0.1c2.9-0.3,5.9-0.4,9.1-0.4h0.5c0,0,0.5,0,1.3,0c5.8,0,26.5,0.7,47.7,9.6l2.2,0.9
					l6.7-32.1v-0.1C94,8.2,71.8,3,70.8,2.7C61.5,0.9,53.5,0,46.9,0C29.4,0.1,28.6,6.7,28.6,7"/>
			</g>
			<g>
				<g>
					<defs>
						<path id="SVGID_2_" d="M28.6,7l-1.8,32.2l0.5-0.1c2.9-0.3,5.9-0.4,9.1-0.4h0.5c0,0,0.5,0,1.3,0c5.8,0,26.5,0.7,47.7,9.6
							l2.2,0.9l6.7-32.1v-0.1C94,8.2,71.8,3,70.8,2.7C61.5,0.9,53.5,0,46.9,0C29.4,0.1,28.6,6.7,28.6,7"/>
					</defs>
					<clipPath id="SVGID_3_">
						<use xlink:href="#SVGID_2_"  style="overflow:visible;"/>
					</clipPath>
					<rect x="26.8" y="0.1" class="st0" width="68.1" height="49.3"/>
				</g>
			</g>
		</g>
		<g>
			<g>
				<path id="SVGID_00000075874219226930941110000008328339621878040216_" d="M42.3,80.2c-0.2,0.6-0.4,1.5-0.6,2.4
					c-0.1,0.4-0.1,0.6,0.3,0.8c0.8,0.5,0.5,1.1,0.4,2c-0.1,1.5-0.3,6.5,0,8.6c0.7,4.1,4.8,6.3,7.7,7c8,1.6,11.7-3.1,14.8-7.9
					c1.1-1.8,2.4-4.1,4-3.8c2.2,0.5,1.5,3,1.6,5c0.4,7.3,2,11.2,8.2,12.4c4.6,0.9,7.7-0.2,10.3-5.1c0.8-1.6,1.6-3.2,2.4-4.9
					c0.4-0.9,0.6-1.9,1.3-1.8c0.1,0,0.4-0.1,0.4-0.4c0.3-1,0.4-1.5,0.6-2.4c0.1-0.5,0.1-0.6-0.3-0.7c-2.2-0.9-7-3-9.4-3.6
					c-3.8-0.9-6.8-0.7-9.4-0.5c-2,0.1-3.7,0.3-5.3-0.1c-3.3-0.8-7.5-4.7-13.4-6.1c-4.5-1.1-11.5-1.5-12.7-1.8c-0.1,0-0.2,0-0.3,0
					C42.6,79.4,42.4,79.7,42.3,80.2"/>
			</g>
			<g>
				<g>
					<defs>
						<path id="SVGID_4_" d="M42.3,80.2c-0.2,0.6-0.4,1.5-0.6,2.4c-0.1,0.4-0.1,0.6,0.3,0.8c0.8,0.5,0.5,1.1,0.4,2
							c-0.1,1.5-0.3,6.5,0,8.6c0.7,4.1,4.8,6.3,7.7,7c8,1.6,11.7-3.1,14.8-7.9c1.1-1.8,2.4-4.1,4-3.8c2.2,0.5,1.5,3,1.6,5
							c0.4,7.3,2,11.2,8.2,12.4c4.6,0.9,7.7-0.2,10.3-5.1c0.8-1.6,1.6-3.2,2.4-4.9c0.4-0.9,0.6-1.9,1.3-1.8c0.1,0,0.4-0.1,0.4-0.4
							c0.3-1,0.4-1.5,0.6-2.4c0.1-0.5,0.1-0.6-0.3-0.7c-2.2-0.9-7-3-9.4-3.6c-3.8-0.9-6.8-0.7-9.4-0.5c-2,0.1-3.7,0.3-5.3-0.1
							c-3.3-0.8-7.5-4.7-13.4-6.1c-4.5-1.1-11.5-1.5-12.7-1.8c-0.1,0-0.2,0-0.3,0C42.6,79.4,42.4,79.7,42.3,80.2"/>
					</defs>
					<clipPath id="SVGID_5_">
						<use xlink:href="#SVGID_4_"  style="overflow:visible;"/>
					</clipPath>
					<rect x="41.6" y="79.4" class="st1" width="52.3" height="28.3"/>
				</g>
			</g>
		</g>
		<g>
			<g>
				<polygon id="SVGID_00000129186925409970494840000001563382952524741517_" points="18,100.2 17.5,108.5 21,100 19.7,96.1 
					16.7,90.6 				"/>
			</g>
			<g>
				<g>
					<defs>
						<polygon id="SVGID_6_" points="18,100.2 17.5,108.5 21,100 19.7,96.1 16.7,90.6 						"/>
					</defs>
					<clipPath id="SVGID_7_">
						<use xlink:href="#SVGID_6_"  style="overflow:visible;"/>
					</clipPath>
					<rect x="16.7" y="90.6" class="st2" width="4.3" height="17.9"/>
				</g>
			</g>
		</g>
		<g>
			<g>
				<polygon id="SVGID_00000167392870758226117840000005832814460748210339_" points="18.2,73.4 16.6,77.7 18.3,75.6 16.8,78.9 
					17.7,84 18,78.9 20.6,74.9 23.9,78.6 23.7,76.3 20.5,73 				"/>
			</g>
			<g>
				<g>
					<defs>
						<polygon id="SVGID_8_" points="18.2,73.4 16.6,77.7 18.3,75.6 16.8,78.9 17.7,84 18,78.9 20.6,74.9 23.9,78.6 23.7,76.3 
							20.5,73 						"/>
					</defs>
					<clipPath id="SVGID_9_">
						<use xlink:href="#SVGID_8_"  style="overflow:visible;"/>
					</clipPath>
					<rect x="16.6" y="73" class="st3" width="7.3" height="11"/>
				</g>
			</g>
		</g>
		<g>
			<g>
				<polygon id="SVGID_00000108995009609253577440000001436607746201011851_" points="22.2,87.2 22.9,90.5 25.2,91.4 23.5,88.7 
					24.4,83.4 				"/>
			</g>
			<g>
				<g>
					<defs>
						<polygon id="SVGID_10_" points="22.2,87.2 22.9,90.5 25.2,91.4 23.5,88.7 24.4,83.4 						"/>
					</defs>
					<clipPath id="SVGID_11_">
						<use xlink:href="#SVGID_10_"  style="overflow:visible;"/>
					</clipPath>
					<rect x="22.2" y="83.4" class="st4" width="3" height="7.9"/>
				</g>
			</g>
		</g>
		<g>
			<g>
				<polygon id="SVGID_00000034802142746152585170000009800837879189668497_" points="18.4,89.1 21.4,92.4 18,86.8 				"/>
			</g>
			<g>
				<g>
					<defs>
						<polygon id="SVGID_12_" points="18.4,89.1 21.4,92.4 18,86.8 						"/>
					</defs>
					<clipPath id="SVGID_13_">
						<use xlink:href="#SVGID_12_"  style="overflow:visible;"/>
					</clipPath>
					<rect x="18" y="86.8" class="st5" width="3.4" height="5.6"/>
				</g>
			</g>
		</g>
		<g>
			<g>
				<polygon id="SVGID_00000180336351426390931140000013354737118888533161_" points="20.6,81.3 18.6,85 20.8,87.9 21.4,84 
					23.7,80.5 				"/>
			</g>
			<g>
				<g>
					<defs>
						<polygon id="SVGID_14_" points="20.6,81.3 18.6,85 20.8,87.9 21.4,84 23.7,80.5 						"/>
					</defs>
					<clipPath id="SVGID_15_">
						<use xlink:href="#SVGID_14_"  style="overflow:visible;"/>
					</clipPath>
					<rect x="18.6" y="80.5" class="st6" width="5.1" height="7.4"/>
				</g>
			</g>
		</g>
		<g>
			<g>
				<polygon id="SVGID_00000106866638883018925210000017311681405032267672_" points="9.1,115.3 26.3,140.8 6.6,119.3 2.7,122.5 
					7.8,134.4 16.3,154.7 23.4,144.9 35.4,156.6 46,162.8 43.1,162.5 57.7,184.4 59.7,182 61.6,166.3 62.7,167.9 59.7,182 
					68.1,168.7 68.2,165 69,162.6 70.5,156.8 65.1,153.6 71,156.1 73.5,150.4 72,149.2 73.5,148.3 64.6,142.4 59.7,144 56.1,145.1 
					53.9,144.3 52.5,148.3 52.5,148.3 50.7,153.5 51.1,154 56.9,160.8 58,169.6 57.3,180.1 54,169.7 54.1,169.8 53.9,169.4 
					53.5,168.3 53.2,167.9 47.3,155 37.4,138.9 37.6,141.6 33.1,137.4 24.8,143 26.3,141 26.4,141 33.1,136.2 37.1,140 35.2,135 
					15,113.6 10.3,112.4 				"/>
			</g>
			<g>
				<g>
					<defs>
						<polygon id="SVGID_16_" points="9.1,115.3 26.3,140.8 6.6,119.3 2.7,122.5 7.8,134.4 16.3,154.7 23.4,144.9 35.4,156.6 
							46,162.8 43.1,162.5 57.7,184.4 59.7,182 61.6,166.3 62.7,167.9 59.7,182 68.1,168.7 68.2,165 69,162.6 70.5,156.8 
							65.1,153.6 71,156.1 73.5,150.4 72,149.2 73.5,148.3 64.6,142.4 59.7,144 56.1,145.1 53.9,144.3 52.5,148.3 52.5,148.3 
							50.7,153.5 51.1,154 56.9,160.8 58,169.6 57.3,180.1 54,169.7 54.1,169.8 53.9,169.4 53.5,168.3 53.2,167.9 47.3,155 
							37.4,138.9 37.6,141.6 33.1,137.4 24.8,143 26.3,141 26.4,141 33.1,136.2 37.1,140 35.2,135 15,113.6 10.3,112.4 						"/>
					</defs>
					<clipPath id="SVGID_17_">
						<use xlink:href="#SVGID_16_"  style="overflow:visible;"/>
					</clipPath>
					<rect x="2.7" y="112.4" class="st7" width="70.8" height="72"/>
				</g>
			</g>
		</g>
		<g>
			<g>
				<path id="SVGID_00000075159845093964625190000017583563343914761092_" d="M87.8,84.2l0.9-2.7C88.3,82.5,88,83.4,87.8,84.2
					L87.8,84.2z M37,40.2h-0.5c-13.8,0-31.3,2.3-36.1,13.3c-0.8,3.2-0.2,6.1,1.1,8.6c4,7.7,15,12.4,15.6,12.6l0.4,0.1l0.1-0.4
					c0.3-0.9,0.2-2,0.1-3.2l1.3-1.5l0.2-0.1l2.2-0.2l5.7,8.8l-2.1,24.9v11.3l6,10.1l13.5,13.8l11.8,5.9l6.9-2.2l9.4-11.7l7.5-20
					l-7.2,13.7l-0.6-4.7l-6.9-5.5l-1,4.9l5.1,4.4l-1.7,5.3l-3.4,4.5l-2.1,0.4l1.1-2.7l0.2-3.2l-8.8-1.8v2.7l-1.1,2.5l-3,1.2l-4-7.7
					l1.3-5.1l13.7-1.2l1.1-4.9L48.9,113l-3.2,2.4l-2.5,4.4l-2,1.5l-0.4-8.9l-8.9-10.2l-1.5-12.4l3.1-11.8l7.7,4.7l0.9-3.7l-7.7-3.9
					l3-1.1l3.5-1.3l3.2-1.1l-14.6-8.2l0.9-0.6l12.2,7.1l-4.1-5.1l0.2-0.9l-5.2-3l7-4.1l0.4-0.5c0.6,0,1.1,0,1.3,0l0,0
					c8.2,0.1,15,1,20.7,2.2l8.7,7l5.3-2.5c7.7,3.6,10.8,7.2,10.9,7.3l0,0l0.4,3.1l-1.5,8v4V86l0,0v1l-0.2,0.5l0.2-0.1v0.1l0.1-0.1
					l0.6-0.1c0.1,0,0.3-0.1,0.4-0.1l1.6,1.9l4.6,2L90.2,87c14.7-3.7,17.2-10.1,17.4-10.9c0.1-0.2,0.2-0.4,0.3-0.6
					c0.1-0.1,0.1-0.3,0.2-0.4c0.1-0.2,0.2-0.4,0.3-0.6c0.1-0.1,0.1-0.3,0.1-0.4c0.1-0.2,0.1-0.4,0.2-0.6c0.1-0.1,0.1-0.3,0.1-0.4
					c0.1-0.2,0.1-0.4,0.1-0.6c0-0.1,0.1-0.3,0.1-0.4c0-0.2,0.1-0.4,0.1-0.6c0-0.1,0.1-0.4,0.1-0.5c0-0.1,0-0.4,0-0.5
					c0-0.2,0-0.4,0-0.6c0-0.1,0-0.3-0.1-0.4c0-0.2-0.1-0.4-0.1-0.6c-0.1-0.4-0.1-0.7-0.3-1.1c-2.6-8.9-16.7-15.5-17.3-15.8
					C68.5,40.8,45,40,38.3,40C37.5,40.2,37,40.2,37,40.2"/>
			</g>
			<g>
				<g>
					<defs>
						<path id="SVGID_18_" d="M87.8,84.2l0.9-2.7C88.3,82.5,88,83.4,87.8,84.2L87.8,84.2z M37,40.2h-0.5c-13.8,0-31.3,2.3-36.1,13.3
							c-0.8,3.2-0.2,6.1,1.1,8.6c4,7.7,15,12.4,15.6,12.6l0.4,0.1l0.1-0.4c0.3-0.9,0.2-2,0.1-3.2l1.3-1.5l0.2-0.1l2.2-0.2l5.7,8.8
							l-2.1,24.9v11.3l6,10.1l13.5,13.8l11.8,5.9l6.9-2.2l9.4-11.7l7.5-20l-7.2,13.7l-0.6-4.7l-6.9-5.5l-1,4.9l5.1,4.4l-1.7,5.3
							l-3.4,4.5l-2.1,0.4l1.1-2.7l0.2-3.2l-8.8-1.8v2.7l-1.1,2.5l-3,1.2l-4-7.7l1.3-5.1l13.7-1.2l1.1-4.9L48.9,113l-3.2,2.4
							l-2.5,4.4l-2,1.5l-0.4-8.9l-8.9-10.2l-1.5-12.4l3.1-11.8l7.7,4.7l0.9-3.7l-7.7-3.9l3-1.1l3.5-1.3l3.2-1.1l-14.6-8.2l0.9-0.6
							l12.2,7.1l-4.1-5.1l0.2-0.9l-5.2-3l7-4.1l0.4-0.5c0.6,0,1.1,0,1.3,0l0,0c8.2,0.1,15,1,20.7,2.2l8.7,7l5.3-2.5
							c7.7,3.6,10.8,7.2,10.9,7.3l0,0l0.4,3.1l-1.5,8v4V86l0,0v1l-0.2,0.5l0.2-0.1v0.1l0.1-0.1l0.6-0.1c0.1,0,0.3-0.1,0.4-0.1
							l1.6,1.9l4.6,2L90.2,87c14.7-3.7,17.2-10.1,17.4-10.9c0.1-0.2,0.2-0.4,0.3-0.6c0.1-0.1,0.1-0.3,0.2-0.4
							c0.1-0.2,0.2-0.4,0.3-0.6c0.1-0.1,0.1-0.3,0.1-0.4c0.1-0.2,0.1-0.4,0.2-0.6c0.1-0.1,0.1-0.3,0.1-0.4c0.1-0.2,0.1-0.4,0.1-0.6
							c0-0.1,0.1-0.3,0.1-0.4c0-0.2,0.1-0.4,0.1-0.6c0-0.1,0.1-0.4,0.1-0.5c0-0.1,0-0.4,0-0.5c0-0.2,0-0.4,0-0.6
							c0-0.1,0-0.3-0.1-0.4c0-0.2-0.1-0.4-0.1-0.6c-0.1-0.4-0.1-0.7-0.3-1.1c-2.6-8.9-16.7-15.5-17.3-15.8C68.5,40.8,45,40,38.3,40
							C37.5,40.2,37,40.2,37,40.2"/>
					</defs>
					<clipPath id="SVGID_19_">
						<use xlink:href="#SVGID_18_"  style="overflow:visible;"/>
					</clipPath>
					<rect x="-0.4" y="40.2" class="st8" width="109.7" height="104"/>
				</g>
			</g>
		</g>
	</g>
	<g>
		<g>
			<g>
				<g>
					<path id="SVGID_00000178914354727015082550000008707490934975034245_" d="M339,28.9c-0.9,0-1.1,1.3-1.1,1.3v2
						c0,0.4,0.2,0.5,0.5,0.8c0.4,0.2,2.4,2.1,2.4,2.1v40.3c0,0.3-0.2,1-0.2,1l-2.6,2.3v2.6c0,0.4,0.8,0.8,0.8,0.8h9.9
						c0.5,0,0.7-0.5,0.7-0.5v-2.9c0,0-1.6-1.4-2.3-1.7c-0.7-0.3-1-1.2-1-1.2V51.5l13.6,30.3h6v-47c0-1.4,2.6-2.2,2.6-2.2v-0.4v-2.3
						c0-0.8-0.7-1-0.7-1h-10c-0.5,0-0.8,0.7-0.8,0.7v2.2c0,0.5,0.5,0.5,0.5,0.5s1.4,1,2.1,1.3c0.7,0.3,0.9,1.4,0.9,1.4v19.5
						l-11.4-25.7H339z"/>
				</g>
				<g>
					<g>
						<defs>
							<path id="SVGID_20_" d="M339,28.9c-0.9,0-1.1,1.3-1.1,1.3v2c0,0.4,0.2,0.5,0.5,0.8c0.4,0.2,2.4,2.1,2.4,2.1v40.3
								c0,0.3-0.2,1-0.2,1l-2.6,2.3v2.6c0,0.4,0.8,0.8,0.8,0.8h9.9c0.5,0,0.7-0.5,0.7-0.5v-2.9c0,0-1.6-1.4-2.3-1.7
								c-0.7-0.3-1-1.2-1-1.2V51.5l13.6,30.3h6v-47c0-1.4,2.6-2.2,2.6-2.2v-0.4v-2.3c0-0.8-0.7-1-0.7-1h-10c-0.5,0-0.8,0.7-0.8,0.7
								v2.2c0,0.5,0.5,0.5,0.5,0.5s1.4,1,2.1,1.3c0.7,0.3,0.9,1.4,0.9,1.4v19.5l-11.4-25.7H339z"/>
						</defs>
						<clipPath id="SVGID_21_">
							<use xlink:href="#SVGID_20_"  style="overflow:visible;"/>
						</clipPath>
						<rect x="338" y="28.9" class="st9" width="30.5" height="53.1"/>
					</g>
				</g>
			</g>
			<g>
				<g>
					<path id="SVGID_00000159427781640303617420000004623428380635038346_" d="M312.9,41l4,25.8h-8.2L312.9,41z M307.5,28.8
						c-0.7,0-0.9,0.9-0.9,0.9v2.1c0,0.4,0.4,1.1,0.4,1.1l1.8,2.1c0,0-6,37.8-6.3,39.4c-0.3,1.6-1,2.9-2,3.5c-1,0.4-1,1.6-1,1.6v1.8
						c0,0.4,0.8,0.9,0.8,0.9h9.2c0.9,0,0.9-0.7,0.9-0.7V80c0-0.4-0.2-1.2-0.2-1.2s-2-1.5-2.5-1.8c-0.5-0.3-0.4-1.4-0.4-1.4l0.9-4.9
						h8.8l1.1,5.9c0,0-1.4,1.3-2.3,1.7c-0.9,0.4-0.4,1.5-0.4,1.5v1.4c0,0.5,0.4,0.9,0.4,0.9h15.6c0.9,0,1.3-0.9,1.3-0.9v-1.8
						c0-0.7-0.2-1.1-0.2-1.1s-0.1-0.4-1.2-1.1c-1.1-0.7-1.2-2.3-1.2-2.3s-6.6-42-6.9-43.8c-0.3-1.8-1.8-2.1-1.8-2.1h-13.9V28.8z"/>
				</g>
				<g>
					<g>
						<defs>
							<path id="SVGID_22_" d="M312.9,41l4,25.8h-8.2L312.9,41z M307.5,28.8c-0.7,0-0.9,0.9-0.9,0.9v2.1c0,0.4,0.4,1.1,0.4,1.1
								l1.8,2.1c0,0-6,37.8-6.3,39.4c-0.3,1.6-1,2.9-2,3.5c-1,0.4-1,1.6-1,1.6v1.8c0,0.4,0.8,0.9,0.8,0.9h9.2c0.9,0,0.9-0.7,0.9-0.7
								V80c0-0.4-0.2-1.2-0.2-1.2s-2-1.5-2.5-1.8c-0.5-0.3-0.4-1.4-0.4-1.4l0.9-4.9h8.8l1.1,5.9c0,0-1.4,1.3-2.3,1.7
								c-0.9,0.4-0.4,1.5-0.4,1.5v1.4c0,0.5,0.4,0.9,0.4,0.9h15.6c0.9,0,1.3-0.9,1.3-0.9v-1.8c0-0.7-0.2-1.1-0.2-1.1
								s-0.1-0.4-1.2-1.1c-1.1-0.7-1.2-2.3-1.2-2.3s-6.6-42-6.9-43.8c-0.3-1.8-1.8-2.1-1.8-2.1h-13.9V28.8z"/>
						</defs>
						<clipPath id="SVGID_23_">
							<use xlink:href="#SVGID_22_"  style="overflow:visible;"/>
						</clipPath>
						<rect x="299.8" y="28.8" class="st10" width="33" height="53.1"/>
					</g>
				</g>
			</g>
			<g>
				<g>
					<path id="SVGID_00000158743147349746902720000001650461316692785578_" d="M257,28.8c-1.2,0-1,1.1-1,1.1V33c0,0,0.4,0.4,1.3,0.9
						c0.9,0.4,1.1,1.6,1.1,1.6v40.4c-0.1,0.4-0.7,1.2-1.4,1.8s-0.9,1.4-0.9,1.4v1.6c0,0.9,1.2,1.1,1.2,1.1h8c0.7,0,1-0.9,1-0.9v-2.3
						c0-0.9-0.8-0.9-1.4-1.4c-0.7-0.5-1.2-1.4-1.2-1.4V48.3l6.4,21.9h3.4l6.7-22.4v27.8c0,0-1,1.3-2,1.6c-0.9,0.3-1,1.2-1,1.2V81
						c0,1,0.9,1.2,0.9,1.2h16c0.7,0,1-0.9,1-0.9v-2.8c0,0-0.7-0.8-1.5-1.2c-0.9-0.5-1.1-1.1-1.1-1.1V35.9c0-0.9,2.1-2.3,2.3-2.5
						c0.2-0.2,0.7-0.9,0.7-0.9v-2.4c0-0.9-1.2-1-1.2-1h-13.1L275.4,50l-5.5-20.8H257L257,28.8L257,28.8z"/>
				</g>
				<g>
					<g>
						<defs>
							<path id="SVGID_24_" d="M257,28.8c-1.2,0-1,1.1-1,1.1V33c0,0,0.4,0.4,1.3,0.9c0.9,0.4,1.1,1.6,1.1,1.6v40.4
								c-0.1,0.4-0.7,1.2-1.4,1.8s-0.9,1.4-0.9,1.4v1.6c0,0.9,1.2,1.1,1.2,1.1h8c0.7,0,1-0.9,1-0.9v-2.3c0-0.9-0.8-0.9-1.4-1.4
								c-0.7-0.5-1.2-1.4-1.2-1.4V48.3l6.4,21.9h3.4l6.7-22.4v27.8c0,0-1,1.3-2,1.6c-0.9,0.3-1,1.2-1,1.2V81c0,1,0.9,1.2,0.9,1.2h16
								c0.7,0,1-0.9,1-0.9v-2.8c0,0-0.7-0.8-1.5-1.2c-0.9-0.5-1.1-1.1-1.1-1.1V35.9c0-0.9,2.1-2.3,2.3-2.5c0.2-0.2,0.7-0.9,0.7-0.9
								v-2.4c0-0.9-1.2-1-1.2-1h-13.1L275.4,50l-5.5-20.8H257L257,28.8L257,28.8z"/>
						</defs>
						<clipPath id="SVGID_25_">
							<use xlink:href="#SVGID_24_"  style="overflow:visible;"/>
						</clipPath>
						<rect x="255.8" y="28.8" class="st11" width="39.4" height="53.1"/>
					</g>
				</g>
			</g>
			<g>
				<g>
					<path id="SVGID_00000090991145651932876300000013833385502594709902_" d="M233.3,28.8c0,0-0.9,0.4-0.9,1.4V32
						c0,0,0,0.9,0.4,1.1c0.4,0.3,1.4,1.1,1.4,1.1v17.3h-5.9V34.2c0,0,1-0.9,1.4-1.1c0.4-0.3,0.4-1.1,0.4-1.1v-1.8
						c0-0.9-0.9-1.4-0.9-1.4h-15.7c0,0-0.7,0.2-0.7,1v2.7c0,0,2.7,1.4,2.7,2.8v40.3c0,0-0.1,0.9-1,1.6s-1.6,1.2-1.6,1.2v3.1
						c0,0,0.4,0.1,1.1,0.1h15.8c0,0,0.8-0.3,0.8-1.1v-2.4c0,0-2-1.4-2.1-1.8V55.1h5.6v21.2c-0.1,0.5-2.1,1.8-2.1,1.8v2.4
						c0,0.9,0.8,1.1,0.8,1.1H249c0.7,0,1.1-0.1,1.1-0.1v-3.1c0,0-0.8-0.4-1.6-1.2c-0.9-0.8-1-1.6-1-1.6V35.3c0-1.4,2.7-2.8,2.7-2.8
						v-2.7c0-0.7-0.7-1-0.7-1H233.3z"/>
				</g>
				<g>
					<g>
						<defs>
							<path id="SVGID_26_" d="M233.3,28.8c0,0-0.9,0.4-0.9,1.4V32c0,0,0,0.9,0.4,1.1c0.4,0.3,1.4,1.1,1.4,1.1v17.3h-5.9V34.2
								c0,0,1-0.9,1.4-1.1c0.4-0.3,0.4-1.1,0.4-1.1v-1.8c0-0.9-0.9-1.4-0.9-1.4h-15.7c0,0-0.7,0.2-0.7,1v2.7c0,0,2.7,1.4,2.7,2.8
								v40.3c0,0-0.1,0.9-1,1.6s-1.6,1.2-1.6,1.2v3.1c0,0,0.4,0.1,1.1,0.1h15.8c0,0,0.8-0.3,0.8-1.1v-2.4c0,0-2-1.4-2.1-1.8V55.1
								h5.6v21.2c-0.1,0.5-2.1,1.8-2.1,1.8v2.4c0,0.9,0.8,1.1,0.8,1.1H249c0.7,0,1.1-0.1,1.1-0.1v-3.1c0,0-0.8-0.4-1.6-1.2
								c-0.9-0.8-1-1.6-1-1.6V35.3c0-1.4,2.7-2.8,2.7-2.8v-2.7c0-0.7-0.7-1-0.7-1H233.3z"/>
						</defs>
						<clipPath id="SVGID_27_">
							<use xlink:href="#SVGID_26_"  style="overflow:visible;"/>
						</clipPath>
						<rect x="212.9" y="28.8" class="st12" width="36.9" height="53"/>
					</g>
				</g>
			</g>
			<g>
				<g>
					<path id="SVGID_00000079487599827084919650000006966365781639977657_" d="M157.7,28.8c0,0-1.2,0.2-1.2,1v2.7
						c0,0,3.1,1.4,3.1,2.8v40.3c0,0-0.1,0.9-1,1.6s-2.4,1.2-2.4,1.2v3.1c0,0,0.7,0.1,1.3,0.1h16.8c0,0,0.8-0.3,0.8-1.1v-2.4
						c0,0-2.4-1.4-2.5-1.8l-0.1-42.2c0,0,2.2-1.1,2.5-1.3c0.4-0.3,0.4-0.9,0.4-0.9v-1.8c0-0.9-0.9-1.4-0.9-1.4h-16.9V28.8z"/>
				</g>
				<g>
					<g>
						<defs>
							<path id="SVGID_28_" d="M157.7,28.8c0,0-1.2,0.2-1.2,1v2.7c0,0,3.1,1.4,3.1,2.8v40.3c0,0-0.1,0.9-1,1.6s-2.4,1.2-2.4,1.2v3.1
								c0,0,0.7,0.1,1.3,0.1h16.8c0,0,0.8-0.3,0.8-1.1v-2.4c0,0-2.4-1.4-2.5-1.8l-0.1-42.2c0,0,2.2-1.1,2.5-1.3
								c0.4-0.3,0.4-0.9,0.4-0.9v-1.8c0-0.9-0.9-1.4-0.9-1.4h-16.9V28.8z"/>
						</defs>
						<clipPath id="SVGID_29_">
							<use xlink:href="#SVGID_28_"  style="overflow:visible;"/>
						</clipPath>
						<rect x="156.3" y="28.8" class="st13" width="19.2" height="53"/>
					</g>
				</g>
			</g>
			<g>
				<g>
					<path id="SVGID_00000124132600690227443880000008259859488789680015_" d="M202.3,29c0,0-0.4,0.9-1.1,1c-0.3,0-0.9-0.5-1.7-1
						c-0.9-0.5-2.1-1.1-3.5-1c-2.8,0.1-14.4,2.3-14.4,26.3c0,1.1-0.2,28.3,15.2,28.3c1.7,0,9.2-1,10.5-10.5v-1.3
						c0,0,0.2-1.6-1.4-1.6h-2.4c0,0-1.3,0.2-1.7,2.7c-0.4,2.5-0.8,6.5-3,6.5c-2.3,0-2.6-1.5-2.6-2.9V34.8c0,0,0.5-2.5,2.1-2.5
						c1.6,0,2.8,1.3,3.6,4.7c0.8,3.4,1.1,6.9,3.5,6.9c2.3,0,2.2-2,2.2-2l-0.8-12.7c0,0-0.2-1.5-1.6-1.5
						C203.5,27.7,202.3,29,202.3,29"/>
				</g>
				<g>
					<g>
						<defs>
							<path id="SVGID_30_" d="M202.3,29c0,0-0.4,0.9-1.1,1c-0.3,0-0.9-0.5-1.7-1c-0.9-0.5-2.1-1.1-3.5-1
								c-2.8,0.1-14.4,2.3-14.4,26.3c0,1.1-0.2,28.3,15.2,28.3c1.7,0,9.2-1,10.5-10.5v-1.3c0,0,0.2-1.6-1.4-1.6h-2.4
								c0,0-1.3,0.2-1.7,2.7c-0.4,2.5-0.8,6.5-3,6.5c-2.3,0-2.6-1.5-2.6-2.9V34.8c0,0,0.5-2.5,2.1-2.5c1.6,0,2.8,1.3,3.6,4.7
								c0.8,3.4,1.1,6.9,3.5,6.9c2.3,0,2.2-2,2.2-2l-0.8-12.7c0,0-0.2-1.5-1.6-1.5C203.5,27.7,202.3,29,202.3,29"/>
						</defs>
						<clipPath id="SVGID_31_">
							<use xlink:href="#SVGID_30_"  style="overflow:visible;"/>
						</clipPath>
						<rect x="181.4" y="27.7" class="st14" width="26.3" height="54.8"/>
					</g>
				</g>
			</g>
			<g>
				<g>
					<path id="SVGID_00000005967944396490244920000010545399652302284464_" d="M130.6,32.3h1.7c3.6,0,4.2,4,4.2,4v12.8
						c0,4.3-2.9,5.5-2.9,5.5h-3V32.3z M116.3,28.8c-1.6,0-1.7,1.2-1.7,1.2s-0.1,1.1,0,1.8c0.1,0.8,0.9,1.3,1.7,1.6
						c0.9,0.3,1.3,1.6,1.3,1.6s0.1,39.1,0,39.9c0,0.9-1.3,1.8-2.1,2.2s-0.7,1.2-0.7,1.2v1.8c0,0.8,1,1.5,1,1.5h15
						c1,0,1.6-0.9,1.6-0.9v-2.4c0,0-0.2-0.8-1-1.2c-0.8-0.4-1.2-1.3-1.2-1.3V58.4h2.6c3,0,3.4,3.5,3.4,3.5v15c0,3.9,3.4,5.1,3.4,5.1
						h9.8c0.7,0,1.5-0.8,1.5-0.8s0-2.3,0-2.6s-0.4-0.5-1.1-1.2c-0.7-0.5-0.7-1.2-0.7-1.2v-9.4c0-8.4-9.8-10.3-9.8-10.3
						c11.3-2.9,10.6-11.8,10.6-13c-0.7-13.7-12.7-14.7-12.7-14.7L116.3,28.8L116.3,28.8z"/>
				</g>
				<g>
					<g>
						<defs>
							<path id="SVGID_32_" d="M130.6,32.3h1.7c3.6,0,4.2,4,4.2,4v12.8c0,4.3-2.9,5.5-2.9,5.5h-3V32.3z M116.3,28.8
								c-1.6,0-1.7,1.2-1.7,1.2s-0.1,1.1,0,1.8c0.1,0.8,0.9,1.3,1.7,1.6c0.9,0.3,1.3,1.6,1.3,1.6s0.1,39.1,0,39.9
								c0,0.9-1.3,1.8-2.1,2.2s-0.7,1.2-0.7,1.2v1.8c0,0.8,1,1.5,1,1.5h15c1,0,1.6-0.9,1.6-0.9v-2.4c0,0-0.2-0.8-1-1.2
								c-0.8-0.4-1.2-1.3-1.2-1.3V58.4h2.6c3,0,3.4,3.5,3.4,3.5v15c0,3.9,3.4,5.1,3.4,5.1h9.8c0.7,0,1.5-0.8,1.5-0.8s0-2.3,0-2.6
								s-0.4-0.5-1.1-1.2c-0.7-0.5-0.7-1.2-0.7-1.2v-9.4c0-8.4-9.8-10.3-9.8-10.3c11.3-2.9,10.6-11.8,10.6-13
								c-0.7-13.7-12.7-14.7-12.7-14.7L116.3,28.8L116.3,28.8z"/>
						</defs>
						<clipPath id="SVGID_33_">
							<use xlink:href="#SVGID_32_"  style="overflow:visible;"/>
						</clipPath>
						<rect x="114.5" y="28.8" class="st15" width="36.5" height="53.1"/>
					</g>
				</g>
			</g>
			<g>
				<g>
					<path id="SVGID_00000130615289437577382530000001385322693552679342_" d="M375,25.2c-1.2-1.1-1.8-2.7-1.8-4.4s0.8-3.3,1.8-4.4
						l0,0c1.2-1.1,2.7-1.8,4.6-1.8c1.7,0,3.4,0.8,4.6,1.8l0,0c1.2,1.1,1.8,2.7,1.8,4.4s-0.8,3.3-1.8,4.4c-1.2,1.1-2.7,1.8-4.6,1.8
						S376,26.4,375,25.2 M373.9,15.4L373.9,15.4c-1.4,1.4-2.3,3.3-2.3,5.4c0,2.1,0.9,4,2.3,5.4c1.4,1.4,3.4,2.3,5.5,2.3
						c2.2,0,4.1-0.9,5.5-2.3c1.4-1.4,2.3-3.3,2.3-5.4c0-2.1-0.9-4-2.3-5.4l0,0l0,0c-1.4-1.4-3.4-2.3-5.5-2.3
						C377.4,13.1,375.3,14,373.9,15.4"/>
				</g>
				<g>
					<g>
						<defs>
							<path id="SVGID_34_" d="M375,25.2c-1.2-1.1-1.8-2.7-1.8-4.4s0.8-3.3,1.8-4.4l0,0c1.2-1.1,2.7-1.8,4.6-1.8
								c1.7,0,3.4,0.8,4.6,1.8l0,0c1.2,1.1,1.8,2.7,1.8,4.4s-0.8,3.3-1.8,4.4c-1.2,1.1-2.7,1.8-4.6,1.8S376,26.4,375,25.2
								 M373.9,15.4L373.9,15.4c-1.4,1.4-2.3,3.3-2.3,5.4c0,2.1,0.9,4,2.3,5.4c1.4,1.4,3.4,2.3,5.5,2.3c2.2,0,4.1-0.9,5.5-2.3
								c1.4-1.4,2.3-3.3,2.3-5.4c0-2.1-0.9-4-2.3-5.4l0,0l0,0c-1.4-1.4-3.4-2.3-5.5-2.3C377.4,13.1,375.3,14,373.9,15.4"/>
						</defs>
						<clipPath id="SVGID_35_">
							<use xlink:href="#SVGID_34_"  style="overflow:visible;"/>
						</clipPath>
						<rect x="371.6" y="13.1" class="st16" width="15.6" height="15.3"/>
					</g>
				</g>
			</g>
			<g>
				<g>
					<path id="SVGID_00000013908293469553104760000006662457144655138188_" d="M377.4,18h1.3c0.7,0,1.1,0,1.2,0
						c0.3,0,0.5,0.1,0.7,0.3c0.1,0.2,0.2,0.4,0.2,0.7s-0.1,0.4-0.2,0.7c-0.1,0.2-0.3,0.3-0.4,0.3c-0.2,0.1-0.8,0.1-1.5,0.1h-1.3
						L377.4,18L377.4,18z M375.6,16.7V25h1.7v-3.5h0.3c0.4,0,0.7,0,0.9,0.1c0.2,0.1,0.3,0.2,0.5,0.3c0.1,0.2,0.4,0.5,0.9,1.2
						l1.2,1.8h2.1l-1-1.6c-0.4-0.7-0.8-1.1-1-1.3s-0.5-0.4-0.9-0.7c0.8-0.1,1.3-0.3,1.6-0.8c0.3-0.4,0.5-0.9,0.5-1.5
						c0-0.4-0.1-0.9-0.3-1.3c-0.2-0.3-0.5-0.7-1-0.8c-0.4-0.1-1.1-0.2-2-0.2L375.6,16.7L375.6,16.7z"/>
				</g>
				<g>
					<g>
						<defs>
							<path id="SVGID_36_" d="M377.4,18h1.3c0.7,0,1.1,0,1.2,0c0.3,0,0.5,0.1,0.7,0.3c0.1,0.2,0.2,0.4,0.2,0.7s-0.1,0.4-0.2,0.7
								c-0.1,0.2-0.3,0.3-0.4,0.3c-0.2,0.1-0.8,0.1-1.5,0.1h-1.3L377.4,18L377.4,18z M375.6,16.7V25h1.7v-3.5h0.3
								c0.4,0,0.7,0,0.9,0.1c0.2,0.1,0.3,0.2,0.5,0.3c0.1,0.2,0.4,0.5,0.9,1.2l1.2,1.8h2.1l-1-1.6c-0.4-0.7-0.8-1.1-1-1.3
								s-0.5-0.4-0.9-0.7c0.8-0.1,1.3-0.3,1.6-0.8c0.3-0.4,0.5-0.9,0.5-1.5c0-0.4-0.1-0.9-0.3-1.3c-0.2-0.3-0.5-0.7-1-0.8
								c-0.4-0.1-1.1-0.2-2-0.2L375.6,16.7L375.6,16.7z"/>
						</defs>
						<clipPath id="SVGID_37_">
							<use xlink:href="#SVGID_36_"  style="overflow:visible;"/>
						</clipPath>
						<rect x="375.6" y="16.7" class="st17" width="7.6" height="8.2"/>
					</g>
				</g>
			</g>
		</g>
		<g>
			<path d="M156.7,106.9l-2.1,7.5c-4.1-4.4-9-6.6-14.3-6.6c-5.4,0-10,1.8-13.6,5.5c-3.7,3.7-5.5,8.1-5.5,13.5c0,5.1,1.7,9.4,5.2,13
				c3.5,3.6,7.7,5.3,12.6,5.3c3.9,0,8.1-1.3,12.5-3.8l-1.1,7.9c-4,1.8-7.7,2.7-11.2,2.7c-7.1,0-13-2.4-17.8-7.2
				c-4.8-4.8-7.2-10.7-7.2-17.9c0-7.4,2.5-13.6,7.6-18.6c5.1-5,11.4-7.4,19-7.4C146.3,101,151.6,103,156.7,106.9z"/>
			<path d="M167.4,102.3h6.4l-11.5,54.5h131.4l-1,6.5H154.9L167.4,102.3z"/>
			<path d="M201.3,100.9l13.1,49.6h-6.4l-2.9-11h-19l-6.3,11h-7.3L201.3,100.9z M199.2,116.9l-10,17.4h14.5L199.2,116.9z"/>
			<path d="M254.6,109.1l-5.5,3.7c-2.4-3.1-5.2-4.8-8.6-4.8c-2.2,0-4.1,0.8-5.9,2.2c-1.7,1.5-2.6,3.1-2.6,5c0,1.6,0.7,3,1.8,4.1
				c1.2,1.2,3.7,2.6,7.4,4.3c3.7,1.7,6.4,3.7,8.2,5.8c1.8,2.2,2.7,4.8,2.7,8c0,3.8-1.6,7.3-4.9,10.1c-3.3,2.9-6.9,4.3-11.3,4.3
				c-3.5,0-6.7-1-9.8-2.8c-3-1.8-5.3-4.3-6.6-7.5l6.1-2.8c2.6,4.2,6.1,6.3,10.2,6.3c2.5,0,4.7-0.8,6.6-2.4c2-1.6,2.8-3.4,2.8-5.4
				c0-1.6-0.7-3-1.8-4.2c-1.2-1.2-3.7-2.6-7.4-4.3c-3.7-1.7-6.4-3.6-8.1-5.8c-1.8-2.2-2.7-4.8-2.7-7.9c0-3.9,1.5-7.2,4.4-10
				c2.9-2.7,6.5-4.1,10.7-4.1C246.4,101.1,251.1,103.7,254.6,109.1z"/>
			<path d="M292.9,109.1l-5.5,3.7c-2.4-3.1-5.2-4.8-8.6-4.8c-2.2,0-4.1,0.8-5.9,2.2c-1.7,1.5-2.6,3.1-2.6,5c0,1.6,0.7,3,1.8,4.1
				c1.2,1.2,3.7,2.6,7.4,4.3s6.4,3.7,8.2,5.8c1.8,2.2,2.7,4.8,2.7,8c0,3.8-1.6,7.3-4.9,10.1c-3.3,2.9-6.9,4.3-11.3,4.3
				c-3.5,0-6.7-1-9.8-2.8c-3-1.8-5.3-4.3-6.6-7.5l6.1-2.8c2.6,4.2,6.1,6.3,10.2,6.3c2.5,0,4.7-0.8,6.6-2.4s2.8-3.4,2.8-5.4
				c0-1.6-0.7-3-1.8-4.2c-1.2-1.2-3.7-2.6-7.4-4.3c-3.7-1.7-6.4-3.6-8.1-5.8c-1.8-2.2-2.7-4.8-2.7-7.9c0-3.9,1.5-7.2,4.4-10
				c2.9-2.7,6.5-4.1,10.7-4.1C284.7,101.1,289.4,103.7,292.9,109.1z"/>
			<path d="M306.6,102.8h6.4l-7.1,47.8h-6.4L306.6,102.8z"/>
			<path d="M359.9,107.1l-2.1,7.5c-4.1-4.4-9-6.6-14.3-6.6c-5.3,0-10,1.8-13.6,5.5c-3.7,3.7-5.5,8.1-5.5,13.5c0,5.1,1.7,9.4,5.2,13
				s7.7,5.3,12.6,5.3c3.9,0,8.1-1.3,12.5-3.8l-1.1,7.9c-4,1.8-7.7,2.7-11.2,2.7c-7.1,0-13-2.4-17.8-7.2c-4.8-4.8-7.2-10.7-7.2-17.9
				c0-7.4,2.5-13.6,7.6-18.6c5.1-5,11.4-7.4,19-7.4C349.5,101.1,354.8,103.1,359.9,107.1z"/>
		</g>
	</g>
</g>
</svg>
