<?xml version="1.0" encoding="UTF-8"?>
<svg id="Layer_1" data-name="Layer 1" xmlns="http://www.w3.org/2000/svg" version="1.1" viewBox="0 0 768.39 191.57">
  <defs>
    <style>
      .cls-1 {
        stroke-width: 0px;
      }
    </style>
  </defs>
  <path class="cls-1" d="M333.9,189.49c-1.38-4.16-1.81-7.92,1.8-11.09,1.94-1.7,2.62-3.95,2.66-6.44.02-1.12.02-2.24.02-3.36,0-15.03,0-30.05,0-45.08,0-5.61-.43-6.05-5.91-6.11-2.4-.03-4.8-.06-7.2.08-2.62.16-3.24.9-3.41,3.62-.06.96-.03,1.92-.03,2.88,0,15.03,0,30.05,0,45.08,0,.8.04,1.6,0,2.4-.14,3.02.65,5.66,2.86,7.84,2.1,2.07,2.63,4.67,2.22,7.52-.28,1.94-1.18,2.79-3.12,2.94-.64.05-1.28.02-1.92.02-12.64,0-25.28-.03-37.92.02-3.56.01-4.97.11-5.14-4.89-.11-3.2.76-5.61,3.72-7.12,2.76-1.41,3.66-3.82,3.54-6.78-.08-1.91-.01-3.84-.01-5.75,0-32.13,0-64.26,0-96.39,0-.48-.03-.96,0-1.44.34-3.91-.6-7.11-4.11-9.52-3.31-2.28-3.47-5.91-2.86-9.54.23-1.35,1.13-2.31,2.52-2.58,1.09-.21,2.21-.36,3.32-.37,12-.03,24-.02,36-.01.64,0,1.28.01,1.92.08,3.3.35,4.08,1.2,4.32,4.52.21,2.8.08,5.4-2.61,7.21-1.84,1.24-2.53,3.25-2.65,5.41-.1,1.91-.15,3.83-.15,5.75,0,10.87.03,21.74.04,32.61,0,1.12-.03,2.24.06,3.35.2,2.5,1.02,3.42,3.61,3.55,3.03.15,6.08.16,9.11.01,2.45-.12,3.45-1.23,3.72-3.56.05-.47.05-.96.05-1.44,0-12.95-.01-25.9.01-38.84,0-2.68-.63-4.95-2.72-6.87-3.03-2.79-2.44-6.35-1.57-9.83.25-.99,1.12-1.57,2.13-1.71,1.1-.15,2.22-.24,3.34-.24,12.16-.02,24.32-.04,36.48,0,5.36.02,5.9.76,5.93,6.2.02,2.69-.76,4.6-3.36,5.7-3.36,1.42-4.66,4.17-4.61,7.69.02,1.12-.03,2.24-.03,3.36,0,32.45,0,64.9,0,97.35,0,1.92.07,3.83.1,5.75.06,2.75,1.23,4.91,3.44,6.53.26.19.51.4.79.54,3.69,1.94,3.64,5.29,3.27,8.73-.16,1.48-1.02,2.27-2.5,2.44-.79.09-1.6.07-2.39.07-12.96,0-25.92,0-38.88-.01-1.25,0-2.51-.18-3.91-.28Z"/>
  <path class="cls-1" d="M471.45,45.84c1.57-.13,3.13-.37,4.7-.38,8.96-.04,17.92-.03,26.88,0,1.43,0,2.89.07,4.3.3,2.21.36,2.95,1.22,3.21,3.52.1.95.05,1.91.06,2.87.01,2.43-.87,4.35-3.16,5.46-.57.28-1.11.64-1.66.96-2.13,1.22-3.22,3.02-3.14,5.51.04,1.12-.01,2.24-.01,3.36,0,33.89,0,67.78,0,101.67,0,.64.05,1.28,0,1.92-.27,3.02.86,5.08,3.59,6.66,3.87,2.24,5,6,3.57,10.27-.33.98-1.03,1.62-2.09,1.71-.95.08-1.92.1-2.87.1-12.96,0-25.92,0-38.88,0-.32,0-.64,0-.96,0-3.36-.1-4.34-.98-4.48-4.18-.05-1.11.02-2.24.18-3.34.26-1.82,1.04-3.4,2.83-4.17,3.85-1.64,4.68-4.75,4.67-8.59-.07-20.78,0-41.56-.02-62.35,0-1.4-.21-2.79-.31-4.01-1.24-.66-1.87-.04-2.25.61-.55.95-.99,1.99-1.29,3.05-4.44,15.33-8.85,30.67-13.29,46.01-.39,1.36-.89,2.69-1.34,4.01-3.38.87-6.52.65-9.76.21-1.9-3.15-2.43-6.66-3.43-9.99-3.93-13.16-7.73-26.35-11.6-39.53-.34-1.16-.32-2.57-2.12-3.18-.3.42-.84.85-.92,1.36-.24,1.41-.4,2.84-.4,4.27,0,19.5.02,39.01.04,58.51,0,.96.03,1.92.01,2.88-.04,2.76.89,5,3.36,6.45.55.32,1.07.7,1.56,1.12,2.38,2.03,3.33,5.89,2.13,8.71-.47,1.09-1.34,1.79-2.51,2.01-.62.12-1.27.14-1.91.14-6.08,0-12.17-.18-18.24.07-3.84.16-5.31-2.6-4.75-5.99.3-1.8,1.24-3.36,2.71-4.39,2.82-1.98,3.49-4.81,3.56-7.96.02-.96.02-1.92.02-2.88,0-32.29,0-64.58-.02-96.88,0-2.39-.28-4.78-.38-7.17-.11-2.58-1.11-4.78-3.35-6.02-3.23-1.78-3.68-4.53-3.4-7.75.39-4.58,1-5.3,5.5-5.33,9.76-.06,19.52-.03,29.28,0,1.09,0,2.19.26,3.3.4,1.35,1.81,1.69,3.89,2.24,5.86,4.01,14.13,8,28.26,12,42.39.22.76.31,1.61.71,2.26.29.48.94.89,1.5,1.02.92.21,1.51-.46,1.75-1.26,1.06-3.52,2.08-7.04,3.1-10.57,3.5-12.12,6.98-24.24,10.5-36.35.31-1.06.79-2.06,1.31-3.38Z"/>
  <path class="cls-1" d="M34.79,45.44c7.52,0,15.04-.02,22.56,0,9.68.04,18.65,2.4,26.61,8.12,10.63,7.64,15.84,18.08,16.18,31.06.11,4.16-.17,8.24-1.36,12.31-2.07,7.07-6.04,12.67-12.1,16.71-2.77,1.85-5.89,3.19-8.86,4.73-.85.44-1.79.69-2.63,1.14-1.04.56-1.1,2.24-.08,2.82.83.47,1.73.82,2.64,1.13,12.85,4.38,19.92,14.68,19.74,28.56-.08,6.39.06,12.79-.05,19.18-.05,2.86.5,5.39,2.65,7.4,2.53,2.37,2.53,5.38,2.09,8.46-.24,1.69-1.21,2.51-2.87,2.68-.63.06-1.28.04-1.92.04-7.84,0-15.68-.13-23.52.05-4.44.11-7.25-1.93-9.16-5.65-2.1-4.1-2.55-8.55-2.59-13.04-.08-8.31-.02-16.62-.03-24.94,0-3.68.05-7.36-.11-11.03-.16-3.67-2.09-6.3-5.39-7.88-3.03-1.45-6.22-1.23-9.38-.66-.58.1-1.27,1.01-1.45,1.68-.29,1.05-.25,2.21-.25,3.33-.01,13.11.03,26.21-.03,39.32-.01,2.86.59,5.19,2.89,7.22,2.39,2.1,2.89,6.98,1.33,9.77-.41.74-1.34,1.41-2.16,1.65-1.04.31-2.22.18-3.33.18-12,0-24,0-36,0-.48,0-.96-.03-1.44,0-2.7.21-4.41-.75-4.52-4.19-.03-.96.04-1.92.04-2.87,0-2.06.66-3.72,2.64-4.7,3.6-1.79,4.72-5,4.86-8.72.04-1.12.02-2.24.02-3.36,0-32.29,0-64.58-.01-96.87,0-1.91-.1-3.83-.32-5.73-.32-2.73-1.66-4.79-4.28-5.9-.73-.31-1.49-.61-2.14-1.05-.51-.34-1.14-.84-1.26-1.37-.64-2.69-.94-5.45.95-7.77.64-.78,1.8-1.35,2.82-1.57,1.38-.3,2.86-.23,4.3-.23,8.32-.02,16.64,0,24.96,0ZM61.96,85.06s.08,0,.12,0c0-4.64,0-9.27,0-13.91,0-.32,0-.64,0-.96-.04-1.6,0-3.2-.15-4.79-.53-6.04-4.15-9.55-10.21-9.99-5.84-.42-6.23-.08-6.23,5.94-.02,16.3,0,32.61,0,48.91,0,1.12,0,2.24.14,3.35.19,1.52.92,2.25,2.51,2.4,1.43.13,2.87.04,4.31.07,3.65.07,6-1.88,7.53-4.97,1.29-2.61,1.99-5.39,1.99-8.32,0-5.91,0-11.83,0-17.74Z"/>
  <path class="cls-1" d="M708.36,189.75c-4.52,0-8.83,0-13.13,0-1.25,0-2.13-.59-2.71-1.65-.53-.98-1.04-1.98-1.51-2.99-10.67-22.88-21.33-45.77-32-68.65-.61-1.3-1.19-2.65-2.02-3.79-.32-.44-1.32-.38-2.32-.63-.14,1.61-.35,2.85-.35,4.09-.02,17.75,0,35.49,0,53.24,0,.8.04,1.6.06,2.4.06,2.08,1.05,3.66,2.73,4.81,1.05.72,2.22,1.27,3.29,1.96,1.72,1.11,2.76,2.64,2.75,4.76,0,.16.02.32.02.48.16,5.83-.41,6.09-5.77,6.02-6.56-.08-13.12,0-19.68-.03-1.42,0-2.83-.14-4.13-.2-1.98-2.86-1.55-5.75-1.02-8.55.14-.76,1.12-1.62,1.92-1.96,4.33-1.86,5.37-5.15,5.35-9.64-.13-32.93-.06-65.87-.06-98.8,0-1.12-.09-2.24-.08-3.36.03-4.15-1.45-7.3-5.21-9.54-3.36-2-4.19-6.71-2.27-10.14.58-1.03,1.4-1.76,2.6-1.9,1.11-.13,2.23-.22,3.34-.22,6.08-.02,12.17.12,18.24-.06,3.32-.1,5.19,1.04,6.6,4.17,5.92,13.11,12.1,26.09,18.18,39.13,3.11,6.66,6.18,13.33,9.29,19.99.47,1.01.98,2.02,1.61,2.93.2.29.89.44,1.3.35.38-.08.89-.5.98-.86.22-.92.32-1.88.32-2.83,0-14.39-.07-28.78.03-43.16.02-3.6-1.23-6.17-4.46-7.77-.57-.28-1.14-.58-1.68-.92-1.72-1.1-2.77-2.62-2.8-4.73-.01-.96-.07-1.92,0-2.88.15-2.28.89-3.03,3.27-3.28.79-.08,1.6-.08,2.4-.08,6.4,0,12.8-.01,19.2,0,1.12,0,2.24.07,3.34.22,1.24.16,2.14.99,2.29,2.15.24,1.88.31,3.81.23,5.7-.06,1.37-.99,2.44-2.25,2.88-4.44,1.54-5.19,4.83-5.18,9.1.11,39.33.07,78.66.05,117.98,0,1.88.31,3.81-.78,6.26Z"/>
  <path class="cls-1" d="M548.2,159.14c-.45.82-.94,1.34-1.03,1.92-.55,3.3-1.02,6.61-1.49,9.92-.45,3.14.48,5.68,3.33,7.33.14.08.27.17.4.27,4.21,3,4.88,5.42,2.89,10.8-.52.11-1.13.36-1.73.37-7.52.03-15.04-.09-22.56.09-3.01.07-4.58-1.55-3.98-4.95.42-2.4,1.33-4.65,3.19-6.31,2.67-2.38,3.77-5.48,4.35-8.85,1.26-7.4,2.5-14.79,3.75-22.19.59-3.46,1.2-6.92,1.79-10.38,1.39-8.18,2.72-16.37,4.15-24.55,1.73-9.9,3.57-19.79,5.32-29.69,1.03-5.81,2-11.64,2.98-17.46.52-3.06-.02-5.83-2.77-7.61-4.12-2.67-3.21-6.56-2.65-10.33.09-.61.96-1.37,1.61-1.56,1.2-.36,2.51-.47,3.77-.47,10.56-.03,21.12-.06,31.68,0,5.76.03,7.46,1.36,8.51,6.94,1.18,6.27,2.11,12.59,3.13,18.89.54,3.31,1.04,6.62,1.57,9.92,1.48,9.3,2.92,18.6,4.45,27.89,1.72,10.39,3.57,20.76,5.27,31.15,1.19,7.24,2.19,14.52,3.35,21.76.48,2.99,1.04,5.99,1.81,8.92.73,2.82,2.11,5.39,4.34,7.33,3.01,2.61,2.7,5.92,2.15,9.28-.19,1.16-1.1,1.94-2.34,2.1-.79.1-1.59.12-2.39.12-12.8,0-25.6,0-38.4,0-.64,0-1.28.01-1.92-.05-1.44-.15-2.4-.97-2.58-2.38-.36-2.81.01-5.43,2.37-7.4.12-.1.24-.22.37-.3,3.95-2.35,4.37-5.98,3.66-10.03-.45-2.51-.81-5.04-1.33-7.54-.49-2.33-1.2-2.88-3.58-3.06-1.12-.08-2.24-.08-3.36-.08-4.48,0-8.96-.02-13.44,0-1.58,0-3.15.13-4.66.2ZM550.08,149.01c.93.19,1.84.52,2.75.53,5.12.05,10.23.03,15.35.02.48,0,.96-.04,1.43-.12,1.09-.19,1.66-.93,1.72-1.97.04-.62-.15-1.26-.25-1.88-1.03-6.78-2.09-13.56-3.08-20.34-1.69-11.52-3.32-23.05-5.04-34.57-.26-1.72-.73-3.43-1.3-5.08-.21-.59-.99-.99-1.83-1.76-.41,1.36-.77,2.23-.92,3.13-1.45,8.81-2.86,17.63-4.28,26.44-1.49,9.29-2.99,18.58-4.45,27.88-.39,2.49-.96,5-.11,7.73Z"/>
  <path class="cls-1" d="M229.92,119.22c0,16.45,0,32.9,0,49.36,0,1.6-.1,3.21.1,4.79.18,1.4.54,2.83,1.14,4.1,2.38,5.02,8.53,4.25,10.75,1.2,1.11-1.51,2.11-3.27,2.56-5.06.82-3.23,1.36-6.56,1.71-9.88.65-6.13,2.35-7.8,8.49-7.8,5.52,0,7.31,1.67,7.14,7.11-.56,17.8-13.92,28.52-28.19,28.53-12.1.01-21.66-4.81-28.63-14.62-6.1-8.58-9.93-18.2-12.15-28.44-1.66-7.65-2.85-15.39-2.89-23.24-.04-7.5-.23-15.02.15-22.51.62-12.03,2.79-23.76,8.07-34.75,2.23-4.63,4.72-9.1,8.09-12.97,2.08-2.39,4.4-4.65,6.93-6.56,6.67-5.03,14.3-6.04,22.31-4.45,1.83.36,3.62,1.28,5.26,2.22,3.08,1.77,4.16,2.37,7.08-.72,1.82-1.92,4.01-2.46,6.52-2.36,3.45.14,4.68,1.07,5.11,4.42.52,4.11.89,8.25,1.23,12.38.49,6.04.92,12.1,1.34,18.15.1,1.43.19,2.87.1,4.29-.09,1.33-.82,2.4-1.96,3.14-2.88,1.88-8.08.68-9.72-2.36-.67-1.24-1.08-2.66-1.45-4.04-.97-3.7-1.74-7.46-2.81-11.13-.71-2.44-1.7-4.81-2.77-7.12-.59-1.28-1.48-2.48-2.46-3.51-3.36-3.53-7.71-2.76-9.62,1.65-1.02,2.37-1.46,4.86-1.44,7.46.05,6.55,0,13.1,0,19.65,0,11.02,0,22.04,0,33.06Z"/>
  <path class="cls-1" d="M144.93,189.78c-6.72,0-13.43,0-20.15,0-1.12,0-2.24.04-3.36-.04-1.74-.12-2.56-.94-2.64-2.75-.06-1.43.03-2.87.14-4.3.14-1.72.95-3.02,2.65-3.65.3-.11.56-.31.87-.41,4.15-1.27,5.84-4.13,5.57-8.36-.08-1.27.02-2.55.02-3.83,0-31.63,0-63.26-.01-94.9,0-2.55-.08-5.11-.34-7.65-.32-3.03-1.7-5.42-4.68-6.72-1.44-.62-3.04-1.26-3.5-3.02-.57-2.19-.65-4.42-.03-6.62.29-1.01,1.06-1.63,2.06-1.78,1.26-.19,2.54-.3,3.81-.3,13.59-.02,27.18-.02,40.77,0,1.27,0,2.56.1,3.81.31,1.45.24,2.17,1.11,2.36,2.6.08.63.06,1.27.07,1.91.09,4.7-.05,5.04-4.29,6.82-3.02,1.26-4.51,3.4-4.51,6.63,0,1.28-.02,2.56-.02,3.83,0,33.55,0,67.1,0,100.65,0,1.28.05,2.56.03,3.83-.04,2.49,1.11,4.26,3.24,5.45.28.16.54.34.82.49,1.4.76,2.99,1.34,3.59,2.98.79,2.14.87,4.37.43,6.61-.24,1.22-.97,2.02-2.25,2.11-1.11.09-2.24.08-3.35.08-7.04,0-14.07,0-21.11,0Z"/>
  <path class="cls-1" d="M744.79,48.13c-9.75.52-23.05-7.62-23.07-23.19-.02-14.23,11.49-23.46,23.5-23.34,12.73.13,23.04,10.64,23.17,23.31.12,11.72-9.99,23.65-23.6,23.22ZM725.37,24.92c0,11.08,8.72,20.15,19.6,19.93,11.54-.24,19.82-9.33,19.88-19.89.06-10.82-9.1-20.01-19.82-19.68-11.37.35-19.65,8.28-19.65,19.64Z"/>
  <path class="cls-1" d="M754.6,36.57c-2.01,1.28-3.59.79-4.83-.68-1.13-1.33-1.97-2.9-3.05-4.28-1.07-1.37-2.14-2.81-3.48-3.88-2.36-1.87-4.36-1.04-4.74,1.87-.21,1.57-.09,3.18-.19,4.77-.12,1.92-.71,2.74-1.92,2.84-1.49.12-2.35-.79-2.36-2.84-.04-6.53,0-13.07.03-19.6,0-.46.21-.92.33-1.42.41-.23.83-.65,1.24-.65,4.29.03,8.59,0,12.87.26,2.63.15,4.35,1.75,5.09,4.35.72,2.52.19,4.72-1.57,6.63-.43.46-1.03.75-1.49,1.19-1.35,1.28-1.46,2.2-.41,3.76,1.15,1.72,2.41,3.37,3.51,5.13.47.76.66,1.69.98,2.56ZM739.37,22.56c2.3.95,4.66.74,7.01.4,1.7-.25,2.84-1.68,2.8-3.26-.04-1.61-1.19-3.33-2.67-3.48-2.46-.25-4.98-.7-7.32.39-1.05,2.13-1.12,4.05.19,5.95Z"/>
</svg>