<?xml version="1.0" encoding="utf-8"?>
<!-- Generator: Adobe Illustrator 23.0.5, SVG Export Plug-In . SVG Version: 6.00 Build 0)  -->
<svg version="1.1" id="Layer_1" xmlns="http://www.w3.org/2000/svg" xmlns:xlink="http://www.w3.org/1999/xlink" x="0px" y="0px"
	 width="438px" height="532.8px" viewBox="0 0 438 532.8" style="enable-background:new 0 0 438 532.8;" xml:space="preserve">
<style type="text/css">
	.st0{fill:#FFFFFF;}
</style>
<g>
	<path class="st0" d="M130.1,532.8c-43.4,0-86.7,0-130.1,0C0,355.2,0,177.6,0,0c146,0,292,0,438,0c0,177.6,0,355.2,0,532.8
		c-101.1,0-202.2,0-303.4,0c0.7-0.1,1.3-0.2,2-0.4c6.4-1.9,10.4-6,11.8-12.5c0.4-1.8,1-3.8,0.1-5.6c-0.3-0.7-1-1.6-1.7-1.6
		c-1.5-0.2-3.1-0.1-4.6,0.1c-1,0.1-1.7,0.9-1.9,1.9c-0.3,1.6-0.4,3.1-0.7,4.7c-0.3,2-0.7,4-1.9,5.7c-1.7,2.4-5.2,2.3-6.4-0.4
		c-0.5-1.2-0.7-2.6-0.7-3.9c0-19.6-0.1-39.1,0-58.7c0-1.7,0.4-3.5,0.9-5.1c0.7-2.2,3.2-2.8,4.9-1.3c0.6,0.6,1.3,1.2,1.6,1.9
		c1,2.5,1.8,5,2.6,7.5c0.6,1.8,0.9,3.7,1.6,5.5c0.6,1.6,2.9,2.5,4.8,2c1.5-0.4,2.2-1.5,2-3.6c-0.2-2.1-0.4-4.3-0.6-6.4
		c-0.3-4.1-0.6-8.3-1-12.4c-0.1-1-0.5-2-1.6-2.1c-1.9-0.2-3.7-0.4-5.2,1.3c-1.3,1.5-1.7,1.5-3.5,0.5c-5.2-2.9-10.3-2.5-15.2,0.5
		c-4.4,2.6-7,6.7-9.2,11.1c-3.2,6.4-4.6,13.3-4.9,20.4c-0.4,8.6-0.4,17.2,1.5,25.8c1.2,5.4,3.2,10.5,6.1,15.3
		c2.3,3.7,5.3,6.6,9.4,8.3C126.5,532,128.3,532.3,130.1,532.8z"/>
	<path class="st0" d="M263.9,269.6c-0.1-0.1-0.3-0.1-0.4-0.2c-0.3,0.4-0.5,0.7-0.8,1.1c-2.3,4.2-4.6,8.5-6.9,12.7
		c-1.4,2.6-2.8,5.3-4.3,7.9c-0.3,0.5-0.9,0.8-1.4,1.2c-0.3-0.5-0.7-1-0.8-1.6c-0.2-0.9-0.2-1.8-0.3-2.7c-0.7-5.5-0.7-5.5-5.1-8.9
		c-3.7-2.8-7.3-5.7-11-8.5c-1-0.8-1.5-0.7-1.7,0.4c-0.5,2.7-1,5.4-1.6,8.1c-0.2,1.1,0,2,0.9,2.7c3.3,2.6,6.6,5.4,9.9,8
		c1.1,0.9,1.4,1.9,1,3.3c-1,3-2,6-3,9c-0.3,1-0.7,2-1.3,2.8c-2.1,2.8-4.3,5.4-6.3,8.2c-1.3,1.8-3,2.4-5,2.6
		c-1.3,0.1-1.8-0.6-1.3-1.8c1.4-2.9,2.4-5.9,2.2-9.2c0-0.2,0.1-0.4,0.1-0.6c0.3-1.8-0.1-2.4-1.9-2.7c-2.1-0.4-4.2-0.7-6.2-1.2
		c-3.7-0.7-7.4-1.5-11.1-2.2c-1.5-0.3-1.9,0-1.7,1.6c0.3,3-0.2,5.7-1.7,8.3c-0.2,0.3-0.2,0.6-0.4,0.9c-0.5,0.7-1,1.5-1.7,1.8
		c-1.4,0.7-3,1.2-4.5,1.8c-2,0.8-2.3,0.7-3.3-1.2c-2.8-5.1-5.6-10.2-8.2-15.4c-0.4-0.8-0.4-2-0.2-2.8c0.6-2.8,1.5-5.6,2.2-8.4
		c0.5-2,1.1-2.5,3.2-2.6c4.1-0.3,8.2-0.6,12.3-0.9c5.9-0.5,11.8-1,17.7-1.5c0.8-0.1,1.4-0.4,1.6-1.2c0.4-1.6,0.9-3.2,1.3-4.8
		c0.3-1.2,0.6-2.4,0.9-3.6c0.3-1.3,0-1.8-1.2-1.8c-10.5-0.2-21-0.3-31.6-0.4c-0.7,0-1.5,0.2-2,0.5c-4.3,2.6-8.4,5.5-10.4,10.4
		c-0.2,0.5-0.6,1-0.9,1.6c-1.2,2.7-3.3,4.6-5.7,6.1c-0.4,0.2-1,0.5-1.3,0.3c-0.3-0.2-0.6-0.8-0.6-1.3c-0.3-5.8-0.6-11.6-0.8-17.4
		c0-1.3-0.5-2.4-1.4-3.3c-6.6-7.3-13.1-14.5-19.7-21.9c-0.6-0.6-1.1-1.5-1.2-2.3c-0.8-5.4-1.5-10.8-2.2-16.2
		c-0.5-3.7-0.9-7.4-1.4-11.2c-0.1-0.5-0.1-1.1,0-1.5c0.8-3.2,1.7-6.4,2.5-9.6c0.7-2.7,1.5-5.5,2.2-8.2c0.8-3,1.6-6.1,2.5-9.1
		c0.2-0.9,0.9-1.1,1.7-0.7c0.4,0.2,0.7,0.4,1,0.6c5,3,10,5.9,15.1,8.9c1.3,0.8,1.8,0.6,2.2-0.9c0.4-1.4,0.7-2.9,1-4.3
		c0.4-2.2,0.4-2.2-1.6-3.2c-4.9-2.4-9.7-4.8-14.6-7.2c-0.4-0.2-0.7-0.8-1-1.1c0.4-0.3,0.7-0.7,1.2-0.9c2.5-0.9,5.1-1.8,7.7-2.7
		c3.9-1.3,7.7-2.7,11.6-4.1c0.4-0.1,0.7-0.4,1.1-0.7c-0.3-0.3-0.5-0.8-0.9-1c-6.7-3.7-13.5-7.4-20.2-11c-4-2.2-7.9-4.3-11.9-6.5
		c-0.6-0.3-1.2-0.7-0.8-1.5c0.3-0.7,0.9-1.1,1.8-0.9c0.4,0.1,0.7,0.3,1.1,0.5c8.2,4.7,16.5,9.3,24.7,14c0.4,0.2,0.8,0.3,1.2,0.5
		c-0.1-0.6-0.3-1-0.5-1.3c-2-2.4-4.1-4.8-6.1-7.3c-0.5-0.6-0.9-1.5-1-2.3c-0.1-1-0.4-1.6-1.3-2.1c-3-1.6-6-3.3-9-5
		c-0.5-0.3-1.2-0.9-1.3-1.4c0-0.4,0.7-1,1.2-1.3c4.1-2.4,8.5-4.5,12.4-7.2c3.1-2.1,6.3-2.7,9.9-2.5c4.1,0.2,8.2,0.1,12.2,0.3
		c5,0.3,10,0.9,15,1.4c2.9,0.3,5.8,0.6,8.7,1c0.1,0,0.2,0.1,0.3,0.1c2.5,0.5,4.9,1,7.4,1.4c2.9,0.4,5.4,1.1,7.8,3
		c5.7,4.6,11.6,9.1,17.3,13.7c0.8,0.7,1.6,0.9,2.6,0.4c3.5-1.6,7-3.1,10.5-4.7c0.9-0.4,1.6-0.5,2.5,0c4.1,2.2,8.2,4.2,12.2,6.5
		c4.4,2.5,8.4,5.5,12,9.1c0.7,0.7,1.6,1.6,1.7,2.5c0.4,2.1,0.9,4.4,0.7,6.5c-0.2,3-1,5.9-1.5,8.8c-0.7,3.4-1.6,6.8-1.9,10.2
		c-0.4,4.1-0.2,8.2-0.2,12.3c0,0.3,0.5,0.9,0.7,0.8c1.8-0.4,2.6,0.8,3.5,1.9c0.8,1,1.7,2.2,2.8,2.8c1.9,1.1,4,1.9,6.1,2.7
		c0.8,0.3,1.6,0.6,2.4,0.8c0.1-0.1,0.2-0.2,0.3-0.3c-0.3-0.4-0.5-0.9-0.8-1.3c-1.5-1.8-3.1-3.5-4.7-5.3c-1.3-1.5-1.2-2,0.6-2.7
		c0.3-0.1,0.7-0.2,1-0.3c1.5-0.4,3-0.7,4.5-1.2c4.8-1.8,9.8-3.5,14.5-5.7c9.4-4.4,17.4-10.4,22-20.1c1.3-2.8,2.7-5.7,2.8-8.8
		c0.1-4.7-1.6-8.9-3.9-12.9c-4-7.2-9.8-12.9-16.2-17.9c-8.1-6.4-16.9-11.8-26.3-15.9c-10.7-4.7-21.8-8.4-33-11.8
		c-8.6-2.6-17.4-4.8-26.1-6.9c-6.3-1.5-12.6-2.8-19-3.9c-6.5-1.1-13.1-2.1-19.7-2.7c-8.1-0.8-16.3-1.6-24.5-1.8
		c-10.8-0.2-21.7,0.2-32.5,0.5c-8.1,0.2-16.1,1.1-24,2.7c-8.8,1.7-17.1,4.5-24.7,9.3c-4.6,2.9-9.1,5.8-12.9,9.8
		c-4.1,4.4-6.3,9.5-6.2,15.5c0.1,3.7,0.9,7.3,2.5,10.8c3.6,7.9,9.4,13.8,16.2,19c7.1,5.5,14.9,9.8,23,13.4c1.4,0.6,1.5,0.9,1,2.3
		c-0.3,0.9-0.5,1.8-0.9,2.9c0.7-0.2,1.2-0.3,2-0.4c-0.4,1.1-0.6,2-1,2.8c-0.7,1.5-1.5,2.9-1.1,4.7c0.4,1.9,0.7,3.9,1.1,5.9
		c0,0.1,0.2,0.2,0.5,0.5c0.1-1.7,0.2-3.1,0.3-4.6c0.1-1.8,0.3-3.6,1.3-5.1c1.4-2.1,2.8-4.3,4.2-6.4c1-1.5,1.7-1.6,3-0.2
		c1.5,1.6,3,3.3,4.5,4.9c0.4,0.4,0.8,0.7,1.2,1c0.1-0.1,0.2-0.1,0.3-0.2c-0.2-1.5,0.3-3.2-1-4.5c-2-2.1-4-4.1-6.1-6.1
		c-0.4-0.4-1.2-0.8-1.8-0.7c-1.3,0.1-2.7,0.4-4,0.7c-1.2,0.3-1.8-0.1-1.8-1.3c0-1-0.1-1.9,0-2.9c0.1-0.8,0.4-1.6,0.8-2.3
		c1.6-2.6,4.1-3.5,7.1-3.3c1,0.1,1.7,0.5,2.2,1.3c4.1,6.2,8.3,12.4,12.3,18.6c0.5,0.7,0.7,1.8,0.7,2.7c-0.1,2.9-0.5,5.8-0.7,8.7
		c-0.7,8.1-1.5,16.1-2.2,24.2c-0.4,4.2-0.7,8.4-1,12.7c-0.3,4-0.8,8-0.9,11.9c-0.2,8.7-0.1,17.4-0.1,26c0,1,0.3,2.2,0.8,3
		c4.3,7.3,8.8,14.6,13.2,21.8c0.4,0.7,1,1.4,1.6,1.9c10.3,10.2,20.7,20.4,31,30.6c0.8,0.8,1.8,1.6,2.9,2.1c8.4,4.1,16.8,8,25.1,12.2
		c2,1,3.6,0.8,5.5,0.2c3.2-1,6.5-2,9.7-3c2.4-0.7,4.6-1.4,6-3.7c0.6-1.1,1.6-1.9,2.4-2.8c5.5-6.6,10.9-13.1,16.4-19.7
		c0.9-1.1,1.9-2.2,2.5-3.5c1.5-3.5,2.9-7.2,4.3-10.8c3-7.7,6-15.4,8.9-23.1C262.9,272.4,263.4,271,263.9,269.6z"/>
	<path class="st0" d="M185.8,0c-5.6,0.4-11.3,0.7-16.9,1.3c-5.9,0.6-11.7,1.9-17.1,4.3c-3.7,1.6-7.1,3.7-9.4,7.1
		c-0.8,1.2-1.6,2.6-1.7,4c-0.5,4.8-0.6,9.6-0.9,14.5c-0.4,7-0.9,14-1.2,21.1c-0.5,9-0.8,18-1.5,26.9c-0.3,4.1,0.4,8.5-2.5,12.1
		c0,0.1-0.1,0.1-0.1,0.2c-0.2,0.6-0.1,1,0.6,1c0.3,0,0.6,0,0.8,0c8.3-0.2,16.6-0.6,24.9-0.7c6.3-0.1,12.6,0,18.9,0.1
		c2.5,0,4.9,0.3,7.4,0.5c4.1,0.3,8.2,0.6,12.3,1.1c5.3,0.7,10.6,1.5,15.9,2.4c2.6,0.4,5.2,1,7.7,1.5c2.1,0.4,4.2,0.8,6.3,1.2
		c2.9,0.7,5.8,1.4,8.7,2.1c3.8,0.9,7.7,1.9,11.4,2.9c3.4,0.9,6.7,2,10.1,3c3.9,1.2,7.8,2.4,11.6,3.7c4.9,1.7,9.8,3.7,14.7,5.5
		c1.2,0.5,1.7,0.2,2-1c0.3-1.3,0.5-2.6,0.8-4c0.9-4.5,1.9-9,2.8-13.6c0.7-3.3,1.5-6.5,2.2-9.8c1-4.6,1.9-9.2,2.9-13.8
		c1.1-5.1,2.2-10.1,3.3-15.2c0.5-2.2,1-4.4,1.5-6.6c0.5-2.2,1-4.3,1.4-6.5c0.3-1.8,0.8-3.7,0.6-5.5c-0.5-3.8-2.8-6.9-5.4-9.5
		c-3.9-4-8.7-6.9-13.6-9.5c-8-4.2-16.5-7.4-25.1-10c-5.1-1.6-10.3-3-15.6-4.2c-5.3-1.2-10.7-1.9-16-2.7c-6.8-1-13.5-1.9-20.3-2.5
		C200.2,0.8,193,0.5,185.8,0z"/>
	<path class="st0" d="M131.6,329.1c-0.1,0.1-0.3,0.2-0.4,0.4c-0.7-0.5-1.4-1-2-1.6c-4.6-4.8-9.1-9.6-13.6-14.4
		c-9.4-10-18.9-20-28.3-30c-0.8-0.8-1.5-0.9-2.3-0.1c-2,1.7-4.1,3.4-6.2,5.1c-1.7,1.4-1.7,1.4-0.8,3.4c0.2,0.5,0.4,1,0.7,1.5
		c10.2,23.4,20.4,46.9,30.7,70.3c0.3,0.7,0.8,1.2,1.1,1.9c0.6-0.5,1.2-1,1.7-1.6c4.9-6.4,9.7-12.9,14.6-19.3c1-1.4,1.6-1.4,2.8-0.2
		c8.3,7.9,16.6,15.9,24.9,23.8c1.8,1.7,3.7,3.2,5.8,4.4c6.8,4,13.6,7.7,20.4,11.6c0.4,0.3,0.7,0.8,1,1.3c-0.5,0.2-1,0.5-1.6,0.5
		c-0.8,0.1-1.5-0.1-2.7-0.1c0.4,0.8,0.6,1.3,0.9,1.7c4.9,7.2,9.8,14.3,14.6,21.5c6.2,9.1,12.4,18.2,18.5,27.3c0.8,1.1,1.1,1.1,2,0.1
		c2.3-2.5,4.4-5.1,6.2-8c5.7-9,11.5-18,17.2-27c0.5-0.8,0.8-1.9,0.9-2.9c0.4-3.5,0.3-7.1,1.4-10.5c1.4-4.2,2.4-8.6,3.7-12.9
		c1.2-3.9,0.6-3.3-1.9-4.8c-1.7-1.1-3.7-1.8-5.1-3.6c0.9,0.2,1.6,0.2,2.3,0.5c1.7,0.6,3.4,1.4,5.1,2c1.4,0.6,1.8,0.4,2.4-1
		c1.5-3.2,2.9-6.4,4.4-9.6c1-2.2,1-2.2-0.9-3.6c-1.3-1-1.3-1.8,0-2.7c1.5-1,1.5-1.2,0-2.2c-6.1-3.9-12.1-7.7-18.2-11.6
		c-1.1-0.7-2.1-0.9-3.3-0.5c-5.9,1.9-11.8,3.7-17.7,5.5c-0.8,0.3-1.8,0.2-2.7,0.1c-0.9-0.1-1.8-0.5-2.6-0.8c-1.6-0.6-1.7-0.6-2.3,1
		c-2.2,6.1-4.4,12.3-6.7,18.4c-0.4,1.1-0.3,1.9,0.5,2.8c4.1,4.7,8.2,9.4,12.3,14.1c0.9,1.1,1.9,2.1,2.1,3.7c0.5,3.9,1,7.8,1.6,11.6
		c0.6,3.9,1.2,7.8,0.8,11.8c-0.5,6-0.8,12-1.3,18c0,0.4-0.3,0.8-0.5,1.2c-1.6-0.5-1.6-1.9-2-3c-1.6-4.9-3.1-9.8-4.8-14.6
		c-1.3-3.6-2.2-7.3-4-10.7c-3.4-6.3-6.2-12.9-9.4-19.4c-2.2-4.5-4.4-8.9-6.8-13.3c-1.5-2.8-3.3-5.4-5-8c-5-8-10-16-15.1-24.1
		c-0.3-0.5-0.7-1-1.1-1.4c-0.3,1-0.2,1.8-0.3,2.7c0,1-0.6,1.3-1.4,0.8c-0.3-0.2-0.6-0.4-0.8-0.7c-2.6-2.4-5.3-4.8-7.9-7.2
		c-0.9-0.8-1.5-0.9-2.5-0.2c-3.5,2.4-7.1,4.8-10.6,7.2c-1.8,1.2-3.6,2.4-5.4,3.6c-0.3,0.2-0.8,0.2-1.2,0.3c0-0.4-0.1-1,0.1-1.3
		c0.7-1,1.4-2.1,2.4-2.8c4.9-3.4,9.8-6.8,14.7-10.2c1.1-0.7,1.9-0.6,2.7,0.2c1.9,1.9,3.9,3.7,5.8,5.5c0.3,0.3,0.8,0.5,1.1,0.8
		c0.1-0.1,0.2-0.2,0.2-0.2c-0.2-0.5-0.3-1.1-0.5-1.6c-0.6-1.7-1.4-3.4-2-5.1c-0.7-2-1.8-3.7-3.3-5.2c-3.4-3.3-6.7-6.8-10-10.2
		c-12.2-12.6-24.4-25.2-36.7-37.8c-0.6-0.6-1.5-1.1-2.3-1.3c-2.9-0.8-5.9-1.5-8.8-2.2c-0.9-0.2-1.4,0.2-1.7,0.9
		c-0.5,1.2-1,2.5-1.6,3.6c-0.7,1.3-0.5,2.3,0.3,3.4c4.7,6.7,9.3,13.5,14,20.2c7.6,10.9,15.1,21.9,22.7,32.8
		C131,327.6,131.2,328.4,131.6,329.1z"/>
	<path class="st0" d="M174.3,212c0.1,0,0.2,0,0.3,0c0,2.1-0.1,4.2,0,6.2c0.2,2,0.4,4.1,1.1,6c2.2,6.3,7.1,9.8,13,12.2
		c2.7,1.1,5.6,1.6,8.5,2c4.9,0.8,9.6,0.1,14.2-1.6c4.7-1.7,8.6-4.7,11.7-8.6c3.1-3.8,5.8-8,8.8-11.9c1.4-1.9,2.9-3.8,4.7-5.3
		c2.3-1.9,5.8-1,6.9,1.8c0.6,1.4,0.8,2.9,0.8,4.4c0,6.9,0.5,13.6,2.5,20.2c1.6,5.3,4.6,9.4,9.7,11.9c4.9,2.4,10.2,3.4,15.7,3.2
		c3.6-0.1,6.8-1.2,9.7-3.3c3.5-2.6,6-6.1,7.9-10c2.1-4.2,4.1-8.5,6.2-12.7c0.6-1.3,1.3-2.6,2.9-3c0.4-0.1,0.8-0.8,1-1.2
		c0.5-1.5,0.9-3.1,1.3-4.6c0.3-1.2,0.1-2-1-2.5c-0.7-0.3-1.4-0.6-2.1-0.9c-3.4-1.3-6.7-2.7-10.1-3.8c-4-1.4-8.1-2.8-12.2-3.8
		c-5.1-1.2-10.3-1.5-15.6-1.2c-4.5,0.2-9,0.4-13.5,0.6c-3.9,0.2-7.4-0.8-10.8-2.6c-3.6-1.9-7.1-3.8-10.6-5.8
		c-8.6-4.9-17.8-7.5-27.6-8.6c-3.3-0.4-6.7-0.8-10-1.2c-3.3-0.4-6.7-0.8-10-1.2c-2-0.2-2.6,0.2-3.1,2.1c-0.4,1.5-0.8,3-1.1,4.5
		c-0.3,1.1-0.1,2,0.8,2.7c0.9,0.8,1.1,1.8,1,2.9C174.8,203.4,174.5,207.7,174.3,212z"/>
	<path class="st0" d="M212.9,490.6c0-9.6,0-19.3,0-28.9c0-0.7,0-1.4,0.1-2c0.1-1.7,1-2.8,2.4-3.4c1.6-0.7,2.3-1.7,2.1-3.5
		c-0.1-0.5,0-1,0-1.4c-0.1-1.4-0.7-2-2-2c-7.9,0-15.8,0-23.6,0c-0.5,0-1.2,0.3-1.5,0.7c-1.1,1.3-0.8,4.8,0.5,5.8
		c1.4,1.1,1.8,2.5,1.7,4.2c0,1.2,0,2.3,0,3.5c0,6.3,0,12.6,0,19c0,1.8-0.5,2.4-2,2.5c-1.8,0.1-3.7,0.1-5.5,0c-1.3,0-1.8-0.6-1.8-1.9
		c0-7.9,0-15.8,0.1-23.8c0-1,0.5-2.4,1.2-3c1.6-1.2,2-2.6,1.8-4.5c-0.1-1.9-0.8-2.6-2.7-2.6c-2,0-4.1,0-6.1,0c-5.4,0-10.7,0-16.1,0
		c-1.6,0-2.5,0.5-2.7,1.7c-0.4,2.3-0.1,4.4,2,5.8c1.5,1,2.1,2.4,2,4.2c0,19.9,0,39.8,0,59.7c0,2.1-0.7,3.5-2.5,4.5
		c-0.7,0.4-1.4,1.3-1.6,2.1c-0.3,1-0.1,2.2,0,3.3c0.1,0.8,0.7,1.2,1.7,1.2c8,0,15.9,0,23.9,0c1.1,0,1.6-0.6,1.8-1.6
		c0.3-1.8-0.1-3.4-1.5-4.7c-0.9-0.9-1.4-2-1.4-3.3c0-10,0-19.9,0-29.9c0-1.3,0.4-1.7,1.7-1.8c1.3-0.1,2.6,0,4,0c3.7,0,3.7,0,3.7,3.7
		c0,9,0,18,0,27c0,1.4,0,2.9-1.3,3.8c-1.9,1.4-1.9,3.4-1.7,5.4c0.1,1,0.6,1.4,1.6,1.4c8.2,0,16.3,0,24.5,0c0.5,0,1.2-0.3,1.5-0.8
		c0.9-1.3,0.2-4.5-1.2-5.3c-2.4-1.4-3-3.5-3-6C212.9,510,212.9,500.3,212.9,490.6z"/>
	<path class="st0" d="M265.8,481.6c0.2,0,0.3,0.1,0.5,0.1c0.1,1.1,0.2,2.3,0.2,3.4c0,8,0,16,0,24c0,4,0,8.1,0,12.1
		c0,1.4-0.4,2.8-1.8,3.4c-2.4,0.9-2.7,2.6-2.5,5.2c0.1,1.5,0.8,2,2.3,2c6.2,0,12.3,0,18.5,0c1.9,0,3.8,0.1,5.8,0
		c0.6,0,1.4-0.4,1.6-0.9c1-2.3,0-5-2.2-6.2c-1.3-0.7-1.8-1.6-1.8-3.1c0-20.5,0-41,0-61.6c0-1.6,0.6-2.8,2-3.3
		c2.3-0.9,2.8-2.7,2.6-4.8c-0.1-1.7-0.7-2.3-2.4-2.6c-0.4,0-0.7,0-1.1,0c-5.8,0-11.6,0-17.4,0c-1.5,0-1.8,0.3-2.2,1.8
		c-0.7,2.4-1.4,4.8-2.1,7.2c-1.9,6.5-3.7,12.9-5.6,19.4c-0.2,0.5-0.7,0.9-1.1,1.4c-0.4-0.5-1-0.9-1.2-1.4c-0.7-2.4-1.3-4.9-2-7.4
		c-1.8-6.4-3.7-12.9-5.5-19.3c-0.4-1.5-0.6-1.7-2.2-1.7c-5.5,0-11,0-16.6,0c-3.4,0-3.6,0.3-3.7,3.7c-0.1,1.7,0.3,2.9,1.9,3.8
		c1.3,0.7,2,1.8,2,3.3c0,1.4,0.2,2.7,0.2,4.1c0,18.7,0,37.4,0,56.2c0,0.6,0,1.2,0,1.8c0,1.4-0.5,2.6-1.7,3.5
		c-0.7,0.6-1.3,1.4-1.7,2.3c-0.8,1.9,0.2,3.9,1.8,3.9c4,0,7.9,0,11.9,0c1.1,0,1.8-0.7,2.1-1.8c0.4-2.1-0.1-3.7-2-4.8
		c-1.7-1-2.3-2.3-2.3-4.3c0.1-11.9,0-23.8,0-35.6c0-0.4-0.1-0.9,0.1-1.3c0.1-0.4,0.5-0.7,0.7-1.1c0.3,0.3,0.7,0.6,0.8,1
		c2.6,9,5.2,17.9,7.8,26.9c0.8,2.6,0.8,2.6,3.4,2.6c0.4,0,0.7,0,1.1,0c2.1,0,2.3-0.2,2.9-2.2c1.2-4.5,2.5-8.9,3.7-13.3
		c1.3-4.6,2.6-9.2,4-13.8C264.8,483.1,265.4,482.4,265.8,481.6z"/>
	<path class="st0" d="M18.8,449.3c-5.1,0-10.2,0-15.4,0c-2,0-3.1,1.1-3.2,3.1c0,0.4,0,0.9,0,1.3c-0.1,1.1,0.5,1.9,1.5,2.2
		c2.6,0.8,3.3,2.7,3.3,5.1c0,19.7,0,39.4,0,59c0,2.2-0.8,4-2.9,5.1c-0.6,0.3-1.2,1-1.3,1.7c-0.2,1-0.2,2.1-0.1,3.1
		c0.1,1.2,0.8,1.9,1.9,1.9c7.8,0,15.6,0,23.4,0c0.6,0,1.4-0.4,1.7-0.8c1.1-1.4,0.6-4.8-0.8-6c-1.2-1-1.6-2.1-1.6-3.7
		c0-7.9,0-15.8,0-23.6c0-0.4-0.1-0.8,0.1-1.1c0.2-0.4,0.7-1,1-1c1.7,0,3.4-0.1,5,0.4c2.7,0.9,3.5,3.1,3.4,5.8
		c-0.1,6.1,0,12.2,0,18.2c0,1.2,0.1,2.3,0.2,3.5c0.2,2.2,0.6,4.3,1.9,6.1c0.9,1.2,2,2.2,3.5,2.2c5.2,0.1,10.4,0.1,15.6,0
		c0.5,0,1.4-0.6,1.5-1c0.5-1.9,0.6-3.9-1.1-5.4c-1-0.9-1.5-2.1-1.4-3.5c0.1-4.1,0-8.2,0-12.2c0-1.3-0.1-2.6-0.4-3.8
		c-1.5-6.2-5.4-10.1-11.5-12.1c-0.6-0.2-1-0.9-1.5-1.3c0.5-0.4,0.9-0.8,1.4-1c5.5-2.1,10-5.3,12.2-11.1c1.6-4.4,1.6-8.9,0.6-13.4
		c-1.5-6.8-5.6-11.4-11.6-14.6c-3.6-2-7.5-2.8-11.6-2.8C28.1,449.3,23.5,449.3,18.8,449.3z"/>
	<path class="st0" d="M372.7,505c0-4.9,0-9.8,0-14.6c0-0.7-0.1-1.5,0.1-2.2c0.1-0.4,0.4-0.8,0.7-0.9c0.2-0.1,0.6,0.4,0.9,0.6
		c0.2,0.2,0.3,0.5,0.4,0.7c4.4,9.5,8.8,19,13.2,28.4c2.1,4.4,4.1,8.8,6.1,13.2c0.5,1.1,1.2,1.6,2.4,1.5c1.8-0.1,3.6,0,5.4,0
		c1.9,0,2.1-0.2,2.1-2.1c0-23.3,0-46.6,0-70c0-1.9,0.6-3.2,2.5-3.9c1.1-0.4,1.8-1.1,1.8-2.4c0-0.9,0-1.8-0.1-2.6
		c-0.1-0.9-0.7-1.5-1.6-1.5c-4.8,0-9.5-0.1-14.3,0c-0.5,0-1.5,0.7-1.5,1.1c-0.3,2.8-0.4,4.4,2.5,5.6c1.7,0.8,2.6,2,2.5,4
		c0,0.7,0,1.4,0,2.2c0,7.9,0,15.8,0,23.6c0,0.5-0.5,1.1-0.7,1.6c-0.4-0.4-1-0.7-1.2-1.1c-1.9-4-3.7-8-5.6-12
		c-3.7-7.9-7.4-15.8-11.1-23.8c-0.4-0.8-0.9-1.3-1.8-1.3c-4.4,0-8.8,0-13.2,0c-1.1,0-1.9,0.6-2.2,1.6c-0.9,2.4-0.2,4.5,2,5.7
		c1.6,0.9,2.4,2.3,2.4,4.1c0,20.4,0,40.8,0.1,61.2c0,1.3-0.5,2.1-1.6,2.8c-0.5,0.3-1.2,0.6-1.6,1c-0.4,0.4-1,1-1,1.5
		c-0.1,1.1,0,2.2,0.1,3.3c0.1,0.8,0.7,1.2,1.5,1.2c4.8,0,9.7,0,14.5,0c0.5,0,1.1-0.4,1.4-0.8c1.1-1.9,0.1-5.1-1.9-6
		c-2.2-1-3-2.6-3-4.9C372.8,515.1,372.7,510,372.7,505z"/>
	<path class="st0" d="M337.1,531.8C337.1,531.8,337.1,531.8,337.1,531.8c3.9,0,7.8,0,11.8,0c0.9,0,1.6-0.2,2-1.1
		c0.7-1.6,0.3-4.1-1-5.3c-1.7-1.6-2.7-3.6-3-6c-0.3-2-0.6-3.9-1-5.9c-0.7-4.2-1.4-8.4-2.1-12.6c-0.4-2.7-0.8-5.4-1.2-8.2
		c-0.7-4.2-1.4-8.3-2.1-12.5c-0.4-2.8-0.8-5.5-1.2-8.3c-0.7-4.3-1.4-8.6-2.1-12.8c-0.4-2.1-0.7-4.3-1.1-6.4
		c-0.6-2.7-1.6-3.5-4.4-3.5c-2,0-4,0-6,0c-4.4,0-8.9,0-13.3,0c-1,0-1.9,0.1-2.3,1.1c-0.8,1.8-0.1,4.6,1.5,5.9c1.2,1,2,2.1,1.7,3.7
		c-0.2,0.9-0.3,1.8-0.5,2.7c-0.9,5.5-1.8,11.1-2.8,16.6c-0.7,4.3-1.5,8.5-2.3,12.8c-0.9,5.5-1.9,11.1-2.8,16.6
		c-0.5,3.2-1.1,6.4-1.6,9.5c-0.4,2.9-1.2,5.5-3.3,7.7c-0.9,0.9-1.1,2.6-1.3,3.9c-0.2,0.9,0.4,1.8,1.5,1.8c4.6,0,9.3,0,13.9,0
		c0.4,0,1.2-0.7,1.2-1.1c0.1-3.1,0.5-3.9-2.3-5.4c-1.5-0.8-2.3-2.1-2-3.9c0.3-2,0.5-4,0.8-6c0.1-0.8,0.8-1.2,1.6-1.2
		c3.9,0,7.8,0.1,11.7,0.1c1,0,1.4,0.5,1.6,1.5c0.3,1.7,0.6,3.5,0.9,5.2c0.3,1.9,0,3.7-1.9,4.8c-1.6,0.9-2,2.4-2,4.1c0,1.5,0.5,2,2,2
		C329.4,531.8,333.2,531.8,337.1,531.8z"/>
	<path class="st0" d="M82.4,531.8c4.4,0,8.9,0,13.3,0c0.9,0,1.6-0.2,1.8-1.2c0.4-3,0.1-4.7-2.3-5.6c-1.7-0.7-2.4-2-2.4-3.9
		c0-20.3,0-40.6,0-60.9c0-2.6,0.7-3.5,3.2-4.4c1.7-0.6,2.7-4.6,1.4-5.9c-0.2-0.2-0.6-0.4-0.9-0.5c-0.5-0.1-1.1-0.1-1.7-0.1
		c-7.9,0-15.8,0-23.8,0c-3.5,0-3.6,0.2-3.6,3.7c0,1.4,0.5,2.4,1.8,2.9c2.4,0.9,3.2,2.8,3.2,5.1c0,20,0,40.1,0,60.1
		c0,2.2-0.8,3.6-2.9,4.2c-1.8,0.5-2.4,1.8-2.4,3.5c0,0.4,0,0.7,0,1.1c0,1.6,0.4,2,2,2C73.6,531.8,78,531.8,82.4,531.8z"/>
	<path class="st0" d="M437.8,437.7c0.1-6.7-5.4-13.4-13.3-13.4c-7.4,0-13.3,5.7-13.3,13.3c-0.1,7.7,6.4,13.3,13.2,13.4
		C431.7,451.1,438,444.6,437.8,437.7z"/>
	<path class="st0" d="M113.8,252.7c0.1,0,0.3,0.1,0.4,0.1c0.2-0.4,0.4-0.7,0.6-1.1c1.8-4.1,3.4-8.3,5.3-12.4
		c1.1-2.3,1.6-4.5,0.4-6.9c-1-2.1-1.4-4.5-2.5-6.6c-1.5-3-3.3-5.8-5-8.8c-0.2-0.3-0.5-0.6-0.7-0.9c-0.1,0-0.2,0.1-0.3,0.1
		c0,0.4,0,0.8,0,1.1c0.8,5.7,1.5,11.3,2.3,17c0.1,1,0.2,2.1,0.2,3.1c-0.2,4.1-0.5,8.3-0.7,12.4C113.7,250.8,113.8,251.7,113.8,252.7
		z"/>
	<path class="st0" d="M121,205.5c0.1,0,0.3-0.1,0.4-0.1c0.3-1.5,0.7-2.9,0.8-4.4c0.2-2,0.5-3.8,1.8-5.5c1-1.3,1.9-2.8,2.8-4.2
		c0.2-0.4,0.4-0.9,0.7-1.6c-0.9,0.1-1.4,0.1-1.9,0.2c-1,0.2-2,0.4-3,0.8c-0.7,0.3-1.5,0.7-1.9,1.3c-1.4,2.2-2.7,4.4-3.9,6.7
		c-0.2,0.5-0.1,1.4,0.2,1.8c1,1.4,2.1,2.7,3.2,4.1C120.4,205,120.7,205.2,121,205.5z"/>
	<path class="st0" d="M130.6,214.2c0.1-0.1,0.3-0.3,0.4-0.4c-0.7-1.1-1.5-2.2-2.1-3.4c-0.4-0.9-0.9-1.9-0.8-2.8
		c0.3-2.6,0.8-5.2,1.2-7.8c0.1-0.4,0.1-0.8,0.2-1.2c-0.4,0.1-0.7,0.2-0.8,0.4c-1.1,1.7-2.3,3.4-3.3,5.1c-0.3,0.5-0.3,1.2-0.2,1.8
		c0.3,1.8,0.8,3.7,1.2,5.5c0.1,0.4,0.4,0.9,0.7,1.1C128.3,213.2,129.5,213.7,130.6,214.2z"/>
	<path class="st0" d="M119.2,212.6c-0.2-1.3-2.7-5.4-3.6-5.6C115.3,209,116.9,211.5,119.2,212.6z"/>
	<path d="M130.1,532.8c-1.8-0.5-3.6-0.8-5.2-1.5c-4.1-1.6-7.1-4.5-9.4-8.3c-2.9-4.7-4.9-9.8-6.1-15.3c-1.9-8.5-1.8-17.1-1.5-25.8
		c0.3-7.1,1.7-14,4.9-20.4c2.2-4.4,4.8-8.5,9.2-11.1c4.9-3,10.1-3.4,15.2-0.5c1.8,1,2.2,1.1,3.5-0.5c1.5-1.7,3.3-1.5,5.2-1.3
		c1.1,0.1,1.5,1.1,1.6,2.1c0.3,4.1,0.6,8.3,1,12.4c0.2,2.1,0.4,4.3,0.6,6.4c0.2,2-0.5,3.2-2,3.6c-1.9,0.5-4.2-0.4-4.8-2
		c-0.7-1.8-1-3.7-1.6-5.5c-0.8-2.5-1.7-5.1-2.6-7.5c-0.3-0.7-0.9-1.4-1.6-1.9c-1.7-1.5-4.3-0.9-4.9,1.3c-0.5,1.7-0.9,3.4-0.9,5.1
		c-0.1,19.6-0.1,39.1,0,58.7c0,1.3,0.2,2.8,0.7,3.9c1.2,2.6,4.7,2.7,6.4,0.4c1.2-1.7,1.6-3.7,1.9-5.7c0.2-1.6,0.4-3.2,0.7-4.7
		c0.2-1,0.9-1.8,1.9-1.9c1.5-0.2,3.1-0.3,4.6-0.1c0.6,0.1,1.3,1,1.7,1.6c0.9,1.9,0.3,3.8-0.1,5.6c-1.4,6.5-5.5,10.6-11.8,12.5
		c-0.6,0.2-1.3,0.3-2,0.4C133.1,532.8,131.6,532.8,130.1,532.8z"/>
	<path d="M263.9,269.6c-0.5,1.4-1,2.8-1.5,4.2c-3,7.7-6,15.4-8.9,23.1c-1.4,3.6-2.7,7.2-4.3,10.8c-0.6,1.3-1.6,2.4-2.5,3.5
		c-5.4,6.6-10.9,13.2-16.4,19.7c-0.8,1-1.8,1.8-2.4,2.8c-1.4,2.3-3.6,3-6,3.7c-3.3,0.9-6.5,1.9-9.7,3c-1.9,0.6-3.5,0.8-5.5-0.2
		c-8.3-4.2-16.7-8.1-25.1-12.2c-1.1-0.5-2.1-1.2-2.9-2.1c-10.4-10.2-20.7-20.4-31-30.6c-0.6-0.6-1.2-1.2-1.6-1.9
		c-4.4-7.3-8.8-14.5-13.2-21.8c-0.5-0.9-0.8-2-0.8-3c0-8.7-0.1-17.4,0.1-26c0.1-4,0.6-8,0.9-11.9c0.3-4.2,0.7-8.4,1-12.7
		c0.7-8.1,1.5-16.1,2.2-24.2c0.3-2.9,0.6-5.8,0.7-8.7c0-0.9-0.2-1.9-0.7-2.7c-4.1-6.2-8.2-12.4-12.3-18.6c-0.6-0.8-1.2-1.3-2.2-1.3
		c-3-0.2-5.4,0.7-7.1,3.3c-0.4,0.7-0.7,1.5-0.8,2.3c-0.1,0.9,0,1.9,0,2.9c0,1.2,0.6,1.6,1.8,1.3c1.3-0.3,2.7-0.6,4-0.7
		c0.6,0,1.3,0.3,1.8,0.7c2.1,2,4.1,4,6.1,6.1c1.3,1.3,0.8,3,1,4.5c-0.1,0.1-0.2,0.1-0.3,0.2c-0.4-0.3-0.9-0.6-1.2-1
		c-1.5-1.6-3-3.3-4.5-4.9c-1.3-1.4-2-1.3-3,0.2c-1.4,2.1-2.8,4.3-4.2,6.4c-1.1,1.6-1.2,3.3-1.3,5.1c-0.1,1.4-0.2,2.9-0.3,4.6
		c-0.3-0.3-0.5-0.4-0.5-0.5c-0.4-2-0.6-3.9-1.1-5.9c-0.4-1.8,0.4-3.2,1.1-4.7c0.4-0.8,0.6-1.7,1-2.8c-0.8,0.2-1.3,0.3-2,0.4
		c0.3-1.1,0.6-2,0.9-2.9c0.5-1.4,0.4-1.7-1-2.3c-8.2-3.6-16-7.9-23-13.4c-6.7-5.2-12.6-11.1-16.2-19c-1.6-3.4-2.4-7-2.5-10.8
		c-0.1-6,2.1-11.2,6.2-15.5c3.7-4,8.3-6.9,12.9-9.8c7.6-4.8,16-7.5,24.7-9.3c7.9-1.6,15.9-2.4,24-2.7c10.8-0.3,21.7-0.7,32.5-0.5
		c8.2,0.1,16.3,0.9,24.5,1.8c6.6,0.7,13.1,1.6,19.7,2.7c6.4,1.1,12.7,2.4,19,3.9c8.8,2.1,17.5,4.4,26.1,6.9
		c11.2,3.4,22.3,7.1,33,11.8c9.4,4.1,18.2,9.5,26.3,15.9c6.4,5.1,12.2,10.7,16.2,17.9c2.2,4,4,8.2,3.9,12.9c-0.1,3.2-1.4,6-2.8,8.8
		c-4.6,9.7-12.6,15.8-22,20.1c-4.7,2.2-9.6,3.8-14.5,5.7c-1.4,0.5-3,0.8-4.5,1.2c-0.3,0.1-0.7,0.2-1,0.3c-1.8,0.7-1.9,1.3-0.6,2.7
		c1.6,1.8,3.1,3.5,4.7,5.3c0.3,0.4,0.5,0.9,0.8,1.3c-0.1,0.1-0.2,0.2-0.3,0.3c-0.8-0.3-1.6-0.5-2.4-0.8c-2-0.9-4.1-1.6-6.1-2.7
		c-1.1-0.6-1.9-1.8-2.8-2.8c-0.9-1.1-1.8-2.3-3.5-1.9c-0.2,0-0.7-0.5-0.7-0.8c0-4.1-0.2-8.3,0.2-12.3c0.3-3.4,1.3-6.8,1.9-10.2
		c0.6-2.9,1.3-5.9,1.5-8.8c0.2-2.2-0.2-4.4-0.7-6.5c-0.2-0.9-1-1.8-1.7-2.5c-3.6-3.6-7.7-6.5-12-9.1c-4-2.3-8.2-4.4-12.2-6.5
		c-0.9-0.5-1.6-0.4-2.5,0c-3.5,1.6-7,3.1-10.5,4.7c-1,0.5-1.8,0.3-2.6-0.4c-5.8-4.6-11.6-9-17.3-13.7c-2.3-1.9-4.9-2.6-7.8-3
		c-2.5-0.3-4.9-0.9-7.4-1.4c-0.1,0-0.2-0.1-0.3-0.1c-2.9-0.3-5.8-0.7-8.7-1c-5-0.5-10-1.1-15-1.4c-4.1-0.3-8.2-0.1-12.2-0.3
		c-3.6-0.2-6.8,0.4-9.9,2.5c-3.9,2.7-8.3,4.8-12.4,7.2c-0.5,0.3-1.3,0.9-1.2,1.3c0.1,0.5,0.7,1.1,1.3,1.4c3,1.7,6,3.4,9,5
		c0.9,0.5,1.2,1,1.3,2.1c0,0.8,0.4,1.7,1,2.3c2,2.5,4,4.8,6.1,7.3c0.3,0.3,0.5,0.7,0.5,1.3c-0.4-0.2-0.8-0.3-1.2-0.5
		c-8.2-4.7-16.5-9.3-24.7-14c-0.3-0.2-0.7-0.4-1.1-0.5c-0.8-0.2-1.4,0.2-1.8,0.9c-0.4,0.8,0.2,1.2,0.8,1.5c4,2.2,7.9,4.3,11.9,6.5
		c6.7,3.7,13.5,7.3,20.2,11c0.4,0.2,0.6,0.7,0.9,1c-0.4,0.2-0.7,0.5-1.1,0.7c-3.9,1.4-7.7,2.7-11.6,4.1c-2.6,0.9-5.1,1.7-7.7,2.7
		c-0.4,0.2-0.8,0.6-1.2,0.9c0.3,0.4,0.6,0.9,1,1.1c4.9,2.4,9.7,4.8,14.6,7.2c2,1,2,1,1.6,3.2c-0.3,1.4-0.7,2.9-1,4.3
		c-0.4,1.5-0.8,1.7-2.2,0.9c-5-3-10-5.9-15.1-8.9c-0.3-0.2-0.7-0.4-1-0.6c-0.8-0.4-1.4-0.2-1.7,0.7c-0.9,3-1.7,6.1-2.5,9.1
		c-0.7,2.7-1.5,5.5-2.2,8.2c-0.9,3.2-1.7,6.4-2.5,9.6c-0.1,0.5,0,1,0,1.5c0.5,3.7,0.9,7.4,1.4,11.2c0.7,5.4,1.4,10.8,2.2,16.2
		c0.1,0.8,0.6,1.7,1.2,2.3c6.5,7.3,13.1,14.6,19.7,21.9c0.9,1,1.3,2,1.4,3.3c0.2,5.8,0.5,11.6,0.8,17.4c0,0.5,0.3,1.1,0.6,1.3
		c0.3,0.2,0.9-0.1,1.3-0.3c2.5-1.5,4.5-3.4,5.7-6.1c0.3-0.5,0.7-1,0.9-1.6c2-4.9,6.1-7.7,10.4-10.4c0.6-0.4,1.3-0.5,2-0.5
		c10.5,0.1,21,0.3,31.6,0.4c1.2,0,1.5,0.5,1.2,1.8c-0.3,1.2-0.6,2.4-0.9,3.6c-0.4,1.6-0.8,3.2-1.3,4.8c-0.2,0.8-0.7,1.1-1.6,1.2
		c-5.9,0.5-11.8,1.1-17.7,1.5c-4.1,0.3-8.2,0.6-12.3,0.9c-2.1,0.1-2.7,0.6-3.2,2.6c-0.7,2.8-1.6,5.6-2.2,8.4
		c-0.2,0.9-0.2,2.1,0.2,2.8c2.7,5.2,5.5,10.3,8.2,15.4c1,1.9,1.3,2,3.3,1.2c1.5-0.6,3.1-1.1,4.5-1.8c0.7-0.4,1.2-1.2,1.7-1.8
		c0.2-0.2,0.3-0.6,0.4-0.9c1.5-2.6,2-5.3,1.7-8.3c-0.2-1.6,0.2-1.9,1.7-1.6c3.7,0.7,7.4,1.5,11.1,2.2c2.1,0.4,4.2,0.8,6.2,1.2
		c1.8,0.3,2.2,0.9,1.9,2.7c0,0.2-0.1,0.4-0.1,0.6c0.2,3.3-0.8,6.3-2.2,9.2c-0.6,1.2,0,1.8,1.3,1.8c2-0.1,3.7-0.8,5-2.6
		c2-2.8,4.2-5.4,6.3-8.2c0.6-0.8,1-1.8,1.3-2.8c1-3,2-6,3-9c0.5-1.3,0.2-2.4-1-3.3c-3.3-2.7-6.6-5.4-9.9-8c-0.9-0.8-1.2-1.6-0.9-2.7
		c0.6-2.7,1.1-5.4,1.6-8.1c0.2-1.1,0.7-1.2,1.7-0.4c3.7,2.8,7.3,5.7,11,8.5c4.3,3.4,4.3,3.4,5.1,8.9c0.1,0.9,0.1,1.8,0.3,2.7
		c0.1,0.6,0.5,1.1,0.8,1.6c0.5-0.4,1.1-0.7,1.4-1.2c1.5-2.6,2.9-5.3,4.3-7.9c2.3-4.3,4.6-8.5,6.9-12.7c0.2-0.4,0.5-0.7,0.8-1.1
		C263.6,269.4,263.8,269.5,263.9,269.6z"/>
	<path d="M185.8,0c7.3,0.5,14.5,0.8,21.6,1.5c6.8,0.6,13.6,1.5,20.3,2.5c5.4,0.8,10.7,1.6,16,2.7c5.3,1.1,10.4,2.6,15.6,4.2
		c8.6,2.6,17.1,5.9,25.1,10c4.9,2.6,9.7,5.5,13.6,9.5c2.6,2.7,4.9,5.7,5.4,9.5c0.2,1.8-0.3,3.7-0.6,5.5c-0.4,2.2-0.9,4.4-1.4,6.5
		c-0.5,2.2-1,4.4-1.5,6.6c-1.1,5.1-2.2,10.1-3.3,15.2c-1,4.6-1.9,9.2-2.9,13.8c-0.7,3.3-1.5,6.5-2.2,9.8c-1,4.5-1.9,9-2.8,13.6
		c-0.3,1.3-0.5,2.6-0.8,4c-0.3,1.2-0.8,1.5-2,1c-4.9-1.8-9.7-3.8-14.7-5.5c-3.8-1.4-7.7-2.5-11.6-3.7c-3.3-1-6.7-2.1-10.1-3
		c-3.8-1-7.6-1.9-11.4-2.9c-2.9-0.7-5.8-1.5-8.7-2.1c-2.1-0.5-4.2-0.8-6.3-1.2c-2.6-0.5-5.1-1.1-7.7-1.5c-5.3-0.9-10.6-1.7-15.9-2.4
		c-4.1-0.5-8.2-0.7-12.3-1.1c-2.5-0.2-4.9-0.5-7.4-0.5c-6.3-0.1-12.6-0.2-18.9-0.1c-8.3,0.1-16.6,0.4-24.9,0.7c-0.3,0-0.6,0-0.8,0
		c-0.7,0-0.8-0.4-0.6-1c0-0.1,0-0.2,0.1-0.2c2.9-3.6,2.2-8,2.5-12.1c0.7-9,1-18,1.5-26.9c0.4-7,0.8-14,1.2-21.1
		c0.3-4.8,0.5-9.7,0.9-14.5c0.1-1.4,0.9-2.8,1.7-4c2.3-3.4,5.7-5.4,9.4-7.1c5.4-2.4,11.2-3.7,17.1-4.3C174.5,0.7,180.2,0.4,185.8,0z
		"/>
	<path d="M131.6,329.1c-0.4-0.7-0.7-1.5-1.1-2.2c-7.6-11-15.1-21.9-22.7-32.8c-4.7-6.7-9.3-13.5-14-20.2c-0.8-1.1-1-2.1-0.3-3.4
		c0.6-1.2,1.1-2.4,1.6-3.6c0.3-0.7,0.8-1.1,1.7-0.9c2.9,0.8,5.9,1.4,8.8,2.2c0.8,0.2,1.7,0.7,2.3,1.3c12.3,12.6,24.5,25.2,36.7,37.8
		c3.3,3.4,6.6,6.9,10,10.2c1.5,1.5,2.6,3.2,3.3,5.2c0.6,1.7,1.3,3.4,2,5.1c0.2,0.5,0.3,1,0.5,1.6c-0.1,0.1-0.2,0.2-0.2,0.2
		c-0.4-0.3-0.8-0.5-1.1-0.8c-2-1.8-3.9-3.7-5.8-5.5c-0.9-0.9-1.7-1-2.7-0.2c-4.9,3.4-9.8,6.7-14.7,10.2c-1,0.7-1.7,1.8-2.4,2.8
		c-0.2,0.3-0.1,0.9-0.1,1.3c0.4-0.1,0.9-0.1,1.2-0.3c1.8-1.2,3.6-2.4,5.4-3.6c3.6-2.4,7.1-4.7,10.6-7.2c1-0.7,1.7-0.6,2.5,0.2
		c2.6,2.4,5.2,4.8,7.9,7.2c0.3,0.2,0.5,0.5,0.8,0.7c0.9,0.5,1.4,0.2,1.4-0.8c0-0.8,0-1.7,0.3-2.7c0.4,0.5,0.8,0.9,1.1,1.4
		c5,8,10,16,15.1,24.1c1.7,2.7,3.5,5.3,5,8c2.4,4.4,4.6,8.8,6.8,13.3c3.1,6.5,6,13.1,9.4,19.4c1.8,3.4,2.8,7.1,4,10.7
		c1.7,4.8,3.2,9.8,4.8,14.6c0.4,1.1,0.4,2.4,2,3c0.2-0.4,0.4-0.8,0.5-1.2c0.4-6,0.7-12,1.3-18c0.4-4-0.2-7.9-0.8-11.8
		c-0.6-3.9-1.1-7.7-1.6-11.6c-0.2-1.6-1.2-2.6-2.1-3.7c-4.1-4.7-8.2-9.4-12.3-14.1c-0.8-0.9-0.9-1.7-0.5-2.8
		c2.3-6.1,4.4-12.3,6.7-18.4c0.6-1.6,0.7-1.6,2.3-1c0.9,0.3,1.7,0.7,2.6,0.8c0.9,0.1,1.8,0.2,2.7-0.1c5.9-1.8,11.8-3.6,17.7-5.5
		c1.2-0.4,2.2-0.2,3.3,0.5c6,3.9,12.1,7.8,18.2,11.6c1.5,1,1.5,1.2,0,2.2c-1.3,0.9-1.3,1.7,0,2.7c1.8,1.4,1.8,1.4,0.9,3.6
		c-1.4,3.2-2.9,6.4-4.4,9.6c-0.6,1.4-1,1.5-2.4,1c-1.7-0.7-3.4-1.4-5.1-2c-0.7-0.3-1.5-0.3-2.3-0.5c1.4,1.8,3.3,2.6,5.1,3.6
		c2.6,1.5,3.1,0.9,1.9,4.8c-1.3,4.3-2.3,8.6-3.7,12.9c-1.1,3.5-1,7-1.4,10.5c-0.1,1-0.3,2.1-0.9,2.9c-5.7,9-11.5,17.9-17.2,27
		c-1.8,2.9-3.9,5.5-6.2,8c-0.9,1-1.3,1-2-0.1c-6.2-9.1-12.4-18.2-18.5-27.3c-4.9-7.2-9.8-14.3-14.6-21.5c-0.3-0.4-0.5-0.9-0.9-1.7
		c1.1,0.1,1.9,0.2,2.7,0.1c0.5,0,1.1-0.3,1.6-0.5c-0.3-0.4-0.6-1-1-1.3c-6.8-3.9-13.7-7.7-20.4-11.6c-2.1-1.2-4-2.8-5.8-4.4
		c-8.3-7.9-16.6-15.8-24.9-23.8c-1.2-1.2-1.8-1.1-2.8,0.2c-4.9,6.4-9.7,12.9-14.6,19.3c-0.5,0.6-1.1,1-1.7,1.6
		c-0.4-0.6-0.9-1.2-1.1-1.9c-10.2-23.4-20.5-46.9-30.7-70.3c-0.2-0.5-0.4-1-0.7-1.5c-0.9-2-0.9-2,0.8-3.4c2.1-1.7,4.2-3.4,6.2-5.1
		c0.9-0.8,1.6-0.7,2.3,0.1c9.4,10,18.9,20,28.3,30c4.5,4.8,9.1,9.6,13.6,14.4c0.6,0.6,1.3,1.1,2,1.6
		C131.3,329.4,131.5,329.3,131.6,329.1z M225,398.8c-0.4-0.7-0.9-1.7-1.6-2.6c-0.2-0.3-0.9-0.7-1.1-0.6c-0.4,0.2-0.6,0.8-0.7,1.2
		c-0.3,1.7-0.5,3.5-0.7,5.2c-0.5,3.9-0.9,7.8-1.4,11.6c-0.4,3.1-0.9,6.1-1.2,9.2c-0.1,0.5,0.4,1.1,0.6,1.6c0.2-0.5,0.4-1,0.6-1.5
		c0.2-0.7,0.4-1.5,0.6-2.2c0.1-0.4,0.3-0.8,0.4-1.3c1-4.7,2.1-9.4,3.1-14.1C224.1,403.3,224.5,401.3,225,398.8z"/>
	<path d="M174.3,212c0.3-4.3,0.6-8.6,0.9-12.9c0.1-1.1-0.1-2.2-1-2.9c-0.9-0.7-1-1.7-0.8-2.7c0.4-1.5,0.7-3,1.1-4.5
		c0.5-1.9,1.1-2.3,3.1-2.1c3.3,0.4,6.7,0.8,10,1.2c3.3,0.4,6.6,0.8,10,1.2c9.7,1.1,19,3.7,27.6,8.6c3.5,2,7.1,3.9,10.6,5.8
		c3.4,1.8,7,2.8,10.8,2.6c4.5-0.2,9-0.4,13.5-0.6c5.3-0.3,10.5,0,15.6,1.2c4.1,1,8.2,2.4,12.2,3.8c3.4,1.2,6.8,2.6,10.1,3.8
		c0.7,0.3,1.4,0.6,2.1,0.9c1.1,0.5,1.4,1.3,1,2.5c-0.5,1.5-0.8,3.1-1.3,4.6c-0.2,0.5-0.6,1.1-1,1.2c-1.6,0.4-2.3,1.6-2.9,3
		c-2,4.2-4.1,8.5-6.2,12.7c-1.9,3.9-4.4,7.3-7.9,10c-2.9,2.1-6.1,3.2-9.7,3.3c-5.5,0.2-10.7-0.8-15.7-3.2c-5.1-2.5-8.1-6.6-9.7-11.9
		c-2-6.6-2.6-13.4-2.5-20.2c0-1.5-0.2-3.1-0.8-4.4c-1.1-2.8-4.6-3.7-6.9-1.8c-1.8,1.5-3.3,3.5-4.7,5.3c-3,3.9-5.7,8.1-8.8,11.9
		c-3.1,3.8-7,6.8-11.7,8.6c-4.6,1.7-9.3,2.4-14.2,1.6c-2.9-0.5-5.7-0.9-8.5-2c-5.9-2.4-10.8-5.9-13-12.2c-0.7-1.9-0.9-4-1.1-6
		c-0.2-2.1,0-4.2,0-6.2C174.4,212,174.3,212,174.3,212z"/>
	<path d="M212.9,490.6c0,9.7,0,19.4,0,29.2c0,2.6,0.6,4.7,3,6c1.4,0.8,2,4,1.2,5.3c-0.3,0.4-1,0.8-1.5,0.8c-8.2,0-16.3,0-24.5,0
		c-1,0-1.5-0.5-1.6-1.4c-0.2-2-0.2-4,1.7-5.4c1.2-0.9,1.3-2.4,1.3-3.8c0-9,0-18,0-27c0-3.7,0-3.7-3.7-3.7c-1.3,0-2.6,0-4,0
		c-1.3,0.1-1.7,0.5-1.7,1.8c0,10,0,19.9,0,29.9c0,1.3,0.5,2.4,1.4,3.3c1.4,1.3,1.8,2.9,1.5,4.7c-0.2,1.1-0.7,1.7-1.8,1.6
		c-8,0-15.9,0-23.9,0c-0.9,0-1.5-0.4-1.7-1.2c-0.1-1.1-0.3-2.3,0-3.3c0.2-0.8,0.9-1.7,1.6-2.1c1.8-1,2.5-2.4,2.5-4.5
		c0-19.9,0-39.8,0-59.7c0-1.8-0.5-3.2-2-4.2c-2.1-1.4-2.4-3.5-2-5.8c0.2-1.1,1.1-1.7,2.7-1.7c5.4,0,10.7,0,16.1,0c2,0,4.1,0,6.1,0
		c1.9,0,2.5,0.7,2.7,2.6c0.1,1.8-0.2,3.3-1.8,4.5c-0.8,0.6-1.2,1.9-1.2,3c-0.1,7.9-0.1,15.8-0.1,23.8c0,1.3,0.5,1.9,1.8,1.9
		c1.8,0.1,3.7,0.1,5.5,0c1.6-0.1,2-0.7,2-2.5c0-6.3,0-12.6,0-19c0-1.2,0-2.3,0-3.5c0.1-1.7-0.3-3.1-1.7-4.2c-1.3-1-1.6-4.5-0.5-5.8
		c0.3-0.4,1-0.7,1.5-0.7c7.9,0,15.8,0,23.6,0c1.3,0,1.9,0.6,2,2c0,0.5,0,1,0,1.4c0.2,1.7-0.4,2.8-2.1,3.5c-1.5,0.6-2.4,1.7-2.4,3.4
		c0,0.7-0.1,1.4-0.1,2C212.9,471.3,212.9,480.9,212.9,490.6z"/>
	<path d="M265.8,481.6c-0.5,0.8-1.1,1.5-1.3,2.4c-1.4,4.6-2.7,9.2-4,13.8c-1.3,4.4-2.5,8.9-3.7,13.3c-0.5,2-0.8,2.2-2.9,2.2
		c-0.4,0-0.7,0-1.1,0c-2.7,0-2.7,0-3.4-2.6c-2.6-9-5.2-17.9-7.8-26.9c-0.1-0.4-0.5-0.7-0.8-1c-0.3,0.4-0.6,0.7-0.7,1.1
		c-0.1,0.4-0.1,0.9-0.1,1.3c0,11.9,0,23.8,0,35.6c0,1.9,0.6,3.2,2.3,4.3c1.9,1.1,2.4,2.7,2,4.8c-0.2,1.1-0.9,1.8-2.1,1.8
		c-4,0-7.9,0-11.9,0c-1.6,0-2.6-2-1.8-3.9c0.3-0.8,1-1.7,1.7-2.3c1.2-0.9,1.7-2.1,1.7-3.5c0-0.6,0-1.2,0-1.8c0-18.7,0-37.4,0-56.2
		c0-1.4-0.2-2.7-0.2-4.1c0-1.5-0.7-2.6-2-3.3c-1.6-0.9-2-2.1-1.9-3.8c0.1-3.4,0.4-3.7,3.7-3.7c5.5,0,11,0,16.6,0
		c1.6,0,1.8,0.2,2.2,1.7c1.8,6.4,3.7,12.9,5.5,19.3c0.7,2.5,1.3,4.9,2,7.4c0.2,0.5,0.8,0.9,1.2,1.4c0.4-0.5,0.9-0.8,1.1-1.4
		c1.9-6.5,3.8-12.9,5.6-19.4c0.7-2.4,1.4-4.8,2.1-7.2c0.4-1.5,0.7-1.8,2.2-1.8c5.8,0,11.6,0,17.4,0c0.4,0,0.7,0,1.1,0
		c1.7,0.2,2.3,0.8,2.4,2.6c0.2,2.2-0.3,3.9-2.6,4.8c-1.5,0.6-2,1.7-2,3.3c0,20.5,0,41,0,61.6c0,1.5,0.6,2.4,1.8,3.1
		c2.2,1.2,3.2,3.9,2.2,6.2c-0.2,0.5-1,0.9-1.6,0.9c-1.9,0.1-3.8,0-5.8,0c-6.2,0-12.3,0-18.5,0c-1.5,0-2.2-0.5-2.3-2
		c-0.1-2.6,0.1-4.3,2.5-5.2c1.4-0.5,1.8-1.9,1.8-3.4c0-4,0-8.1,0-12.1c0-8,0-16,0-24c0-1.1-0.1-2.3-0.2-3.4
		C266.2,481.7,266,481.6,265.8,481.6z"/>
	<path d="M18.8,449.3c4.7,0,9.4,0,14,0c4.1,0.1,8,0.9,11.6,2.8c5.9,3.2,10.1,7.8,11.6,14.6c1,4.6,1,9-0.6,13.4
		c-2.1,5.8-6.7,9-12.2,11.1c-0.5,0.2-1,0.7-1.4,1c0.5,0.4,0.9,1.1,1.5,1.3c6,1.9,10,5.8,11.5,12.1c0.3,1.2,0.4,2.5,0.4,3.8
		c0,4.1,0,8.2,0,12.2c0,1.4,0.4,2.6,1.4,3.5c1.7,1.6,1.6,3.5,1.1,5.4c-0.1,0.5-1,1-1.5,1c-5.2,0.1-10.4,0.1-15.6,0
		c-1.6,0-2.7-1-3.5-2.2c-1.3-1.8-1.7-3.9-1.9-6.1c-0.1-1.2-0.2-2.3-0.2-3.5c0-6.1,0-12.2,0-18.2c0-2.7-0.8-4.9-3.4-5.8
		c-1.5-0.5-3.3-0.4-5-0.4c-0.3,0-0.8,0.6-1,1c-0.2,0.3-0.1,0.7-0.1,1.1c0,7.9,0,15.8,0,23.6c0,1.5,0.4,2.7,1.6,3.7
		c1.4,1.1,1.8,4.5,0.8,6c-0.3,0.5-1.1,0.8-1.7,0.8c-7.8,0.1-15.6,0-23.4,0c-1.1,0-1.8-0.7-1.9-1.9c-0.1-1-0.1-2.1,0.1-3.1
		c0.2-0.6,0.7-1.4,1.3-1.7C4.3,524,5,522.3,5,520c0-19.7,0-39.4,0-59c0-2.4-0.7-4.3-3.3-5.1c-1-0.3-1.6-1-1.5-2.2c0-0.4,0-0.9,0-1.3
		c0.1-2,1.2-3.1,3.2-3.1C8.5,449.3,13.7,449.3,18.8,449.3z M25.4,472.4c0,5.1,0,10.2,0,15.2c0,0.7,0.4,1.6,0.9,1.9
		c1.3,0.8,5.2,0,6.3-1.1c1.5-1.5,2.1-3.4,2.1-5.4c0.1-7.5,0.1-15,0-22.4c0-2.2-1.1-4-3.2-4.8c-1.1-0.5-2.5-0.6-3.7-0.7
		c-2-0.2-2.4,0.3-2.4,2.2C25.4,462.3,25.4,467.3,25.4,472.4z"/>
	<path d="M372.7,505c0,5,0.1,10.1,0,15.1c0,2.4,0.8,3.9,3,4.9c2,0.9,3,4.1,1.9,6c-0.2,0.4-0.9,0.8-1.4,0.8c-4.8,0.1-9.7,0-14.5,0
		c-0.8,0-1.4-0.4-1.5-1.2c-0.1-1.1-0.3-2.2-0.1-3.3c0.1-0.5,0.6-1.1,1-1.5c0.5-0.4,1.1-0.6,1.6-1c1-0.6,1.6-1.5,1.6-2.8
		c0-20.4,0-40.8-0.1-61.2c0-1.8-0.8-3.2-2.4-4.1c-2.2-1.3-2.8-3.3-2-5.7c0.4-1.1,1.1-1.6,2.2-1.6c4.4,0,8.8,0,13.2,0
		c0.9,0,1.5,0.5,1.8,1.3c3.7,7.9,7.4,15.8,11.1,23.8c1.9,4,3.7,8,5.6,12c0.2,0.5,0.8,0.8,1.2,1.1c0.2-0.5,0.7-1.1,0.7-1.6
		c0-7.9,0-15.8,0-23.6c0-0.7,0-1.4,0-2.2c0.1-1.9-0.9-3.2-2.5-4c-2.9-1.3-2.8-2.8-2.5-5.6c0.1-0.5,1-1.1,1.5-1.1
		c4.8-0.1,9.5-0.1,14.3,0c0.9,0,1.5,0.6,1.6,1.5c0.1,0.9,0.1,1.8,0.1,2.6c0,1.3-0.7,2-1.8,2.4c-1.9,0.6-2.5,1.9-2.5,3.9
		c0,23.3,0,46.6,0,70c0,1.9-0.2,2.1-2.1,2.1c-1.8,0-3.6-0.1-5.4,0c-1.2,0.1-1.9-0.5-2.4-1.5c-2-4.4-4.1-8.8-6.1-13.2
		c-4.4-9.5-8.8-19-13.2-28.4c-0.1-0.3-0.2-0.5-0.4-0.7c-0.3-0.3-0.7-0.7-0.9-0.6c-0.3,0.1-0.7,0.6-0.7,0.9c-0.1,0.7-0.1,1.4-0.1,2.2
		C372.7,495.2,372.7,500.1,372.7,505z"/>
	<path d="M337.1,531.8c-3.8,0-7.7,0-11.5,0c-1.5,0-2-0.5-2-2c0-1.7,0.4-3.2,2-4.1c1.8-1.1,2.2-2.8,1.9-4.8c-0.3-1.7-0.6-3.5-0.9-5.2
		c-0.1-0.9-0.6-1.5-1.6-1.5c-3.9,0-7.8-0.1-11.7-0.1c-0.8,0-1.4,0.4-1.6,1.2c-0.3,2-0.6,4-0.8,6c-0.3,1.8,0.5,3.1,2,3.9
		c2.8,1.5,2.4,2.3,2.3,5.4c0,0.4-0.8,1.1-1.2,1.1c-4.6,0.1-9.3,0.1-13.9,0c-1.1,0-1.6-0.9-1.5-1.8c0.2-1.4,0.5-3,1.3-3.9
		c2.2-2.2,2.9-4.8,3.3-7.7c0.5-3.2,1.1-6.4,1.6-9.5c0.9-5.5,1.8-11.1,2.8-16.6c0.7-4.3,1.5-8.5,2.3-12.8c0.9-5.5,1.8-11.1,2.8-16.6
		c0.2-0.9,0.3-1.8,0.5-2.7c0.3-1.6-0.5-2.7-1.7-3.7c-1.6-1.3-2.3-4.1-1.5-5.9c0.4-1,1.4-1.1,2.3-1.1c4.4,0,8.9,0,13.3,0c2,0,4,0,6,0
		c2.8,0,3.8,0.8,4.4,3.5c0.4,2.1,0.7,4.2,1.1,6.4c0.7,4.3,1.5,8.6,2.1,12.8c0.4,2.8,0.8,5.5,1.2,8.3c0.7,4.2,1.4,8.3,2.1,12.5
		c0.4,2.7,0.8,5.4,1.2,8.2c0.7,4.2,1.4,8.4,2.1,12.6c0.3,2,0.7,3.9,1,5.9c0.3,2.3,1.3,4.3,3,6c1.3,1.2,1.7,3.8,1,5.3
		c-0.4,0.8-1.1,1.1-2,1.1C344.9,531.8,341,531.8,337.1,531.8C337.1,531.8,337.1,531.8,337.1,531.8z M319.2,508.8c1.6,0,3.1,0,4.7,0
		c1.4,0,1.7-0.6,1.5-1.9c-0.4-2.5-0.8-5-1.2-7.5c-0.4-2.9-0.8-5.8-1.3-8.7c-0.7-4.6-1.4-9.2-2.1-13.8c-0.3-1.6-0.6-3.2-1-4.8
		c-0.1-0.3-0.5-0.5-0.8-0.7c-0.2,0.3-0.4,0.6-0.5,0.9c-0.6,3.5-1.2,7.1-1.7,10.6c-0.7,4.4-1.3,8.9-2,13.3c-0.6,3.7-1.2,7.3-1.8,11
		c-0.2,1.2,0.2,1.7,1.4,1.7C316,508.9,317.6,508.8,319.2,508.8z"/>
	<path d="M82.4,531.8c-4.4,0-8.8,0-13.2,0c-1.6,0-2-0.4-2-2c0-0.4,0-0.7,0-1.1c-0.1-1.7,0.5-3,2.4-3.5c2.1-0.6,2.9-2,2.9-4.2
		c-0.1-20,0-40.1,0-60.1c0-2.3-0.8-4.2-3.2-5.1c-1.3-0.5-1.8-1.5-1.8-2.9c0-3.4,0.2-3.7,3.6-3.7c7.9,0,15.8,0,23.8,0
		c0.6,0,1.1,0,1.7,0.1c0.3,0.1,0.7,0.2,0.9,0.5c1.3,1.3,0.3,5.3-1.4,5.9c-2.5,0.8-3.2,1.8-3.2,4.4c0,20.3,0,40.6,0,60.9
		c0,1.9,0.7,3.2,2.4,3.9c2.4,1,2.7,2.7,2.3,5.6c-0.1,1-0.9,1.2-1.8,1.2C91.3,531.8,86.8,531.8,82.4,531.8z"/>
	<path d="M437.8,437.7c0.2,7-6.1,13.4-13.5,13.3c-6.8-0.1-13.3-5.7-13.2-13.4c0.1-7.6,6-13.3,13.3-13.3
		C432.4,424.3,438,431,437.8,437.7z M413.3,437.5c-0.4,5.9,4.6,11.5,11.2,11.5c6.5-0.1,11.2-5,11.3-11.3c0.1-6.2-5.2-11.2-11.3-11.3
		C418.4,426.3,412.8,432.1,413.3,437.5z"/>
	<path d="M113.8,252.7c0-0.9,0-1.9,0-2.8c0.2-4.1,0.5-8.3,0.7-12.4c0.1-1,0-2.1-0.2-3.1c-0.7-5.7-1.5-11.3-2.3-17c0-0.4,0-0.8,0-1.1
		c0.1,0,0.2-0.1,0.3-0.1c0.2,0.3,0.5,0.6,0.7,0.9c1.7,2.9,3.5,5.8,5,8.8c1,2.1,1.5,4.5,2.5,6.6c1.1,2.5,0.7,4.6-0.4,6.9
		c-1.9,4.1-3.6,8.3-5.3,12.4c-0.2,0.4-0.4,0.7-0.6,1.1C114,252.7,113.9,252.7,113.8,252.7z"/>
	<path d="M121,205.5c-0.3-0.3-0.6-0.5-0.8-0.8c-1.1-1.3-2.2-2.6-3.2-4.1c-0.3-0.5-0.4-1.4-0.2-1.8c1.2-2.3,2.5-4.5,3.9-6.7
		c0.4-0.6,1.2-1,1.9-1.3c1-0.4,2-0.6,3-0.8c0.5-0.1,1-0.1,1.9-0.2c-0.3,0.7-0.4,1.2-0.7,1.6c-0.9,1.4-1.8,2.8-2.8,4.2
		c-1.2,1.6-1.6,3.5-1.8,5.5c-0.1,1.5-0.5,2.9-0.8,4.4C121.2,205.4,121.1,205.5,121,205.5z"/>
	<path d="M130.6,214.2c-1.1-0.5-2.3-1-3.4-1.6c-0.3-0.2-0.6-0.7-0.7-1.1c-0.5-1.8-0.9-3.6-1.2-5.5c-0.1-0.6-0.1-1.3,0.2-1.8
		c1-1.8,2.2-3.4,3.3-5.1c0.1-0.2,0.4-0.3,0.8-0.4c-0.1,0.4-0.1,0.8-0.2,1.2c-0.4,2.6-1,5.2-1.2,7.8c-0.1,0.9,0.3,1.9,0.8,2.8
		c0.6,1.2,1.4,2.3,2.1,3.4C130.9,214,130.8,214.1,130.6,214.2z"/>
	<path d="M119.2,212.6c-2.2-1.1-3.8-3.6-3.6-5.6C116.4,207.3,119,211.3,119.2,212.6z"/>
	<path class="st0" d="M225,398.8c-0.5,2.5-0.9,4.5-1.4,6.5c-1,4.7-2.1,9.4-3.1,14.1c-0.1,0.4-0.3,0.8-0.4,1.3
		c-0.2,0.7-0.3,1.5-0.6,2.2c-0.2,0.5-0.4,1-0.6,1.5c-0.2-0.5-0.7-1.1-0.6-1.6c0.3-3.1,0.8-6.1,1.2-9.2c0.5-3.9,0.9-7.7,1.4-11.6
		c0.2-1.7,0.4-3.5,0.7-5.2c0.1-0.4,0.4-1,0.7-1.2c0.2-0.1,0.9,0.3,1.1,0.6C224.1,397.1,224.6,398.1,225,398.8z"/>
	<path class="st0" d="M25.4,472.4c0-5,0-10.1,0-15.1c0-1.9,0.5-2.4,2.4-2.2c1.3,0.1,2.6,0.2,3.7,0.7c2.1,0.8,3.2,2.6,3.2,4.8
		c0.1,7.5,0.1,15,0,22.4c0,2-0.7,3.9-2.1,5.4c-1.1,1.1-5,1.9-6.3,1.1c-0.5-0.3-0.8-1.2-0.9-1.9C25.4,482.5,25.4,477.4,25.4,472.4z"
		/>
	<path class="st0" d="M319.2,508.8c-1.6,0-3.2,0-4.8,0c-1.2,0-1.6-0.5-1.4-1.7c0.6-3.7,1.2-7.3,1.8-11c0.7-4.4,1.3-8.9,2-13.3
		c0.5-3.5,1.1-7.1,1.7-10.6c0.1-0.3,0.3-0.6,0.5-0.9c0.3,0.2,0.8,0.4,0.8,0.7c0.4,1.6,0.7,3.2,1,4.8c0.7,4.6,1.4,9.2,2.1,13.8
		c0.4,2.9,0.8,5.8,1.3,8.7c0.4,2.5,0.8,5,1.2,7.5c0.2,1.4-0.1,1.9-1.5,1.9C322.3,508.9,320.8,508.8,319.2,508.8z"/>
	<path d="M418.1,437.7c0-1.9,0-3.8,0-5.6c0-1,0.3-1.5,1.4-1.5c2.1,0.1,4.2,0,6.3,0.1c2,0.1,3.2,1,3.6,2.6c0.5,1.8-0.1,3.3-1.7,4.4
		c-1,0.7-1,1.3-0.3,2.3c0.8,1.1,1.6,2.2,2.3,3.3c0.2,0.3,0.3,0.8,0.2,1.1c-0.1,0.2-0.7,0.4-1,0.3c-0.6-0.2-1.3-0.5-1.8-0.9
		c-0.6-0.6-1-1.4-1.5-2c-0.4-0.5-0.7-1.1-1.1-1.6c-0.8-0.9-1.6-1.9-2.9-1.4c-1.2,0.5-0.9,1.7-0.9,2.8c0,0.4,0,0.9,0,1.3
		c0,0.9,0,1.9-1.3,1.9c-1.2,0-1.3-0.9-1.3-1.8C418.1,441.2,418.1,439.4,418.1,437.7z M423.6,436.6
		C423.6,436.6,423.6,436.6,423.6,436.6c0.4,0,0.8,0,1.2,0c1.3-0.1,2-0.7,2-1.8c0-1.2-0.8-2.1-2-2.2c-0.9-0.1-1.8-0.1-2.7,0
		c-0.5,0.1-1.2,0.6-1.3,1c-0.4,2.1-0.1,3.3,2.2,3.1C423.2,436.6,423.4,436.6,423.6,436.6z"/>
</g>
</svg>
