<?xml version="1.0" encoding="utf-8"?>
<!-- Generator: Adobe Illustrator 23.0.5, SVG Export Plug-In . SVG Version: 6.00 Build 0)  -->
<svg version="1.1" id="Layer_1" xmlns="http://www.w3.org/2000/svg" xmlns:xlink="http://www.w3.org/1999/xlink" x="0px" y="0px"
	 width="110.2px" height="134.2px" viewBox="0 0 110.2 134.2" style="enable-background:new 0 0 110.2 134.2;" xml:space="preserve"
	>
<style type="text/css">
	.st0{fill:#FFFFFF;}
	.st1{fill:#FEFEFE;}
</style>
<g>
	<path class="st0" d="M66.4,67.9C66.4,67.9,66.4,67.9,66.4,67.9c-0.2,0-0.2,0.1-0.3,0.2c-0.6,1.1-1.2,2.1-1.7,3.2
		c-0.4,0.7-0.7,1.3-1.1,2c-0.1,0.1-0.2,0.2-0.3,0.3c-0.1-0.1-0.2-0.3-0.2-0.4c0-0.2,0-0.5-0.1-0.7c-0.2-1.4-0.2-1.4-1.3-2.2
		c-0.9-0.7-1.8-1.4-2.8-2.2c-0.3-0.2-0.4-0.2-0.4,0.1c-0.1,0.7-0.3,1.4-0.4,2c-0.1,0.3,0,0.5,0.2,0.7c0.8,0.7,1.7,1.4,2.5,2
		c0.3,0.2,0.4,0.5,0.2,0.8c-0.3,0.8-0.5,1.5-0.8,2.3c-0.1,0.2-0.2,0.5-0.3,0.7c-0.5,0.7-1.1,1.4-1.6,2.1c-0.3,0.5-0.7,0.6-1.3,0.6
		c-0.3,0-0.5-0.2-0.3-0.4c0.3-0.7,0.6-1.5,0.6-2.3c0,0,0-0.1,0-0.1c0.1-0.5,0-0.6-0.5-0.7c-0.5-0.1-1-0.2-1.6-0.3
		c-0.9-0.2-1.9-0.4-2.8-0.6c-0.4-0.1-0.5,0-0.4,0.4c0.1,0.7-0.1,1.4-0.4,2.1c0,0.1-0.1,0.2-0.1,0.2c-0.1,0.2-0.3,0.4-0.4,0.5
		c-0.4,0.2-0.8,0.3-1.1,0.5c-0.5,0.2-0.6,0.2-0.8-0.3c-0.7-1.3-1.4-2.6-2.1-3.9c-0.1-0.2-0.1-0.5-0.1-0.7c0.2-0.7,0.4-1.4,0.6-2.1
		c0.1-0.5,0.3-0.6,0.8-0.7c1-0.1,2.1-0.1,3.1-0.2c1.5-0.1,3-0.3,4.4-0.4c0.2,0,0.3-0.1,0.4-0.3c0.1-0.4,0.2-0.8,0.3-1.2
		c0.1-0.3,0.2-0.6,0.2-0.9c0.1-0.3,0-0.5-0.3-0.5c-2.6,0-5.3-0.1-7.9-0.1c-0.2,0-0.4,0-0.5,0.1c-1.1,0.7-2.1,1.4-2.6,2.6
		c-0.1,0.1-0.2,0.3-0.2,0.4c-0.3,0.7-0.8,1.2-1.4,1.5c-0.1,0.1-0.3,0.1-0.3,0.1c-0.1-0.1-0.1-0.2-0.2-0.3c-0.1-1.5-0.2-2.9-0.2-4.4
		c0-0.3-0.1-0.6-0.3-0.8c-1.7-1.8-3.3-3.7-5-5.5c-0.1-0.2-0.3-0.4-0.3-0.6c-0.2-1.4-0.4-2.7-0.6-4.1c-0.1-0.9-0.2-1.9-0.4-2.8
		c0-0.1,0-0.3,0-0.4c0.2-0.8,0.4-1.6,0.6-2.4c0.2-0.7,0.4-1.4,0.6-2.1c0.2-0.8,0.4-1.5,0.6-2.3c0.1-0.2,0.2-0.3,0.4-0.2
		c0.1,0,0.2,0.1,0.3,0.1c1.3,0.7,2.5,1.5,3.8,2.2c0.3,0.2,0.5,0.2,0.5-0.2c0.1-0.4,0.2-0.7,0.3-1.1c0.1-0.6,0.1-0.6-0.4-0.8
		c-1.2-0.6-2.5-1.2-3.7-1.8c-0.1-0.1-0.2-0.2-0.3-0.3c0.1-0.1,0.2-0.2,0.3-0.2c0.6-0.2,1.3-0.4,1.9-0.7c1-0.3,2-0.7,2.9-1
		c0.1,0,0.2-0.1,0.3-0.2c-0.1-0.1-0.1-0.2-0.2-0.3c-1.7-0.9-3.4-1.9-5.1-2.8c-1-0.5-2-1.1-3-1.6c-0.1-0.1-0.3-0.2-0.2-0.4
		c0.1-0.2,0.2-0.3,0.4-0.2c0.1,0,0.2,0.1,0.3,0.1c2.1,1.2,4.1,2.4,6.2,3.5c0.1,0.1,0.2,0.1,0.3,0.1c0-0.2-0.1-0.2-0.1-0.3
		c-0.5-0.6-1-1.2-1.5-1.8c-0.1-0.2-0.2-0.4-0.2-0.6c0-0.3-0.1-0.4-0.3-0.5c-0.8-0.4-1.5-0.8-2.3-1.3c-0.1-0.1-0.3-0.2-0.3-0.3
		c0-0.1,0.2-0.2,0.3-0.3c1-0.6,2.1-1.1,3.1-1.8c0.8-0.5,1.6-0.7,2.5-0.6c1,0.1,2.1,0,3.1,0.1c1.3,0.1,2.5,0.2,3.8,0.4
		c0.7,0.1,1.5,0.2,2.2,0.2c0,0,0.1,0,0.1,0c0.6,0.1,1.2,0.3,1.9,0.3c0.7,0.1,1.4,0.3,2,0.8c1.4,1.2,2.9,2.3,4.4,3.4
		c0.2,0.2,0.4,0.2,0.7,0.1c0.9-0.4,1.8-0.8,2.6-1.2c0.2-0.1,0.4-0.1,0.6,0c1,0.6,2.1,1.1,3.1,1.6c1.1,0.6,2.1,1.4,3,2.3
		c0.2,0.2,0.4,0.4,0.4,0.6c0.1,0.5,0.2,1.1,0.2,1.6c-0.1,0.7-0.2,1.5-0.4,2.2c-0.2,0.9-0.4,1.7-0.5,2.6c-0.1,1,0,2.1,0,3.1
		c0,0.1,0.1,0.2,0.2,0.2c0.4-0.1,0.7,0.2,0.9,0.5c0.2,0.3,0.4,0.5,0.7,0.7c0.5,0.3,1,0.5,1.5,0.7c0.2,0.1,0.4,0.1,0.6,0.2
		c0,0,0,0,0.1-0.1c-0.1-0.1-0.1-0.2-0.2-0.3c-0.4-0.5-0.8-0.9-1.2-1.3c-0.3-0.4-0.3-0.5,0.2-0.7c0.1,0,0.2-0.1,0.3-0.1
		c0.4-0.1,0.8-0.2,1.1-0.3c1.2-0.5,2.5-0.9,3.6-1.4c2.4-1.1,4.4-2.6,5.5-5.1c0.3-0.7,0.7-1.4,0.7-2.2c0-1.2-0.4-2.2-1-3.3
		c-1-1.8-2.5-3.2-4.1-4.5c-2-1.6-4.2-3-6.6-4c-2.7-1.2-5.5-2.1-8.3-3c-2.2-0.7-4.4-1.2-6.6-1.7c-1.6-0.4-3.2-0.7-4.8-1
		c-1.6-0.3-3.3-0.5-5-0.7c-2.1-0.2-4.1-0.4-6.2-0.4c-2.7,0-5.5,0.1-8.2,0.1c-2,0.1-4.1,0.3-6,0.7c-2.2,0.4-4.3,1.1-6.2,2.3
		c-1.1,0.7-2.3,1.5-3.2,2.5c-1,1.1-1.6,2.4-1.6,3.9c0,0.9,0.2,1.8,0.6,2.7c0.9,2,2.4,3.5,4.1,4.8c1.8,1.4,3.7,2.5,5.8,3.4
		c0.3,0.2,0.4,0.2,0.3,0.6c-0.1,0.2-0.1,0.4-0.2,0.7c0.2,0,0.3-0.1,0.5-0.1c-0.1,0.3-0.2,0.5-0.3,0.7c-0.2,0.4-0.4,0.7-0.3,1.2
		c0.1,0.5,0.2,1,0.3,1.5c0,0,0.1,0,0.1,0.1c0-0.4,0.1-0.8,0.1-1.2c0-0.5,0.1-0.9,0.3-1.3c0.4-0.5,0.7-1.1,1.1-1.6
		c0.3-0.4,0.4-0.4,0.8,0c0.4,0.4,0.7,0.8,1.1,1.2c0.1,0.1,0.2,0.2,0.3,0.3c0,0,0.1,0,0.1,0c-0.1-0.4,0.1-0.8-0.3-1.1
		c-0.5-0.5-1-1-1.5-1.5c-0.1-0.1-0.3-0.2-0.5-0.2c-0.3,0-0.7,0.1-1,0.2c-0.3,0.1-0.4,0-0.4-0.3c0-0.2,0-0.5,0-0.7
		c0-0.2,0.1-0.4,0.2-0.6c0.4-0.7,1-0.9,1.8-0.8c0.3,0,0.4,0.1,0.6,0.3c1,1.6,2.1,3.1,3.1,4.7c0.1,0.2,0.2,0.5,0.2,0.7
		c0,0.7-0.1,1.5-0.2,2.2c-0.2,2-0.4,4.1-0.6,6.1c-0.1,1.1-0.2,2.1-0.3,3.2c-0.1,1-0.2,2-0.2,3c0,2.2,0,4.4,0,6.6
		c0,0.3,0.1,0.5,0.2,0.8c1.1,1.8,2.2,3.7,3.3,5.5c0.1,0.2,0.3,0.3,0.4,0.5c2.6,2.6,5.2,5.1,7.8,7.7c0.2,0.2,0.5,0.4,0.7,0.5
		c2.1,1,4.2,2,6.3,3.1c0.5,0.2,0.9,0.2,1.4,0c0.8-0.3,1.6-0.5,2.4-0.7c0.6-0.2,1.2-0.3,1.5-0.9c0.2-0.3,0.4-0.5,0.6-0.7
		c1.4-1.7,2.8-3.3,4.1-5c0.2-0.3,0.5-0.6,0.6-0.9c0.4-0.9,0.7-1.8,1.1-2.7c0.8-1.9,1.5-3.9,2.3-5.8C66.2,68.6,66.3,68.3,66.4,67.9z"
		/>
	<path class="st0" d="M46.7,0c-1.4,0.1-2.8,0.2-4.3,0.3c-1.5,0.1-2.9,0.5-4.3,1.1c-0.9,0.4-1.8,0.9-2.4,1.8c-0.2,0.3-0.4,0.7-0.4,1
		c-0.1,1.2-0.2,2.4-0.2,3.6c-0.1,1.8-0.2,3.5-0.3,5.3c-0.1,2.3-0.2,4.5-0.4,6.8c-0.1,1,0.1,2.1-0.6,3c0,0,0,0,0,0.1
		c0,0.1,0,0.2,0.2,0.2c0.1,0,0.1,0,0.2,0c2.1-0.1,4.2-0.1,6.3-0.2c1.6,0,3.2,0,4.8,0c0.6,0,1.2,0.1,1.9,0.1c1,0.1,2.1,0.1,3.1,0.3
		c1.3,0.2,2.7,0.4,4,0.6c0.7,0.1,1.3,0.3,1.9,0.4c0.5,0.1,1.1,0.2,1.6,0.3c0.7,0.2,1.5,0.4,2.2,0.5c1,0.2,1.9,0.5,2.9,0.7
		c0.9,0.2,1.7,0.5,2.5,0.8c1,0.3,2,0.6,2.9,0.9c1.2,0.4,2.5,0.9,3.7,1.4c0.3,0.1,0.4,0,0.5-0.3c0.1-0.3,0.1-0.7,0.2-1
		c0.2-1.1,0.5-2.3,0.7-3.4c0.2-0.8,0.4-1.6,0.6-2.5c0.2-1.2,0.5-2.3,0.7-3.5c0.3-1.3,0.6-2.5,0.8-3.8c0.1-0.6,0.3-1.1,0.4-1.7
		c0.1-0.5,0.3-1.1,0.3-1.6c0.1-0.5,0.2-0.9,0.2-1.4c-0.1-1-0.7-1.7-1.4-2.4c-1-1-2.2-1.7-3.4-2.4c-2-1.1-4.1-1.9-6.3-2.5
		C64,2.3,62.7,2,61.3,1.7c-1.3-0.3-2.7-0.5-4-0.7c-1.7-0.2-3.4-0.5-5.1-0.6C50.4,0.2,48.6,0.1,46.7,0z"/>
	<path class="st0" d="M33.1,82.9c0,0-0.1,0.1-0.1,0.1c-0.2-0.1-0.3-0.3-0.5-0.4c-1.1-1.2-2.3-2.4-3.4-3.6c-2.4-2.5-4.8-5-7.1-7.6
		c-0.2-0.2-0.4-0.2-0.6,0c-0.5,0.4-1,0.9-1.6,1.3c-0.4,0.4-0.4,0.4-0.2,0.9c0.1,0.1,0.1,0.3,0.2,0.4c2.6,5.9,5.1,11.8,7.7,17.7
		c0.1,0.2,0.2,0.3,0.3,0.5c0.1-0.1,0.3-0.2,0.4-0.4c1.2-1.6,2.4-3.2,3.7-4.9c0.3-0.3,0.4-0.3,0.7-0.1c2.1,2,4.2,4,6.3,6
		c0.4,0.4,0.9,0.8,1.5,1.1c1.7,1,3.4,1.9,5.1,2.9c0.1,0.1,0.2,0.2,0.3,0.3c-0.1,0-0.3,0.1-0.4,0.1c-0.2,0-0.4,0-0.7,0
		c0.1,0.2,0.2,0.3,0.2,0.4c1.2,1.8,2.5,3.6,3.7,5.4c1.6,2.3,3.1,4.6,4.7,6.9c0.2,0.3,0.3,0.3,0.5,0c0.6-0.6,1.1-1.3,1.6-2
		c1.4-2.3,2.9-4.5,4.3-6.8c0.1-0.2,0.2-0.5,0.2-0.7c0.1-0.9,0.1-1.8,0.4-2.6c0.4-1.1,0.6-2.2,0.9-3.2c0.3-1,0.2-0.8-0.5-1.2
		c-0.4-0.3-0.9-0.5-1.3-0.9c0.2,0,0.4,0.1,0.6,0.1c0.4,0.2,0.9,0.3,1.3,0.5c0.4,0.1,0.5,0.1,0.6-0.2c0.4-0.8,0.7-1.6,1.1-2.4
		c0.2-0.5,0.2-0.6-0.2-0.9c-0.3-0.3-0.3-0.5,0-0.7c0.4-0.3,0.4-0.3,0-0.6c-1.5-1-3.1-1.9-4.6-2.9c-0.3-0.2-0.5-0.2-0.8-0.1
		c-1.5,0.5-3,0.9-4.5,1.4c-0.2,0.1-0.5,0.1-0.7,0c-0.2,0-0.4-0.1-0.7-0.2c-0.4-0.1-0.4-0.1-0.6,0.3c-0.6,1.5-1.1,3.1-1.7,4.6
		c-0.1,0.3-0.1,0.5,0.1,0.7c1,1.2,2.1,2.4,3.1,3.6c0.2,0.3,0.5,0.5,0.5,0.9c0.1,1,0.2,2,0.4,2.9c0.1,1,0.3,2,0.2,3
		c-0.1,1.5-0.2,3-0.3,4.5c0,0.1-0.1,0.2-0.1,0.3c-0.4-0.1-0.4-0.5-0.5-0.7c-0.4-1.2-0.8-2.5-1.2-3.7c-0.3-0.9-0.6-1.8-1-2.7
		c-0.8-1.6-1.6-3.3-2.4-4.9c-0.5-1.1-1.1-2.3-1.7-3.4c-0.4-0.7-0.8-1.4-1.3-2c-1.3-2-2.5-4-3.8-6.1c-0.1-0.1-0.2-0.2-0.3-0.4
		C41,83.6,41,83.8,41,84.1c0,0.2-0.1,0.3-0.4,0.2c-0.1,0-0.1-0.1-0.2-0.2c-0.7-0.6-1.3-1.2-2-1.8c-0.2-0.2-0.4-0.2-0.6-0.1
		c-0.9,0.6-1.8,1.2-2.7,1.8c-0.5,0.3-0.9,0.6-1.4,0.9C33.7,85,33.6,85,33.5,85c0-0.1,0-0.3,0-0.3c0.2-0.3,0.4-0.5,0.6-0.7
		c1.2-0.9,2.5-1.7,3.7-2.6c0.3-0.2,0.5-0.2,0.7,0.1c0.5,0.5,1,0.9,1.5,1.4c0.1,0.1,0.2,0.1,0.3,0.2c0,0,0,0,0.1-0.1
		c0-0.1-0.1-0.3-0.1-0.4c-0.2-0.4-0.4-0.9-0.5-1.3c-0.2-0.5-0.4-0.9-0.8-1.3c-0.9-0.8-1.7-1.7-2.5-2.6c-3.1-3.2-6.2-6.4-9.2-9.5
		c-0.2-0.2-0.4-0.3-0.6-0.3c-0.7-0.2-1.5-0.4-2.2-0.6c-0.2-0.1-0.3,0-0.4,0.2c-0.1,0.3-0.2,0.6-0.4,0.9c-0.2,0.3-0.1,0.6,0.1,0.9
		c1.2,1.7,2.4,3.4,3.5,5.1c1.9,2.8,3.8,5.5,5.7,8.3C32.9,82.5,33,82.7,33.1,82.9z"/>
	<path class="st0" d="M43.8,53.4C43.9,53.4,43.9,53.4,43.8,53.4c0.1,0.5,0,1.1,0.1,1.6c0,0.5,0.1,1,0.3,1.5c0.6,1.6,1.8,2.5,3.3,3.1
		c0.7,0.3,1.4,0.4,2.1,0.5c1.2,0.2,2.4,0,3.6-0.4c1.2-0.4,2.2-1.2,2.9-2.2c0.8-1,1.5-2,2.2-3c0.4-0.5,0.7-1,1.2-1.3
		c0.6-0.5,1.5-0.3,1.7,0.4c0.1,0.3,0.2,0.7,0.2,1.1c0,1.7,0.1,3.4,0.6,5.1c0.4,1.3,1.2,2.4,2.4,3c1.2,0.6,2.6,0.8,3.9,0.8
		c0.9,0,1.7-0.3,2.4-0.8c0.9-0.7,1.5-1.5,2-2.5c0.5-1.1,1-2.1,1.6-3.2c0.2-0.3,0.3-0.6,0.7-0.7c0.1,0,0.2-0.2,0.2-0.3
		c0.1-0.4,0.2-0.8,0.3-1.2c0.1-0.3,0-0.5-0.3-0.6c-0.2-0.1-0.3-0.2-0.5-0.2c-0.8-0.3-1.7-0.7-2.6-1c-1-0.3-2-0.7-3.1-1
		c-1.3-0.3-2.6-0.4-3.9-0.3c-1.1,0.1-2.3,0.1-3.4,0.2c-1,0-1.9-0.2-2.7-0.7c-0.9-0.5-1.8-1-2.7-1.5c-2.2-1.2-4.5-1.9-6.9-2.2
		c-0.8-0.1-1.7-0.2-2.5-0.3c-0.8-0.1-1.7-0.2-2.5-0.3c-0.5-0.1-0.6,0-0.8,0.5c-0.1,0.4-0.2,0.8-0.3,1.1c-0.1,0.3,0,0.5,0.2,0.7
		c0.2,0.2,0.3,0.5,0.3,0.7C44,51.2,43.9,52.3,43.8,53.4z"/>
	<path class="st0" d="M53.6,123.6c0-2.4,0-4.9,0-7.3c0-0.2,0-0.3,0-0.5c0-0.4,0.2-0.7,0.6-0.9c0.4-0.2,0.6-0.4,0.5-0.9
		c0-0.1,0-0.2,0-0.4c0-0.3-0.2-0.5-0.5-0.5c-2,0-4,0-6,0c-0.1,0-0.3,0.1-0.4,0.2c-0.3,0.3-0.2,1.2,0.1,1.5c0.4,0.3,0.5,0.6,0.4,1.1
		c0,0.3,0,0.6,0,0.9c0,1.6,0,3.2,0,4.8c0,0.4-0.1,0.6-0.5,0.6c-0.5,0-0.9,0-1.4,0c-0.3,0-0.5-0.2-0.5-0.5c0-2,0-4,0-6
		c0-0.3,0.1-0.6,0.3-0.7c0.4-0.3,0.5-0.7,0.5-1.1c0-0.5-0.2-0.6-0.7-0.7c-0.5,0-1,0-1.5,0c-1.4,0-2.7,0-4.1,0
		c-0.4,0-0.6,0.1-0.7,0.4c-0.1,0.6,0,1.1,0.5,1.5c0.4,0.3,0.5,0.6,0.5,1.1c0,5,0,10,0,15.1c0,0.5-0.2,0.9-0.6,1.1
		c-0.2,0.1-0.4,0.3-0.4,0.5c-0.1,0.3,0,0.6,0,0.8c0,0.2,0.2,0.3,0.4,0.3c2,0,4,0,6,0c0.3,0,0.4-0.1,0.5-0.4c0.1-0.5,0-0.9-0.4-1.2
		c-0.2-0.2-0.4-0.5-0.4-0.8c0-2.5,0-5,0-7.5c0-0.3,0.1-0.4,0.4-0.5c0.3,0,0.7,0,1,0c0.9,0,0.9,0,0.9,0.9c0,2.3,0,4.5,0,6.8
		c0,0.4,0,0.7-0.3,1c-0.5,0.4-0.5,0.8-0.4,1.4c0,0.2,0.1,0.4,0.4,0.4c2.1,0,4.1,0,6.2,0c0.1,0,0.3-0.1,0.4-0.2
		c0.2-0.3,0.1-1.1-0.3-1.3c-0.6-0.3-0.8-0.9-0.8-1.5C53.6,128.5,53.6,126,53.6,123.6z"/>
	<path class="st0" d="M66.9,121.3c0,0,0.1,0,0.1,0c0,0.3,0.1,0.6,0.1,0.9c0,2,0,4,0,6c0,1,0,2,0,3.1c0,0.4-0.1,0.7-0.5,0.9
		c-0.6,0.2-0.7,0.7-0.6,1.3c0,0.4,0.2,0.5,0.6,0.5c1.6,0,3.1,0,4.7,0c0.5,0,1,0,1.5,0c0.1,0,0.4-0.1,0.4-0.2c0.2-0.6,0-1.3-0.6-1.6
		c-0.3-0.2-0.5-0.4-0.5-0.8c0-5.2,0-10.3,0-15.5c0-0.4,0.1-0.7,0.5-0.8c0.6-0.2,0.7-0.7,0.7-1.2c0-0.4-0.2-0.6-0.6-0.6
		c-0.1,0-0.2,0-0.3,0c-1.5,0-2.9,0-4.4,0c-0.4,0-0.5,0.1-0.6,0.4c-0.2,0.6-0.3,1.2-0.5,1.8c-0.5,1.6-0.9,3.3-1.4,4.9
		c0,0.1-0.2,0.2-0.3,0.3c-0.1-0.1-0.3-0.2-0.3-0.4c-0.2-0.6-0.3-1.2-0.5-1.9c-0.5-1.6-0.9-3.2-1.4-4.9c-0.1-0.4-0.2-0.4-0.6-0.4
		c-1.4,0-2.8,0-4.2,0c-0.8,0-0.9,0.1-0.9,0.9c0,0.4,0.1,0.7,0.5,1c0.3,0.2,0.5,0.5,0.5,0.8c0,0.3,0,0.7,0,1c0,4.7,0,9.4,0,14.1
		c0,0.2,0,0.3,0,0.5c0,0.4-0.1,0.6-0.4,0.9c-0.2,0.1-0.3,0.4-0.4,0.6c-0.2,0.5,0,1,0.5,1c1,0,2,0,3,0c0.3,0,0.5-0.2,0.5-0.5
		c0.1-0.5,0-0.9-0.5-1.2c-0.4-0.3-0.6-0.6-0.6-1.1c0-3,0-6,0-9c0-0.1,0-0.2,0-0.3c0-0.1,0.1-0.2,0.2-0.3c0.1,0.1,0.2,0.2,0.2,0.2
		c0.7,2.3,1.3,4.5,2,6.8c0.2,0.7,0.2,0.7,0.9,0.7c0.1,0,0.2,0,0.3,0c0.5,0,0.6-0.1,0.7-0.6c0.3-1.1,0.6-2.2,0.9-3.4
		c0.3-1.2,0.7-2.3,1-3.5C66.6,121.7,66.8,121.5,66.9,121.3z"/>
	<path class="st0" d="M93.9,127.2c0-1.2,0-2.5,0-3.7c0-0.2,0-0.4,0-0.5c0-0.1,0.1-0.2,0.2-0.2c0,0,0.2,0.1,0.2,0.2
		c0,0,0.1,0.1,0.1,0.2c1.1,2.4,2.2,4.8,3.3,7.2c0.5,1.1,1,2.2,1.5,3.3c0.1,0.3,0.3,0.4,0.6,0.4c0.5,0,0.9,0,1.4,0
		c0.5,0,0.5-0.1,0.5-0.5c0-5.9,0-11.8,0-17.6c0-0.5,0.2-0.8,0.6-1c0.3-0.1,0.5-0.3,0.4-0.6c0-0.2,0-0.4,0-0.7c0-0.2-0.2-0.4-0.4-0.4
		c-1.2,0-2.4,0-3.6,0c-0.1,0-0.4,0.2-0.4,0.3c-0.1,0.7-0.1,1.1,0.6,1.4c0.4,0.2,0.7,0.5,0.6,1c0,0.2,0,0.4,0,0.5c0,2,0,4,0,6
		c0,0.1-0.1,0.3-0.2,0.4c-0.1-0.1-0.2-0.2-0.3-0.3c-0.5-1-0.9-2-1.4-3c-0.9-2-1.9-4-2.8-6c-0.1-0.2-0.2-0.3-0.5-0.3
		c-1.1,0-2.2,0-3.3,0c-0.3,0-0.5,0.1-0.6,0.4c-0.2,0.6-0.1,1.1,0.5,1.4c0.4,0.2,0.6,0.6,0.6,1c0,5.1,0,10.3,0,15.4
		c0,0.3-0.1,0.5-0.4,0.7c-0.1,0.1-0.3,0.1-0.4,0.2c-0.1,0.1-0.2,0.2-0.3,0.4c0,0.3,0,0.6,0,0.8c0,0.2,0.2,0.3,0.4,0.3
		c1.2,0,2.4,0,3.7,0c0.1,0,0.3-0.1,0.3-0.2c0.3-0.5,0-1.3-0.5-1.5c-0.6-0.2-0.8-0.6-0.8-1.2C93.9,129.8,93.9,128.5,93.9,127.2z"/>
	<path class="st0" d="M20.7,134c1.1,0,2.2,0,3.4,0c0.2,0,0.4-0.1,0.4-0.3c0.1-0.7,0-1.2-0.6-1.4c-0.4-0.2-0.6-0.5-0.6-1
		c0-5.1,0-10.2,0-15.4c0-0.7,0.2-0.9,0.8-1.1c0.4-0.1,0.7-1.2,0.4-1.5c-0.1-0.1-0.2-0.1-0.2-0.1c-0.1,0-0.3,0-0.4,0c-2,0-4,0-6,0
		c-0.9,0-0.9,0.1-0.9,0.9c0,0.4,0.1,0.6,0.5,0.7c0.6,0.2,0.8,0.7,0.8,1.3c0,5,0,10.1,0,15.1c0,0.6-0.2,0.9-0.7,1.1
		c-0.5,0.1-0.6,0.4-0.6,0.9c0,0.1,0,0.2,0,0.3c0,0.4,0.1,0.5,0.5,0.5C18.5,134,19.6,134,20.7,134z"/>
	<path class="st0" d="M28.6,63.7C28.6,63.7,28.7,63.7,28.6,63.7c0.1-0.1,0.2-0.1,0.2-0.2c0.4-1,0.9-2.1,1.3-3.1
		c0.3-0.6,0.4-1.1,0.1-1.7c-0.2-0.5-0.4-1.1-0.6-1.7c-0.4-0.8-0.8-1.5-1.2-2.2c0-0.1-0.1-0.2-0.2-0.2c0,0,0,0-0.1,0
		c0,0.1,0,0.2,0,0.3c0.2,1.4,0.4,2.8,0.6,4.3c0,0.3,0.1,0.5,0,0.8c-0.1,1-0.1,2.1-0.2,3.1C28.6,63.2,28.6,63.4,28.6,63.7z"/>
	<path class="st0" d="M30.4,51.8c0,0,0.1,0,0.1,0c0.1-0.4,0.2-0.7,0.2-1.1c0-0.5,0.1-1,0.4-1.4c0.3-0.3,0.5-0.7,0.7-1.1
		c0.1-0.1,0.1-0.2,0.2-0.4c-0.2,0-0.3,0-0.5,0.1c-0.3,0.1-0.5,0.1-0.8,0.2c-0.2,0.1-0.4,0.2-0.5,0.3c-0.4,0.5-0.7,1.1-1,1.7
		c-0.1,0.1,0,0.3,0,0.5c0.2,0.4,0.5,0.7,0.8,1C30.3,51.6,30.3,51.7,30.4,51.8z"/>
	<path class="st0" d="M32.8,54c0,0,0.1-0.1,0.1-0.1c-0.2-0.3-0.4-0.6-0.5-0.9c-0.1-0.2-0.2-0.5-0.2-0.7c0.1-0.7,0.2-1.3,0.3-2
		c0-0.1,0-0.2,0-0.3c-0.1,0-0.2,0.1-0.2,0.1c-0.3,0.4-0.6,0.9-0.8,1.3c-0.1,0.1-0.1,0.3,0,0.5c0.1,0.5,0.2,0.9,0.3,1.4
		c0,0.1,0.1,0.2,0.2,0.3C32.3,53.7,32.6,53.8,32.8,54z"/>
	<path class="st0" d="M30,53.6c0-0.3-0.7-1.4-0.9-1.4C29,52.6,29.4,53.3,30,53.6z"/>
	<path class="st0" d="M32.7,134.2c-0.4-0.1-0.9-0.2-1.3-0.4c-1-0.4-1.8-1.1-2.4-2.1c-0.7-1.2-1.2-2.5-1.5-3.8
		c-0.5-2.1-0.5-4.3-0.4-6.5c0.1-1.8,0.4-3.5,1.2-5.1c0.6-1.1,1.2-2.2,2.3-2.8c1.2-0.7,2.5-0.8,3.8-0.1c0.4,0.3,0.5,0.3,0.9-0.1
		c0.4-0.4,0.8-0.4,1.3-0.3c0.3,0,0.4,0.3,0.4,0.5c0.1,1,0.2,2.1,0.2,3.1c0,0.5,0.1,1.1,0.2,1.6c0,0.5-0.1,0.8-0.5,0.9
		c-0.5,0.1-1.1-0.1-1.2-0.5c-0.2-0.5-0.3-0.9-0.4-1.4c-0.2-0.6-0.4-1.3-0.7-1.9c-0.1-0.2-0.2-0.4-0.4-0.5c-0.4-0.4-1.1-0.2-1.2,0.3
		c-0.1,0.4-0.2,0.9-0.2,1.3c0,4.9,0,9.9,0,14.8c0,0.3,0,0.7,0.2,1c0.3,0.7,1.2,0.7,1.6,0.1c0.3-0.4,0.4-0.9,0.5-1.4
		c0.1-0.4,0.1-0.8,0.2-1.2c0-0.3,0.2-0.5,0.5-0.5c0.4-0.1,0.8-0.1,1.2,0c0.2,0,0.3,0.2,0.4,0.4c0.2,0.5,0.1,1,0,1.4
		c-0.4,1.6-1.4,2.7-3,3.2c-0.2,0-0.3,0.1-0.5,0.1C33.5,134.2,33.1,134.2,32.7,134.2z"/>
	<path class="st0" d="M66.4,67.9c-0.1,0.4-0.2,0.7-0.4,1.1c-0.7,1.9-1.5,3.9-2.3,5.8c-0.4,0.9-0.7,1.8-1.1,2.7
		c-0.1,0.3-0.4,0.6-0.6,0.9c-1.4,1.7-2.8,3.3-4.1,5c-0.2,0.2-0.4,0.5-0.6,0.7c-0.3,0.6-0.9,0.8-1.5,0.9c-0.8,0.2-1.6,0.5-2.4,0.7
		c-0.5,0.2-0.9,0.2-1.4,0c-2.1-1.1-4.2-2-6.3-3.1c-0.3-0.1-0.5-0.3-0.7-0.5c-2.6-2.6-5.2-5.1-7.8-7.7c-0.1-0.1-0.3-0.3-0.4-0.5
		c-1.1-1.8-2.2-3.7-3.3-5.5c-0.1-0.2-0.2-0.5-0.2-0.8c0-2.2,0-4.4,0-6.6c0-1,0.1-2,0.2-3c0.1-1.1,0.2-2.1,0.3-3.2
		c0.2-2,0.4-4.1,0.6-6.1c0.1-0.7,0.1-1.5,0.2-2.2c0-0.2-0.1-0.5-0.2-0.7c-1-1.6-2.1-3.1-3.1-4.7c-0.1-0.2-0.3-0.3-0.6-0.3
		c-0.8-0.1-1.4,0.2-1.8,0.8c-0.1,0.2-0.2,0.4-0.2,0.6c0,0.2,0,0.5,0,0.7c0,0.3,0.2,0.4,0.4,0.3c0.3-0.1,0.7-0.1,1-0.2
		c0.1,0,0.3,0.1,0.5,0.2c0.5,0.5,1,1,1.5,1.5c0.3,0.3,0.2,0.8,0.3,1.1c0,0-0.1,0-0.1,0c-0.1-0.1-0.2-0.2-0.3-0.3
		c-0.4-0.4-0.7-0.8-1.1-1.2c-0.3-0.3-0.5-0.3-0.8,0c-0.4,0.5-0.7,1.1-1.1,1.6c-0.3,0.4-0.3,0.8-0.3,1.3c0,0.4,0,0.7-0.1,1.2
		c-0.1-0.1-0.1-0.1-0.1-0.1c-0.1-0.5-0.2-1-0.3-1.5c-0.1-0.4,0.1-0.8,0.3-1.2c0.1-0.2,0.2-0.4,0.3-0.7c-0.2,0-0.3,0.1-0.5,0.1
		c0.1-0.3,0.1-0.5,0.2-0.7c0.1-0.3,0.1-0.4-0.3-0.6c-2.1-0.9-4-2-5.8-3.4c-1.7-1.3-3.2-2.8-4.1-4.8c-0.4-0.9-0.6-1.8-0.6-2.7
		c0-1.5,0.5-2.8,1.6-3.9c0.9-1,2.1-1.7,3.2-2.5c1.9-1.2,4-1.9,6.2-2.3c2-0.4,4-0.6,6-0.7c2.7-0.1,5.5-0.2,8.2-0.1
		c2.1,0,4.1,0.2,6.2,0.4c1.7,0.2,3.3,0.4,5,0.7c1.6,0.3,3.2,0.6,4.8,1c2.2,0.5,4.4,1.1,6.6,1.7c2.8,0.8,5.6,1.8,8.3,3
		c2.4,1,4.6,2.4,6.6,4c1.6,1.3,3.1,2.7,4.1,4.5c0.6,1,1,2.1,1,3.3c0,0.8-0.4,1.5-0.7,2.2c-1.1,2.5-3.2,4-5.5,5.1
		c-1.2,0.5-2.4,1-3.6,1.4c-0.4,0.1-0.8,0.2-1.1,0.3c-0.1,0-0.2,0-0.3,0.1c-0.5,0.2-0.5,0.3-0.2,0.7c0.4,0.4,0.8,0.9,1.2,1.3
		c0.1,0.1,0.1,0.2,0.2,0.3c0,0,0,0-0.1,0.1c-0.2-0.1-0.4-0.1-0.6-0.2c-0.5-0.2-1-0.4-1.5-0.7c-0.3-0.2-0.5-0.5-0.7-0.7
		c-0.2-0.3-0.4-0.6-0.9-0.5c0,0-0.2-0.1-0.2-0.2c0-1,0-2.1,0-3.1c0.1-0.9,0.3-1.7,0.5-2.6c0.1-0.7,0.3-1.5,0.4-2.2
		c0-0.5-0.1-1.1-0.2-1.6c0-0.2-0.3-0.4-0.4-0.6c-0.9-0.9-1.9-1.6-3-2.3c-1-0.6-2.1-1.1-3.1-1.6c-0.2-0.1-0.4-0.1-0.6,0
		c-0.9,0.4-1.8,0.8-2.6,1.2c-0.3,0.1-0.4,0.1-0.7-0.1c-1.5-1.2-2.9-2.3-4.4-3.4c-0.6-0.5-1.2-0.7-2-0.8c-0.6-0.1-1.2-0.2-1.9-0.3
		c0,0-0.1,0-0.1,0c-0.7-0.1-1.5-0.2-2.2-0.2c-1.3-0.1-2.5-0.3-3.8-0.4c-1-0.1-2.1,0-3.1-0.1c-0.9,0-1.7,0.1-2.5,0.6
		c-1,0.7-2.1,1.2-3.1,1.8c-0.1,0.1-0.3,0.2-0.3,0.3c0,0.1,0.2,0.3,0.3,0.3c0.8,0.4,1.5,0.8,2.3,1.3c0.2,0.1,0.3,0.3,0.3,0.5
		c0,0.2,0.1,0.4,0.2,0.6c0.5,0.6,1,1.2,1.5,1.8c0.1,0.1,0.1,0.2,0.1,0.3c-0.1,0-0.2-0.1-0.3-0.1c-2.1-1.2-4.1-2.4-6.2-3.5
		c-0.1,0-0.2-0.1-0.3-0.1c-0.2,0-0.4,0-0.4,0.2c-0.1,0.2,0.1,0.3,0.2,0.4c1,0.5,2,1.1,3,1.6c1.7,0.9,3.4,1.9,5.1,2.8
		c0.1,0.1,0.2,0.2,0.2,0.3c-0.1,0.1-0.2,0.1-0.3,0.2c-1,0.3-1.9,0.7-2.9,1c-0.6,0.2-1.3,0.4-1.9,0.7c-0.1,0-0.2,0.1-0.3,0.2
		c0.1,0.1,0.2,0.2,0.3,0.3c1.2,0.6,2.4,1.2,3.7,1.8c0.5,0.2,0.5,0.2,0.4,0.8c-0.1,0.4-0.2,0.7-0.3,1.1c-0.1,0.4-0.2,0.4-0.5,0.2
		c-1.3-0.7-2.5-1.5-3.8-2.2c-0.1-0.1-0.2-0.1-0.3-0.1c-0.2-0.1-0.4,0-0.4,0.2c-0.2,0.8-0.4,1.5-0.6,2.3c-0.2,0.7-0.4,1.4-0.6,2.1
		c-0.2,0.8-0.4,1.6-0.6,2.4c0,0.1,0,0.3,0,0.4c0.1,0.9,0.2,1.9,0.4,2.8c0.2,1.4,0.4,2.7,0.6,4.1c0,0.2,0.2,0.4,0.3,0.6
		c1.6,1.8,3.3,3.7,5,5.5c0.2,0.2,0.3,0.5,0.3,0.8c0.1,1.5,0.1,2.9,0.2,4.4c0,0.1,0.1,0.3,0.2,0.3c0.1,0,0.2,0,0.3-0.1
		c0.6-0.4,1.1-0.9,1.4-1.5c0.1-0.1,0.2-0.3,0.2-0.4c0.5-1.2,1.5-2,2.6-2.6c0.1-0.1,0.3-0.1,0.5-0.1c2.6,0,5.3,0.1,7.9,0.1
		c0.3,0,0.4,0.1,0.3,0.5c-0.1,0.3-0.1,0.6-0.2,0.9c-0.1,0.4-0.2,0.8-0.3,1.2c-0.1,0.2-0.2,0.3-0.4,0.3c-1.5,0.1-3,0.3-4.4,0.4
		c-1,0.1-2.1,0.2-3.1,0.2c-0.5,0-0.7,0.2-0.8,0.7c-0.2,0.7-0.4,1.4-0.6,2.1c-0.1,0.2,0,0.5,0.1,0.7c0.7,1.3,1.4,2.6,2.1,3.9
		c0.3,0.5,0.3,0.5,0.8,0.3c0.4-0.2,0.8-0.3,1.1-0.5c0.2-0.1,0.3-0.3,0.4-0.5c0.1-0.1,0.1-0.1,0.1-0.2c0.4-0.6,0.5-1.3,0.4-2.1
		c0-0.4,0-0.5,0.4-0.4c0.9,0.2,1.9,0.4,2.8,0.6c0.5,0.1,1,0.2,1.6,0.3c0.5,0.1,0.6,0.2,0.5,0.7c0,0,0,0.1,0,0.1
		c0.1,0.8-0.2,1.6-0.6,2.3c-0.1,0.3,0,0.5,0.3,0.4c0.5,0,0.9-0.2,1.3-0.6c0.5-0.7,1.1-1.4,1.6-2.1c0.2-0.2,0.2-0.5,0.3-0.7
		c0.3-0.7,0.5-1.5,0.8-2.3c0.1-0.3,0-0.6-0.2-0.8c-0.8-0.7-1.7-1.4-2.5-2c-0.2-0.2-0.3-0.4-0.2-0.7c0.1-0.7,0.3-1.4,0.4-2
		c0.1-0.3,0.2-0.3,0.4-0.1c0.9,0.7,1.8,1.4,2.8,2.2c1.1,0.9,1.1,0.9,1.3,2.2c0,0.2,0,0.5,0.1,0.7c0,0.1,0.1,0.3,0.2,0.4
		c0.1-0.1,0.3-0.2,0.3-0.3c0.4-0.7,0.7-1.3,1.1-2c0.6-1.1,1.2-2.1,1.7-3.2C66.2,68,66.3,68,66.4,67.9C66.4,67.9,66.4,67.9,66.4,67.9
		z"/>
	<path class="st0" d="M46.7,0c1.8,0.1,3.6,0.2,5.4,0.4c1.7,0.2,3.4,0.4,5.1,0.6c1.4,0.2,2.7,0.4,4,0.7C62.7,2,64,2.3,65.3,2.7
		c2.2,0.7,4.3,1.5,6.3,2.5C72.8,5.9,74,6.7,75,7.7c0.7,0.7,1.2,1.4,1.4,2.4c0.1,0.4-0.1,0.9-0.2,1.4c-0.1,0.6-0.2,1.1-0.3,1.6
		c-0.1,0.6-0.3,1.1-0.4,1.7c-0.3,1.3-0.6,2.5-0.8,3.8c-0.2,1.2-0.5,2.3-0.7,3.5c-0.2,0.8-0.4,1.6-0.6,2.5c-0.2,1.1-0.5,2.3-0.7,3.4
		c-0.1,0.3-0.1,0.7-0.2,1c-0.1,0.3-0.2,0.4-0.5,0.3c-1.2-0.5-2.5-0.9-3.7-1.4c-1-0.3-1.9-0.6-2.9-0.9c-0.8-0.3-1.7-0.5-2.5-0.8
		c-1-0.3-1.9-0.5-2.9-0.7c-0.7-0.2-1.5-0.4-2.2-0.5c-0.5-0.1-1.1-0.2-1.6-0.3c-0.6-0.1-1.3-0.3-1.9-0.4c-1.3-0.2-2.7-0.4-4-0.6
		c-1-0.1-2.1-0.2-3.1-0.3c-0.6-0.1-1.2-0.1-1.9-0.1c-1.6,0-3.2-0.1-4.8,0c-2.1,0-4.2,0.1-6.3,0.2c-0.1,0-0.1,0-0.2,0
		c-0.2,0-0.2-0.1-0.2-0.2c0,0,0,0,0-0.1c0.7-0.9,0.5-2,0.6-3c0.2-2.3,0.3-4.5,0.4-6.8c0.1-1.8,0.2-3.5,0.3-5.3
		c0.1-1.2,0.1-2.4,0.2-3.6c0-0.3,0.2-0.7,0.4-1c0.6-0.9,1.4-1.4,2.4-1.8c1.4-0.6,2.8-0.9,4.3-1.1C43.9,0.2,45.3,0.1,46.7,0z"/>
	<path class="st0" d="M33.1,82.9c-0.1-0.2-0.2-0.4-0.3-0.5c-1.9-2.8-3.8-5.5-5.7-8.3c-1.2-1.7-2.3-3.4-3.5-5.1
		c-0.2-0.3-0.3-0.5-0.1-0.9c0.2-0.3,0.3-0.6,0.4-0.9c0.1-0.2,0.2-0.3,0.4-0.2c0.7,0.2,1.5,0.4,2.2,0.6c0.2,0.1,0.4,0.2,0.6,0.3
		c3.1,3.2,6.2,6.3,9.2,9.5c0.8,0.9,1.7,1.7,2.5,2.6c0.4,0.4,0.7,0.8,0.8,1.3c0.1,0.4,0.3,0.9,0.5,1.3c0,0.1,0.1,0.3,0.1,0.4
		c0,0,0,0-0.1,0.1c-0.1-0.1-0.2-0.1-0.3-0.2c-0.5-0.5-1-0.9-1.5-1.4c-0.2-0.2-0.4-0.2-0.7-0.1c-1.2,0.9-2.5,1.7-3.7,2.6
		c-0.2,0.2-0.4,0.5-0.6,0.7c-0.1,0.1,0,0.2,0,0.3c0.1,0,0.2,0,0.3-0.1c0.5-0.3,0.9-0.6,1.4-0.9c0.9-0.6,1.8-1.2,2.7-1.8
		c0.2-0.2,0.4-0.2,0.6,0.1c0.7,0.6,1.3,1.2,2,1.8c0.1,0.1,0.1,0.1,0.2,0.2c0.2,0.1,0.3,0,0.4-0.2c0-0.2,0-0.4,0.1-0.7
		c0.1,0.1,0.2,0.2,0.3,0.4c1.3,2,2.5,4,3.8,6.1c0.4,0.7,0.9,1.3,1.3,2c0.6,1.1,1.2,2.2,1.7,3.4c0.8,1.6,1.5,3.3,2.4,4.9
		c0.5,0.9,0.7,1.8,1,2.7c0.4,1.2,0.8,2.5,1.2,3.7c0.1,0.3,0.1,0.6,0.5,0.7c0-0.1,0.1-0.2,0.1-0.3c0.1-1.5,0.2-3,0.3-4.5
		c0.1-1-0.1-2-0.2-3c-0.1-1-0.3-1.9-0.4-2.9c0-0.4-0.3-0.7-0.5-0.9c-1-1.2-2.1-2.4-3.1-3.6c-0.2-0.2-0.2-0.4-0.1-0.7
		c0.6-1.5,1.1-3.1,1.7-4.6c0.1-0.4,0.2-0.4,0.6-0.3c0.2,0.1,0.4,0.2,0.7,0.2c0.2,0,0.5,0,0.7,0c1.5-0.5,3-0.9,4.5-1.4
		c0.3-0.1,0.6-0.1,0.8,0.1c1.5,1,3.1,2,4.6,2.9c0.4,0.2,0.4,0.3,0,0.6c-0.3,0.2-0.3,0.4,0,0.7c0.5,0.4,0.5,0.4,0.2,0.9
		c-0.4,0.8-0.7,1.6-1.1,2.4c-0.2,0.4-0.3,0.4-0.6,0.2c-0.4-0.2-0.9-0.4-1.3-0.5c-0.2-0.1-0.4-0.1-0.6-0.1c0.3,0.5,0.8,0.7,1.3,0.9
		c0.6,0.4,0.8,0.2,0.5,1.2c-0.3,1.1-0.6,2.2-0.9,3.2c-0.3,0.9-0.3,1.8-0.4,2.6c0,0.3-0.1,0.5-0.2,0.7c-1.4,2.3-2.9,4.5-4.3,6.8
		c-0.5,0.7-1,1.4-1.6,2c-0.2,0.2-0.3,0.2-0.5,0c-1.6-2.3-3.1-4.6-4.7-6.9c-1.2-1.8-2.5-3.6-3.7-5.4c-0.1-0.1-0.1-0.2-0.2-0.4
		c0.3,0,0.5,0,0.7,0c0.1,0,0.3-0.1,0.4-0.1c-0.1-0.1-0.1-0.3-0.3-0.3c-1.7-1-3.4-1.9-5.1-2.9c-0.5-0.3-1-0.7-1.5-1.1
		c-2.1-2-4.2-4-6.3-6c-0.3-0.3-0.4-0.3-0.7,0.1c-1.2,1.6-2.4,3.3-3.7,4.9c-0.1,0.2-0.3,0.3-0.4,0.4c-0.1-0.2-0.2-0.3-0.3-0.5
		c-2.6-5.9-5.2-11.8-7.7-17.7c-0.1-0.1-0.1-0.3-0.2-0.4c-0.2-0.5-0.2-0.5,0.2-0.9c0.5-0.4,1.1-0.8,1.6-1.3c0.2-0.2,0.4-0.2,0.6,0
		c2.4,2.5,4.8,5,7.1,7.6c1.1,1.2,2.3,2.4,3.4,3.6c0.1,0.2,0.3,0.3,0.5,0.4C33,83,33.1,83,33.1,82.9z M56.6,100.5
		c-0.1-0.2-0.2-0.4-0.4-0.7c-0.1-0.1-0.2-0.2-0.3-0.2c-0.1,0-0.2,0.2-0.2,0.3c-0.1,0.4-0.1,0.9-0.2,1.3c-0.1,1-0.2,2-0.3,2.9
		c-0.1,0.8-0.2,1.5-0.3,2.3c0,0.1,0.1,0.3,0.2,0.4c0.1-0.1,0.1-0.3,0.2-0.4c0.1-0.2,0.1-0.4,0.1-0.6c0-0.1,0.1-0.2,0.1-0.3
		c0.3-1.2,0.5-2.4,0.8-3.6C56.4,101.6,56.5,101.1,56.6,100.5z"/>
	<path class="st0" d="M43.8,53.4c0.1-1.1,0.1-2.2,0.2-3.3c0-0.3,0-0.5-0.3-0.7c-0.2-0.2-0.3-0.4-0.2-0.7c0.1-0.4,0.2-0.8,0.3-1.1
		c0.1-0.5,0.3-0.6,0.8-0.5c0.8,0.1,1.7,0.2,2.5,0.3c0.8,0.1,1.7,0.2,2.5,0.3c2.5,0.3,4.8,0.9,6.9,2.2c0.9,0.5,1.8,1,2.7,1.5
		c0.9,0.5,1.8,0.7,2.7,0.7c1.1-0.1,2.3-0.1,3.4-0.2c1.3-0.1,2.6,0,3.9,0.3c1,0.3,2.1,0.6,3.1,1c0.9,0.3,1.7,0.6,2.6,1
		c0.2,0.1,0.4,0.1,0.5,0.2c0.3,0.1,0.3,0.3,0.3,0.6c-0.1,0.4-0.2,0.8-0.3,1.2c0,0.1-0.1,0.3-0.2,0.3c-0.4,0.1-0.6,0.4-0.7,0.7
		c-0.5,1.1-1,2.1-1.6,3.2c-0.5,1-1.1,1.8-2,2.5c-0.7,0.5-1.5,0.8-2.4,0.8c-1.4,0-2.7-0.2-3.9-0.8c-1.3-0.6-2-1.7-2.4-3
		c-0.5-1.7-0.6-3.4-0.6-5.1c0-0.4,0-0.8-0.2-1.1c-0.3-0.7-1.2-0.9-1.7-0.4c-0.5,0.4-0.8,0.9-1.2,1.3c-0.8,1-1.4,2-2.2,3
		c-0.8,1-1.8,1.7-2.9,2.2c-1.2,0.4-2.3,0.6-3.6,0.4c-0.7-0.1-1.4-0.2-2.1-0.5c-1.5-0.6-2.7-1.5-3.3-3.1C44,56,44,55.5,43.9,55
		C43.9,54.5,43.9,53.9,43.8,53.4C43.9,53.4,43.9,53.4,43.8,53.4z"/>
	<path class="st0" d="M53.6,123.6c0,2.4,0,4.9,0,7.3c0,0.7,0.1,1.2,0.8,1.5c0.3,0.2,0.5,1,0.3,1.3c-0.1,0.1-0.2,0.2-0.4,0.2
		c-2.1,0-4.1,0-6.2,0c-0.2,0-0.4-0.1-0.4-0.4c0-0.5-0.1-1,0.4-1.4c0.3-0.2,0.3-0.6,0.3-1c0-2.3,0-4.5,0-6.8c0-0.9,0-0.9-0.9-0.9
		c-0.3,0-0.7,0-1,0c-0.3,0-0.4,0.1-0.4,0.5c0,2.5,0,5,0,7.5c0,0.3,0.1,0.6,0.4,0.8c0.3,0.3,0.4,0.7,0.4,1.2c0,0.3-0.2,0.4-0.5,0.4
		c-2,0-4,0-6,0c-0.2,0-0.4-0.1-0.4-0.3c0-0.3-0.1-0.6,0-0.8c0-0.2,0.2-0.4,0.4-0.5c0.5-0.3,0.6-0.6,0.6-1.1c0-5,0-10,0-15.1
		c0-0.5-0.1-0.8-0.5-1.1c-0.5-0.4-0.6-0.9-0.5-1.5c0.1-0.3,0.3-0.4,0.7-0.4c1.4,0,2.7,0,4.1,0c0.5,0,1,0,1.5,0
		c0.5,0,0.6,0.2,0.7,0.7c0,0.5,0,0.8-0.5,1.1c-0.2,0.1-0.3,0.5-0.3,0.7c0,2,0,4,0,6c0,0.3,0.1,0.5,0.5,0.5c0.5,0,0.9,0,1.4,0
		c0.4,0,0.5-0.2,0.5-0.6c0-1.6,0-3.2,0-4.8c0-0.3,0-0.6,0-0.9c0-0.4-0.1-0.8-0.4-1.1c-0.3-0.3-0.4-1.1-0.1-1.5
		c0.1-0.1,0.3-0.2,0.4-0.2c2,0,4,0,6,0c0.3,0,0.5,0.2,0.5,0.5c0,0.1,0,0.2,0,0.4c0.1,0.4-0.1,0.7-0.5,0.9c-0.4,0.1-0.6,0.4-0.6,0.9
		c0,0.2,0,0.3,0,0.5C53.6,118.7,53.6,121.2,53.6,123.6z"/>
	<path class="st0" d="M66.9,121.3c-0.1,0.2-0.3,0.4-0.3,0.6c-0.3,1.2-0.7,2.3-1,3.5c-0.3,1.1-0.6,2.2-0.9,3.4
		c-0.1,0.5-0.2,0.6-0.7,0.6c-0.1,0-0.2,0-0.3,0c-0.7,0-0.7,0-0.9-0.7c-0.7-2.3-1.3-4.5-2-6.8c0-0.1-0.1-0.2-0.2-0.2
		c-0.1,0.1-0.2,0.2-0.2,0.3c0,0.1,0,0.2,0,0.3c0,3,0,6,0,9c0,0.5,0.2,0.8,0.6,1.1c0.5,0.3,0.6,0.7,0.5,1.2c-0.1,0.3-0.2,0.5-0.5,0.5
		c-1,0-2,0-3,0c-0.4,0-0.7-0.5-0.5-1c0.1-0.2,0.2-0.4,0.4-0.6c0.3-0.2,0.4-0.5,0.4-0.9c0-0.2,0-0.3,0-0.5c0-4.7,0-9.4,0-14.1
		c0-0.3,0-0.7,0-1c0-0.4-0.2-0.7-0.5-0.8c-0.4-0.2-0.5-0.5-0.5-1c0-0.9,0.1-0.9,0.9-0.9c1.4,0,2.8,0,4.2,0c0.4,0,0.5,0,0.6,0.4
		c0.5,1.6,0.9,3.2,1.4,4.9c0.2,0.6,0.3,1.2,0.5,1.9c0,0.1,0.2,0.2,0.3,0.4c0.1-0.1,0.2-0.2,0.3-0.3c0.5-1.6,0.9-3.3,1.4-4.9
		c0.2-0.6,0.4-1.2,0.5-1.8c0.1-0.4,0.2-0.4,0.6-0.4c1.5,0,2.9,0,4.4,0c0.1,0,0.2,0,0.3,0c0.4,0.1,0.6,0.2,0.6,0.6
		c0,0.5-0.1,1-0.7,1.2c-0.4,0.1-0.5,0.4-0.5,0.8c0,5.2,0,10.3,0,15.5c0,0.4,0.1,0.6,0.5,0.8c0.6,0.3,0.8,1,0.6,1.6
		c0,0.1-0.3,0.2-0.4,0.2c-0.5,0-1,0-1.5,0c-1.6,0-3.1,0-4.7,0c-0.4,0-0.6-0.1-0.6-0.5c0-0.7,0-1.1,0.6-1.3c0.4-0.1,0.5-0.5,0.5-0.9
		c0-1,0-2,0-3.1c0-2,0-4,0-6c0-0.3,0-0.6-0.1-0.9C67,121.4,67,121.3,66.9,121.3z"/>
	<path class="st0" d="M4.7,113.2c1.2,0,2.4,0,3.5,0c1,0,2,0.2,2.9,0.7c1.5,0.8,2.5,2,2.9,3.7c0.3,1.1,0.3,2.3-0.2,3.4
		c-0.5,1.5-1.7,2.3-3.1,2.8c-0.1,0.1-0.2,0.2-0.4,0.3c0.1,0.1,0.2,0.3,0.4,0.3c1.5,0.5,2.5,1.5,2.9,3c0.1,0.3,0.1,0.6,0.1,1
		c0,1,0,2.1,0,3.1c0,0.4,0.1,0.7,0.4,0.9c0.4,0.4,0.4,0.9,0.3,1.4c0,0.1-0.2,0.3-0.4,0.3c-1.3,0-2.6,0-3.9,0c-0.4,0-0.7-0.2-0.9-0.6
		c-0.3-0.5-0.4-1-0.5-1.5c0-0.3,0-0.6,0-0.9c0-1.5,0-3.1,0-4.6c0-0.7-0.2-1.2-0.9-1.5c-0.4-0.1-0.8-0.1-1.2-0.1
		c-0.1,0-0.2,0.2-0.2,0.3c0,0.1,0,0.2,0,0.3c0,2,0,4,0,6c0,0.4,0.1,0.7,0.4,0.9c0.4,0.3,0.5,1.1,0.2,1.5c-0.1,0.1-0.3,0.2-0.4,0.2
		c-2,0-3.9,0-5.9,0c-0.3,0-0.5-0.2-0.5-0.5c0-0.3,0-0.5,0-0.8c0-0.2,0.2-0.3,0.3-0.4c0.5-0.3,0.7-0.7,0.7-1.3c0-5,0-9.9,0-14.9
		c0-0.6-0.2-1.1-0.8-1.3c-0.3-0.1-0.4-0.3-0.4-0.5c0-0.1,0-0.2,0-0.3c0-0.5,0.3-0.8,0.8-0.8C2.1,113.2,3.4,113.2,4.7,113.2z
		 M6.3,119c0,1.3,0,2.6,0,3.8c0,0.2,0.1,0.4,0.2,0.5c0.3,0.2,1.3,0,1.6-0.3c0.4-0.4,0.5-0.9,0.5-1.4c0-1.9,0-3.8,0-5.7
		c0-0.6-0.3-1-0.8-1.2c-0.3-0.1-0.6-0.1-0.9-0.2c-0.5,0-0.6,0.1-0.6,0.6C6.3,116.5,6.3,117.7,6.3,119z"/>
	<path class="st0" d="M93.9,127.2c0,1.3,0,2.5,0,3.8c0,0.6,0.2,1,0.8,1.2c0.5,0.2,0.8,1,0.5,1.5c-0.1,0.1-0.2,0.2-0.3,0.2
		c-1.2,0-2.4,0-3.7,0c-0.2,0-0.4-0.1-0.4-0.3c0-0.3-0.1-0.6,0-0.8c0-0.1,0.1-0.3,0.3-0.4c0.1-0.1,0.3-0.2,0.4-0.2
		c0.3-0.2,0.4-0.4,0.4-0.7c0-5.1,0-10.3,0-15.4c0-0.5-0.2-0.8-0.6-1c-0.6-0.3-0.7-0.8-0.5-1.4c0.1-0.3,0.3-0.4,0.6-0.4
		c1.1,0,2.2,0,3.3,0c0.2,0,0.4,0.1,0.5,0.3c0.9,2,1.9,4,2.8,6c0.5,1,0.9,2,1.4,3c0.1,0.1,0.2,0.2,0.3,0.3c0.1-0.1,0.2-0.3,0.2-0.4
		c0-2,0-4,0-6c0-0.2,0-0.4,0-0.5c0-0.5-0.2-0.8-0.6-1c-0.7-0.3-0.7-0.7-0.6-1.4c0-0.1,0.3-0.3,0.4-0.3c1.2,0,2.4,0,3.6,0
		c0.2,0,0.4,0.2,0.4,0.4c0,0.2,0,0.4,0,0.7c0,0.3-0.2,0.5-0.4,0.6c-0.5,0.2-0.6,0.5-0.6,1c0,5.9,0,11.8,0,17.6c0,0.5,0,0.5-0.5,0.5
		c-0.5,0-0.9,0-1.4,0c-0.3,0-0.5-0.1-0.6-0.4c-0.5-1.1-1-2.2-1.5-3.3c-1.1-2.4-2.2-4.8-3.3-7.2c0-0.1-0.1-0.1-0.1-0.2
		c-0.1-0.1-0.2-0.2-0.2-0.2c-0.1,0-0.2,0.1-0.2,0.2c0,0.2,0,0.4,0,0.5C93.9,124.8,93.9,126,93.9,127.2z"/>
	<path class="st1" d="M84.9,134c-1,0-1.9,0-2.9,0c-0.4,0-0.5-0.1-0.5-0.5c0-0.4,0.1-0.8,0.5-1c0.5-0.3,0.5-0.7,0.5-1.2
		c-0.1-0.4-0.2-0.9-0.2-1.3c0-0.2-0.1-0.4-0.4-0.4c-1,0-2,0-3,0c-0.2,0-0.4,0.1-0.4,0.3c-0.1,0.5-0.1,1-0.2,1.5
		c-0.1,0.4,0.1,0.8,0.5,1c0.7,0.4,0.6,0.6,0.6,1.4c0,0.1-0.2,0.3-0.3,0.3c-1.2,0-2.3,0-3.5,0c-0.3,0-0.4-0.2-0.4-0.5
		c0.1-0.3,0.1-0.8,0.3-1c0.5-0.6,0.7-1.2,0.8-1.9c0.1-0.8,0.3-1.6,0.4-2.4c0.2-1.4,0.5-2.8,0.7-4.2c0.2-1.1,0.4-2.2,0.6-3.2
		c0.2-1.4,0.5-2.8,0.7-4.2c0-0.2,0.1-0.5,0.1-0.7c0.1-0.4-0.1-0.7-0.4-0.9c-0.4-0.3-0.6-1-0.4-1.5c0.1-0.3,0.3-0.3,0.6-0.3
		c1.1,0,2.2,0,3.4,0c0.5,0,1,0,1.5,0c0.7,0,1,0.2,1.1,0.9c0.1,0.5,0.2,1.1,0.3,1.6c0.2,1.1,0.4,2.2,0.5,3.2c0.1,0.7,0.2,1.4,0.3,2.1
		c0.2,1,0.4,2.1,0.5,3.1c0.1,0.7,0.2,1.4,0.3,2.1c0.2,1.1,0.4,2.1,0.5,3.2c0.1,0.5,0.2,1,0.2,1.5c0.1,0.6,0.3,1.1,0.8,1.5
		c0.3,0.3,0.4,0.9,0.3,1.3c-0.1,0.2-0.3,0.3-0.5,0.3C86.8,134,85.8,134,84.9,134C84.9,134,84.9,134,84.9,134z M80.4,128.2
		c0.4,0,0.8,0,1.2,0c0.3,0,0.4-0.1,0.4-0.5c-0.1-0.6-0.2-1.3-0.3-1.9c-0.1-0.7-0.2-1.5-0.3-2.2c-0.2-1.2-0.4-2.3-0.5-3.5
		c-0.1-0.4-0.2-0.8-0.3-1.2c0-0.1-0.1-0.1-0.2-0.2c0,0.1-0.1,0.1-0.1,0.2c-0.1,0.9-0.3,1.8-0.4,2.7c-0.2,1.1-0.3,2.2-0.5,3.4
		c-0.1,0.9-0.3,1.8-0.4,2.8c0,0.3,0.1,0.4,0.4,0.4C79.6,128.2,80,128.2,80.4,128.2z"/>
	<path class="st0" d="M20.7,134c-1.1,0-2.2,0-3.3,0c-0.4,0-0.5-0.1-0.5-0.5c0-0.1,0-0.2,0-0.3c0-0.4,0.1-0.7,0.6-0.9
		c0.5-0.1,0.7-0.5,0.7-1.1c0-5,0-10.1,0-15.1c0-0.6-0.2-1.1-0.8-1.3c-0.3-0.1-0.5-0.4-0.5-0.7c0-0.9,0-0.9,0.9-0.9c2,0,4,0,6,0
		c0.1,0,0.3,0,0.4,0c0.1,0,0.2,0.1,0.2,0.1c0.3,0.3,0.1,1.3-0.4,1.5c-0.6,0.2-0.8,0.4-0.8,1.1c0,5.1,0,10.2,0,15.4
		c0,0.5,0.2,0.8,0.6,1c0.6,0.2,0.7,0.7,0.6,1.4c0,0.2-0.2,0.3-0.4,0.3C22.9,134,21.8,134,20.7,134z"/>
	<path class="st0" d="M110.2,110.3c0,1.8-1.5,3.4-3.4,3.4c-1.7,0-3.3-1.4-3.3-3.4c0-1.9,1.5-3.4,3.4-3.4
		C108.9,106.9,110.3,108.6,110.2,110.3z M104.1,110.2c-0.1,1.5,1.1,2.9,2.8,2.9c1.6,0,2.8-1.3,2.8-2.9c0-1.6-1.3-2.8-2.9-2.8
		C105.3,107.4,103.9,108.9,104.1,110.2z"/>
	<path class="st0" d="M28.6,63.7c0-0.2,0-0.5,0-0.7c0.1-1,0.1-2.1,0.2-3.1c0-0.3,0-0.5,0-0.8c-0.2-1.4-0.4-2.8-0.6-4.3
		c0-0.1,0-0.2,0-0.3c0,0,0,0,0.1,0c0.1,0.1,0.1,0.1,0.2,0.2c0.4,0.7,0.9,1.4,1.2,2.2c0.3,0.5,0.4,1.1,0.6,1.7
		c0.3,0.6,0.2,1.2-0.1,1.7c-0.5,1-0.9,2.1-1.3,3.1C28.8,63.5,28.8,63.6,28.6,63.7C28.7,63.7,28.6,63.7,28.6,63.7z"/>
	<path class="st0" d="M30.4,51.8c-0.1-0.1-0.2-0.1-0.2-0.2c-0.3-0.3-0.6-0.7-0.8-1c-0.1-0.1-0.1-0.3,0-0.5c0.3-0.6,0.6-1.1,1-1.7
		c0.1-0.1,0.3-0.3,0.5-0.3c0.2-0.1,0.5-0.1,0.8-0.2c0.1,0,0.3,0,0.5-0.1c-0.1,0.2-0.1,0.3-0.2,0.4c-0.2,0.4-0.4,0.7-0.7,1.1
		c-0.3,0.4-0.4,0.9-0.4,1.4c0,0.4-0.1,0.7-0.2,1.1C30.5,51.8,30.5,51.8,30.4,51.8z"/>
	<path class="st0" d="M32.8,54c-0.3-0.1-0.6-0.3-0.9-0.4c-0.1,0-0.1-0.2-0.2-0.3c-0.1-0.5-0.2-0.9-0.3-1.4c0-0.1,0-0.3,0-0.5
		c0.3-0.4,0.5-0.9,0.8-1.3c0-0.1,0.1-0.1,0.2-0.1c0,0.1,0,0.2,0,0.3c-0.1,0.7-0.2,1.3-0.3,2c0,0.2,0.1,0.5,0.2,0.7
		c0.1,0.3,0.3,0.6,0.5,0.9C32.9,53.9,32.9,53.9,32.8,54z"/>
	<path class="st0" d="M30,53.6c-0.6-0.3-1-0.9-0.9-1.4C29.3,52.2,29.9,53.2,30,53.6z"/>
	<path class="st0" d="M56.6,100.5c-0.1,0.6-0.2,1.1-0.3,1.6c-0.3,1.2-0.5,2.4-0.8,3.6c0,0.1-0.1,0.2-0.1,0.3c0,0.2-0.1,0.4-0.1,0.6
		c0,0.1-0.1,0.3-0.2,0.4c-0.1-0.1-0.2-0.3-0.2-0.4c0.1-0.8,0.2-1.5,0.3-2.3c0.1-1,0.2-2,0.3-2.9c0.1-0.4,0.1-0.9,0.2-1.3
		c0-0.1,0.1-0.3,0.2-0.3c0.1,0,0.2,0.1,0.3,0.2C56.4,100,56.5,100.3,56.6,100.5z"/>
	<path class="st0" d="M105.3,110.3c0-0.5,0-0.9,0-1.4c0-0.2,0.1-0.4,0.3-0.4c0.5,0,1.1,0,1.6,0c0.5,0,0.8,0.3,0.9,0.7
		c0.1,0.5,0,0.8-0.4,1.1c-0.2,0.2-0.3,0.3-0.1,0.6c0.2,0.3,0.4,0.6,0.6,0.8c0,0.1,0.1,0.2,0,0.3c0,0.1-0.2,0.1-0.3,0.1
		c-0.2-0.1-0.3-0.1-0.5-0.2c-0.1-0.1-0.2-0.3-0.4-0.5c-0.1-0.1-0.2-0.3-0.3-0.4c-0.2-0.2-0.4-0.5-0.7-0.3c-0.3,0.1-0.2,0.4-0.2,0.7
		c0,0.1,0,0.2,0,0.3c0,0.2,0,0.5-0.3,0.5c-0.3,0-0.3-0.2-0.3-0.5C105.3,111.1,105.3,110.7,105.3,110.3z M106.7,110
		C106.7,110,106.7,110,106.7,110c0.1,0,0.2,0,0.3,0c0.3,0,0.5-0.2,0.5-0.5c0-0.3-0.2-0.5-0.5-0.6c-0.2,0-0.5,0-0.7,0
		c-0.1,0-0.3,0.1-0.3,0.2c-0.1,0.5,0,0.8,0.5,0.8C106.6,110,106.6,110,106.7,110z"/>
</g>
</svg>
