<?xml version="1.0" encoding="utf-8"?>
<!-- Generator: Adobe Illustrator 23.0.5, SVG Export Plug-In . SVG Version: 6.00 Build 0)  -->
<svg version="1.1" id="Layer_1" xmlns="http://www.w3.org/2000/svg" xmlns:xlink="http://www.w3.org/1999/xlink" x="0px" y="0px"
	 width="214px" height="53px" viewBox="0 0 214 53" style="enable-background:new 0 0 214 53;" xml:space="preserve">
<style type="text/css">
	.st0{fill:#FFFFFF;}
</style>
<path class="st0" d="M92.8,52.4c-0.4-1.2-0.5-2.2,0.5-3.1c0.5-0.5,0.7-1.1,0.7-1.8c0-0.3,0-0.6,0-0.9c0-4.2,0-8.4,0-12.6
	c0-1.6-0.1-1.7-1.6-1.7c-0.7,0-1.3,0-2,0c-0.7,0-0.9,0.3-1,1c0,0.3,0,0.5,0,0.8c0,4.2,0,8.4,0,12.6c0,0.2,0,0.4,0,0.7
	c0,0.8,0.2,1.6,0.8,2.2c0.6,0.6,0.7,1.3,0.6,2.1c-0.1,0.5-0.3,0.8-0.9,0.8c-0.2,0-0.4,0-0.5,0c-3.5,0-7.1,0-10.6,0
	c-1,0-1.4,0-1.4-1.4c0-0.9,0.2-1.6,1-2c0.8-0.4,1-1.1,1-1.9c0-0.5,0-1.1,0-1.6c0-9,0-17.9,0-26.9c0-0.1,0-0.3,0-0.4
	c0.1-1.1-0.2-2-1.1-2.7c-0.9-0.6-1-1.6-0.8-2.7c0.1-0.4,0.3-0.6,0.7-0.7c0.3-0.1,0.6-0.1,0.9-0.1c3.3,0,6.7,0,10,0
	c0.2,0,0.4,0,0.5,0c0.9,0.1,1.1,0.3,1.2,1.3c0.1,0.8,0,1.5-0.7,2c-0.5,0.3-0.7,0.9-0.7,1.5c0,0.5,0,1.1,0,1.6c0,3,0,6.1,0,9.1
	c0,0.3,0,0.6,0,0.9c0.1,0.7,0.3,1,1,1c0.8,0,1.7,0,2.5,0c0.7,0,1-0.3,1-1c0-0.1,0-0.3,0-0.4c0-3.6,0-7.2,0-10.8
	c0-0.7-0.2-1.4-0.8-1.9c-0.8-0.8-0.7-1.8-0.4-2.7c0.1-0.3,0.3-0.4,0.6-0.5c0.3,0,0.6-0.1,0.9-0.1c3.4,0,6.8,0,10.2,0
	c1.5,0,1.6,0.2,1.7,1.7c0,0.8-0.2,1.3-0.9,1.6c-0.9,0.4-1.3,1.2-1.3,2.1c0,0.3,0,0.6,0,0.9c0,9.1,0,18.1,0,27.2c0,0.5,0,1.1,0,1.6
	c0,0.8,0.3,1.4,1,1.8c0.1,0.1,0.1,0.1,0.2,0.2c1,0.5,1,1.5,0.9,2.4c0,0.4-0.3,0.6-0.7,0.7c-0.2,0-0.4,0-0.7,0c-3.6,0-7.2,0-10.8,0
	C93.5,52.5,93.1,52.4,92.8,52.4L92.8,52.4z"/>
<path class="st0" d="M131.1,12.3c0.4,0,0.9-0.1,1.3-0.1c2.5,0,5,0,7.5,0c0.4,0,0.8,0,1.2,0.1c0.6,0.1,0.8,0.3,0.9,1
	c0,0.3,0,0.5,0,0.8c0,0.7-0.2,1.2-0.9,1.5c-0.2,0.1-0.3,0.2-0.5,0.3c-0.6,0.3-0.9,0.8-0.9,1.5c0,0.3,0,0.6,0,0.9
	c0,9.5,0,18.9,0,28.4c0,0.2,0,0.4,0,0.5c-0.1,0.8,0.2,1.4,1,1.9c1.1,0.6,1.4,1.7,1,2.9c-0.1,0.3-0.3,0.5-0.6,0.5c-0.3,0-0.5,0-0.8,0
	c-3.6,0-7.2,0-10.8,0c-0.1,0-0.2,0-0.3,0c-0.9,0-1.2-0.3-1.2-1.2c0-0.3,0-0.6,0.1-0.9c0.1-0.5,0.3-0.9,0.8-1.2
	c1.1-0.5,1.3-1.3,1.3-2.4c0-5.8,0-11.6,0-17.4c0-0.4-0.1-0.8-0.1-1.1c-0.3-0.2-0.5,0-0.6,0.2c-0.2,0.3-0.3,0.6-0.4,0.9
	c-1.2,4.3-2.5,8.6-3.7,12.8c-0.1,0.4-0.2,0.8-0.4,1.1c-0.9,0.2-1.8,0.2-2.7,0.1c-0.5-0.9-0.7-1.9-1-2.8c-1.1-3.7-2.2-7.3-3.2-11
	c-0.1-0.3-0.1-0.7-0.6-0.9c-0.1,0.1-0.2,0.2-0.3,0.4c-0.1,0.4-0.1,0.8-0.1,1.2c0,5.4,0,10.9,0,16.3c0,0.3,0,0.5,0,0.8
	c0,0.8,0.2,1.4,0.9,1.8c0.2,0.1,0.3,0.2,0.4,0.3c0.7,0.6,0.9,1.6,0.6,2.4c-0.1,0.3-0.4,0.5-0.7,0.6c-0.2,0-0.4,0-0.5,0
	c-1.7,0-3.4-0.1-5.1,0c-1.1,0-1.5-0.7-1.3-1.7c0.1-0.5,0.3-0.9,0.8-1.2c0.8-0.6,1-1.3,1-2.2c0-0.3,0-0.5,0-0.8c0-9,0-18,0-27
	c0-0.7-0.1-1.3-0.1-2c0-0.7-0.3-1.3-0.9-1.7c-0.9-0.5-1-1.3-0.9-2.2c0.1-1.3,0.3-1.5,1.5-1.5c2.7,0,5.4,0,8.2,0
	c0.3,0,0.6,0.1,0.9,0.1c0.4,0.5,0.5,1.1,0.6,1.6c1.1,3.9,2.2,7.9,3.3,11.8c0.1,0.2,0.1,0.4,0.2,0.6c0.1,0.1,0.3,0.2,0.4,0.3
	c0.3,0.1,0.4-0.1,0.5-0.4c0.3-1,0.6-2,0.9-2.9c1-3.4,1.9-6.8,2.9-10.1C130.9,13,131,12.7,131.1,12.3L131.1,12.3z"/>
<path class="st0" d="M9.3,12.2c2.1,0,4.2,0,6.3,0c2.7,0,5.2,0.7,7.4,2.3c3,2.1,4.4,5,4.5,8.7c0,1.2,0,2.3-0.4,3.4
	c-0.6,2-1.7,3.5-3.4,4.7c-0.8,0.5-1.6,0.9-2.5,1.3c-0.2,0.1-0.5,0.2-0.7,0.3c-0.3,0.2-0.3,0.6,0,0.8c0.2,0.1,0.5,0.2,0.7,0.3
	c3.6,1.2,5.6,4.1,5.5,8c0,1.8,0,3.6,0,5.3c0,0.8,0.1,1.5,0.7,2.1c0.7,0.7,0.7,1.5,0.6,2.4c-0.1,0.5-0.3,0.7-0.8,0.7
	c-0.2,0-0.4,0-0.5,0c-2.2,0-4.4,0-6.6,0c-1.2,0-2-0.5-2.6-1.6c-0.6-1.1-0.7-2.4-0.7-3.6c0-2.3,0-4.6,0-7c0-1,0-2.1,0-3.1
	s-0.6-1.8-1.5-2.2c-0.8-0.4-1.7-0.3-2.6-0.2c-0.2,0-0.4,0.3-0.4,0.5c-0.1,0.3-0.1,0.6-0.1,0.9c0,3.7,0,7.3,0,11c0,0.8,0.2,1.4,0.8,2
	c0.7,0.6,0.8,1.9,0.4,2.7c-0.1,0.2-0.4,0.4-0.6,0.5c-0.3,0.1-0.6,0.1-0.9,0.1c-3.3,0-6.7,0-10,0c-0.1,0-0.3,0-0.4,0
	c-0.8,0.1-1.2-0.2-1.3-1.2c0-0.3,0-0.5,0-0.8c0-0.6,0.2-1,0.7-1.3c1-0.5,1.3-1.4,1.4-2.4c0-0.3,0-0.6,0-0.9c0-9,0-18,0-27
	c0-0.5,0-1.1-0.1-1.6c-0.1-0.8-0.5-1.3-1.2-1.6c-0.2-0.1-0.4-0.2-0.6-0.3c-0.1-0.1-0.3-0.2-0.4-0.4c-0.2-0.8-0.3-1.5,0.3-2.2
	c0.2-0.2,0.5-0.4,0.8-0.4c0.4-0.1,0.8-0.1,1.2-0.1C4.7,12.2,7,12.2,9.3,12.2L9.3,12.2z M16.9,23.3C16.9,23.3,16.9,23.3,16.9,23.3
	c0-1.3,0-2.6,0-3.9c0-0.1,0-0.2,0-0.3c0-0.4,0-0.9,0-1.3c-0.1-1.7-1.2-2.7-2.8-2.8c-1.6-0.1-1.7,0-1.7,1.7c0,4.5,0,9.1,0,13.6
	c0,0.3,0,0.6,0,0.9c0.1,0.4,0.3,0.6,0.7,0.7c0.4,0,0.8,0,1.2,0c1,0,1.7-0.5,2.1-1.4c0.4-0.7,0.6-1.5,0.6-2.3
	C16.9,26.6,16.9,24.9,16.9,23.3L16.9,23.3z"/>
<path class="st0" d="M197.2,52.5c-1.3,0-2.5,0-3.7,0c-0.3,0-0.6-0.2-0.8-0.5c-0.1-0.3-0.3-0.6-0.4-0.8c-3-6.4-5.9-12.8-8.9-19.1
	c-0.2-0.4-0.3-0.7-0.6-1.1c-0.1-0.1-0.4-0.1-0.6-0.2c0,0.4-0.1,0.8-0.1,1.1c0,5,0,9.9,0,14.8c0,0.2,0,0.4,0,0.7c0,0.6,0.3,1,0.8,1.3
	c0.3,0.2,0.6,0.4,0.9,0.5c0.5,0.3,0.8,0.7,0.8,1.3c0,0,0,0.1,0,0.1c0,1.6-0.1,1.7-1.6,1.7c-1.8,0-3.7,0-5.5,0c-0.4,0-0.8,0-1.2-0.1
	c-0.6-0.8-0.4-1.6-0.3-2.4c0-0.2,0.3-0.5,0.5-0.5c1.2-0.5,1.5-1.4,1.5-2.7c0-9.2,0-18.4,0-27.6c0-0.3,0-0.6,0-0.9
	c0-1.2-0.4-2-1.5-2.7c-0.9-0.6-1.2-1.9-0.6-2.8c0.2-0.3,0.4-0.5,0.7-0.5c0.3,0,0.6-0.1,0.9-0.1c1.7,0,3.4,0,5.1,0
	c0.9,0,1.4,0.3,1.8,1.2c1.7,3.7,3.4,7.3,5.1,10.9c0.9,1.9,1.7,3.7,2.6,5.6c0.1,0.3,0.3,0.6,0.4,0.8c0.1,0.1,0.2,0.1,0.4,0.1
	c0.1,0,0.2-0.1,0.3-0.2c0.1-0.3,0.1-0.5,0.1-0.8c0-4,0-8,0-12c0-1-0.3-1.7-1.2-2.2c-0.2-0.1-0.3-0.2-0.5-0.3
	c-0.5-0.3-0.8-0.7-0.8-1.3c0-0.3,0-0.5,0-0.8c0-0.6,0.2-0.8,0.9-0.9c0.2,0,0.4,0,0.7,0c1.8,0,3.6,0,5.4,0c0.3,0,0.6,0,0.9,0.1
	c0.3,0,0.6,0.3,0.6,0.6c0.1,0.5,0.1,1.1,0.1,1.6c0,0.4-0.3,0.7-0.6,0.8c-1.2,0.4-1.4,1.3-1.4,2.5c0,11,0,21.9,0,32.9
	C197.4,51.3,197.5,51.8,197.2,52.5L197.2,52.5z"/>
<path class="st0" d="M152.5,43.9c-0.1,0.2-0.3,0.4-0.3,0.5c-0.2,0.9-0.3,1.8-0.4,2.8c-0.1,0.9,0.1,1.6,0.9,2c0,0,0.1,0,0.1,0.1
	c1.2,0.8,1.4,1.5,0.8,3c-0.1,0-0.3,0.1-0.5,0.1c-2.1,0-4.2,0-6.3,0c-0.8,0-1.3-0.4-1.1-1.4c0.1-0.7,0.4-1.3,0.9-1.8
	c0.7-0.7,1.1-1.5,1.2-2.5c0.4-2.1,0.7-4.1,1-6.2c0.2-1,0.3-1.9,0.5-2.9c0.4-2.3,0.8-4.6,1.2-6.8c0.5-2.8,1-5.5,1.5-8.3
	c0.3-1.6,0.6-3.2,0.8-4.9c0.1-0.9,0-1.6-0.8-2.1c-1.1-0.7-0.9-1.8-0.7-2.9c0-0.2,0.3-0.4,0.4-0.4c0.3-0.1,0.7-0.1,1.1-0.1
	c2.9,0,5.9,0,8.8,0c1.6,0,2.1,0.4,2.4,1.9c0.3,1.7,0.6,3.5,0.9,5.3c0.2,0.9,0.3,1.8,0.4,2.8c0.4,2.6,0.8,5.2,1.2,7.8
	c0.5,2.9,1,5.8,1.5,8.7c0.3,2,0.6,4,0.9,6.1c0.1,0.8,0.3,1.7,0.5,2.5c0.2,0.8,0.6,1.5,1.2,2c0.8,0.7,0.8,1.7,0.6,2.6
	c-0.1,0.3-0.3,0.5-0.7,0.6c-0.2,0-0.4,0-0.7,0c-3.6,0-7.1,0-10.7,0c-0.2,0-0.4,0-0.5,0c-0.4,0-0.7-0.3-0.7-0.7
	c-0.1-0.8,0-1.5,0.7-2.1c0,0,0.1-0.1,0.1-0.1c1.1-0.7,1.2-1.7,1-2.8c-0.1-0.7-0.2-1.4-0.4-2.1c-0.1-0.6-0.3-0.8-1-0.9
	c-0.3,0-0.6,0-0.9,0c-1.2,0-2.5,0-3.7,0C153.4,43.9,153,43.9,152.5,43.9L152.5,43.9z M153.1,41.1c0.3,0.1,0.5,0.1,0.8,0.1
	c1.4,0,2.9,0,4.3,0c0.1,0,0.3,0,0.4,0c0.3-0.1,0.5-0.3,0.5-0.5c0-0.2,0-0.4-0.1-0.5c-0.3-1.9-0.6-3.8-0.9-5.7
	c-0.5-3.2-0.9-6.4-1.4-9.6c-0.1-0.5-0.2-1-0.4-1.4c-0.1-0.2-0.3-0.3-0.5-0.5c-0.1,0.4-0.2,0.6-0.3,0.9c-0.4,2.5-0.8,4.9-1.2,7.4
	c-0.4,2.6-0.8,5.2-1.2,7.8C153,39.7,152.8,40.4,153.1,41.1L153.1,41.1z"/>
<path class="st0" d="M63.8,32.8c0,4.6,0,9.2,0,13.8c0,0.4,0,0.9,0,1.3c0.1,0.4,0.2,0.8,0.3,1.1c0.7,1.4,2.4,1.2,3,0.3
	c0.3-0.4,0.6-0.9,0.7-1.4c0.2-0.9,0.4-1.8,0.5-2.8c0.2-1.7,0.7-2.2,2.4-2.2c1.5,0,2,0.5,2,2c-0.2,5-3.9,8-7.9,8c-3.4,0-6-1.3-8-4.1
	c-1.7-2.4-2.8-5.1-3.4-7.9c-0.5-2.1-0.8-4.3-0.8-6.5c0-2.1-0.1-4.2,0-6.3c0.2-3.4,0.8-6.6,2.3-9.7c0.6-1.3,1.3-2.5,2.3-3.6
	c0.6-0.7,1.2-1.3,1.9-1.8c1.9-1.4,4-1.7,6.2-1.2c0.5,0.1,1,0.4,1.5,0.6c0.9,0.5,1.2,0.7,2-0.2c0.5-0.5,1.1-0.7,1.8-0.7
	c1,0,1.3,0.3,1.4,1.2c0.1,1.1,0.2,2.3,0.3,3.5c0.1,1.7,0.3,3.4,0.4,5.1c0,0.4,0.1,0.8,0,1.2c0,0.4-0.2,0.7-0.5,0.9
	c-0.8,0.5-2.3,0.2-2.7-0.7c-0.2-0.3-0.3-0.7-0.4-1.1c-0.3-1-0.5-2.1-0.8-3.1c-0.2-0.7-0.5-1.3-0.8-2c-0.2-0.4-0.4-0.7-0.7-1
	c-0.9-1-2.2-0.8-2.7,0.5c-0.3,0.7-0.4,1.4-0.4,2.1c0,1.8,0,3.7,0,5.5C63.8,26.7,63.8,29.7,63.8,32.8L63.8,32.8z"/>
<path class="st0" d="M40.1,52.5c-1.9,0-3.7,0-5.6,0c-0.3,0-0.6,0-0.9,0c-0.5,0-0.7-0.3-0.7-0.8c0-0.4,0-0.8,0-1.2
	c0-0.5,0.3-0.8,0.7-1c0.1,0,0.2-0.1,0.2-0.1c1.2-0.4,1.6-1.2,1.6-2.3c0-0.4,0-0.7,0-1.1c0-8.8,0-17.6,0-26.5c0-0.7,0-1.4-0.1-2.1
	c-0.1-0.8-0.5-1.5-1.3-1.9c-0.4-0.2-0.8-0.4-1-0.8c-0.2-0.6-0.2-1.2,0-1.8c0.1-0.3,0.3-0.5,0.6-0.5c0.4-0.1,0.7-0.1,1.1-0.1
	c3.8,0,7.6,0,11.4,0c0.4,0,0.7,0,1.1,0.1c0.4,0.1,0.6,0.3,0.7,0.7c0,0.2,0,0.4,0,0.5c0,1.3,0,1.4-1.2,1.9c-0.8,0.4-1.3,0.9-1.3,1.8
	c0,0.4,0,0.7,0,1.1c0,9.4,0,18.7,0,28.1c0,0.4,0,0.7,0,1.1c0,0.7,0.3,1.2,0.9,1.5c0.1,0,0.2,0.1,0.2,0.1c0.4,0.2,0.8,0.4,1,0.8
	c0.2,0.6,0.2,1.2,0.1,1.8c-0.1,0.3-0.3,0.6-0.6,0.6c-0.3,0-0.6,0-0.9,0C44,52.5,42,52.5,40.1,52.5L40.1,52.5z"/>
<path class="st0" d="M207.4,13c-2.7,0.1-6.4-2.1-6.4-6.5c0-4,3.2-6.5,6.6-6.5c3.6,0,6.4,3,6.5,6.5C214,9.8,211.2,13.1,207.4,13z
	 M202,6.5c0,3.1,2.4,5.6,5.5,5.6c3.2-0.1,5.5-2.6,5.5-5.5c0-3-2.5-5.6-5.5-5.5C204.3,1.1,202,3.3,202,6.5L202,6.5z"/>
<path class="st0" d="M210.1,9.8c-0.6,0.4-1,0.2-1.3-0.2c-0.3-0.4-0.5-0.8-0.9-1.2c-0.3-0.4-0.6-0.8-1-1.1c-0.7-0.5-1.2-0.3-1.3,0.5
	c-0.1,0.4,0,0.9-0.1,1.3c0,0.5-0.2,0.8-0.5,0.8c-0.4,0-0.7-0.2-0.7-0.8c0-1.8,0-3.6,0-5.5c0-0.1,0.1-0.3,0.1-0.4
	c0.1-0.1,0.2-0.2,0.3-0.2c1.2,0,2.4,0,3.6,0.1c0.7,0,1.2,0.5,1.4,1.2c0.2,0.7,0.1,1.3-0.4,1.8c-0.1,0.1-0.3,0.2-0.4,0.3
	c-0.4,0.4-0.4,0.6-0.1,1c0.3,0.5,0.7,0.9,1,1.4C210,9.3,210,9.5,210.1,9.8L210.1,9.8z M205.9,5.8c0.6,0.3,1.3,0.2,2,0.1
	c0.5-0.1,0.8-0.5,0.8-0.9c0-0.4-0.3-0.9-0.7-1c-0.7-0.1-1.4-0.2-2,0.1C205.5,4.8,205.5,5.3,205.9,5.8L205.9,5.8z"/>
</svg>
