<?xml version="1.0" encoding="utf-8"?>
<!-- Generator: Adobe Illustrator 23.0.5, SVG Export Plug-In . SVG Version: 6.00 Build 0)  -->
<svg version="1.1" id="Layer_1" xmlns="http://www.w3.org/2000/svg" xmlns:xlink="http://www.w3.org/1999/xlink" x="0px" y="0px"
	 width="395.9px" height="184.4px" viewBox="0 0 395.9 184.4" style="enable-background:new 0 0 395.9 184.4;" xml:space="preserve"
	>
<style type="text/css">
	.st0{fill:#060001;}
	.st1{clip-path:url(#SVGID_3_);fill:#060001;}
	.st2{clip-path:url(#SVGID_5_);fill:#060001;}
	.st3{clip-path:url(#SVGID_7_);fill:#060001;}
	.st4{clip-path:url(#SVGID_9_);fill:#060001;}
	.st5{clip-path:url(#SVGID_11_);fill:#060001;}
	.st6{clip-path:url(#SVGID_13_);fill:#060001;}
	.st7{clip-path:url(#SVGID_15_);fill:#060001;}
	.st8{clip-path:url(#SVGID_17_);fill:#060001;}
	.st9{clip-path:url(#SVGID_19_);fill:#060001;}
	.st10{clip-path:url(#SVGID_21_);}
	.st11{clip-path:url(#SVGID_23_);}
	.st12{clip-path:url(#SVGID_25_);}
	.st13{clip-path:url(#SVGID_27_);}
	.st14{clip-path:url(#SVGID_29_);}
	.st15{clip-path:url(#SVGID_31_);}
	.st16{clip-path:url(#SVGID_33_);}
	.st17{clip-path:url(#SVGID_35_);}
	.st18{clip-path:url(#SVGID_37_);}
</style>
<g>
	<g>
		<g>
			<polygon class="st0" points="238.5,150.9 238.5,101.5 248,101.5 248,144.2 358.9,144.2 358.9,150.9 			"/>
			<path class="st0" d="M281,140.7c0-1.4,0-2.8,0-4.2c-1.2,1.5-2.9,2.7-4.9,3.6s-4.2,1.3-6.4,1.3c-2.3,0-4.4-0.4-6.2-1.2
				c-1.8-0.8-3.1-2-4-3.5c-0.8-1.5-1.2-3.6-1.2-6.3c0-6,0-12,0-18c3.1,0,6.1,0,9.1,0c0,4.3,0,8.7,0,13c0,4,0.2,6.4,0.5,7.3
				c0.3,0.9,0.9,1.6,1.8,2.1s2,0.8,3.3,0.8c1.5,0,2.9-0.4,4.1-1c1.2-0.7,2.1-1.6,2.5-2.6s0.7-3.6,0.7-7.6c0-4,0-8,0-11.9
				c3.1,0,6.1,0,9.1,0c0,9.4,0,18.9,0,28.3C286.7,140.7,283.8,140.7,281,140.7z"/>
			<polygon class="st0" points="291.3,140.7 304.5,125.8 292.8,112.3 303,112.3 309.3,120.4 315.6,112.3 325.6,112.3 313.9,125.7 
				327,140.7 316.1,140.7 309.2,131.6 301.9,140.7 			"/>
			<path class="st0" d="M333.8,124.6c0-2,0.6-3.6,1.9-4.8c1.3-1.2,3-1.8,5-1.8c1.9,0,3.5,0.5,4.8,1.7c1.3,1.1,2,2.7,2.1,4.8
				C343,124.6,338.4,124.6,333.8,124.6z M344.8,135.2c-1,0.6-2.2,0.9-3.6,0.9c-2.1,0-3.9-0.6-5.3-1.8c-1.4-1.2-2.1-2.9-2.2-5.1
				c7.6,0,15.3,0,22.9,0c0.1-5.7-1.3-9.9-4.2-12.7s-7-4.1-12.1-4.1c-4.5,0-8.3,1.3-11.2,4s-4.4,6.3-4.4,11c0,3.9,1.1,7.2,3.4,9.8
				c2.9,3.2,7.2,4.8,13.2,4.8c3.8,0,6.9-0.7,9.4-2.2s4.3-3.6,5.5-6.5c-3-0.3-6-0.6-9-1C346.5,133.6,345.7,134.6,344.8,135.2z"/>
			<path class="st0" d="M211.2,124.6c0-2,0.6-3.6,1.9-4.8c1.3-1.2,3-1.8,5-1.8c1.9,0,3.5,0.5,4.8,1.7c1.3,1.1,2,2.7,2.1,4.8
				C220.4,124.6,215.8,124.6,211.2,124.6z M222.2,135.2c-1,0.6-2.2,0.9-3.6,0.9c-2.1,0-3.9-0.6-5.3-1.8c-1.4-1.2-2.2-2.9-2.2-5.1
				c7.6,0,15.3,0,22.9,0c0.1-5.7-1.3-9.9-4.2-12.7s-7-4.1-12.1-4.1c-4.5,0-8.3,1.3-11.2,4c-3,2.7-4.4,6.3-4.4,11
				c0,3.9,1.1,7.2,3.4,9.8c2.8,3.2,7.2,4.8,13.2,4.8c3.8,0,6.9-0.7,9.4-2.2s4.3-3.6,5.5-6.5c-3-0.3-6-0.6-9-1
				C224,133.6,223.2,134.6,222.2,135.2z"/>
			<path class="st0" d="M149.9,101.5c7.3,0,14.6,0,21.9,0c4.9,0,8.7,0.3,11.3,0.9c3.5,0.9,6.5,2.4,8.9,4.5c2.5,2.2,4.4,4.8,5.7,8
				c1.3,3.1,1.9,7,1.9,11.6c0,4.1-0.6,7.6-1.8,10.5c-1.5,3.6-3.6,6.5-6.4,8.7c-2.1,1.7-4.9,3-8.4,3.9c-2.7,0.7-6.2,1-10.6,1
				c-7.5,0-15,0-22.6,0C149.9,134.3,149.9,117.9,149.9,101.5z M162.1,109.8c0,10.9,0,21.8,0,32.8c3,0,6,0,9,0c3.3,0,5.8-0.2,7.3-0.5
				c1.9-0.4,3.6-1.1,4.8-2.1c1.3-1,2.3-2.6,3.2-4.8c0.8-2.2,1.2-5.2,1.2-9c0-3.8-0.4-6.8-1.2-8.8c-0.8-2-1.9-3.6-3.4-4.8
				c-1.5-1.1-3.3-1.9-5.6-2.3c-1.7-0.3-5-0.5-9.9-0.5C165.7,109.8,163.9,109.8,162.1,109.8z"/>
		</g>
		<g>
			<g>
				<path id="SVGID_00000116234166872954772620000015351937650294902684_" class="st0" d="M356.6,91.9c0.6,0,0.7-0.5,0.7-0.5v-3
					c0,0-1.6-1.4-2.3-1.8c-0.7-0.3-1-1.1-1-1.1V61.9l13.9,30h6.1V45.4c0-1.4,2.7-2.2,2.7-2.2v-0.4v-2.3c0-0.8-0.6-1-0.6-1h-10.5
					c-0.5,0-0.8,0.6-0.8,0.6v2.1c0,0.5,0.6,0.6,0.6,0.6s1.5,1,2.1,1.3c0.7,0.3,0.9,1.5,0.9,1.5v19.3l-11.7-25.5h-10
					c-0.9,0-1.1,1.3-1.1,1.3v2c0,0.4,0.2,0.5,0.6,0.8c0.4,0.2,2.4,2,2.4,2v39.9c0,0.4-0.2,1-0.2,1l-2.7,2.2v2.6
					c0,0.5,0.8,0.8,0.8,0.8L356.6,91.9L356.6,91.9z"/>
			</g>
			<g>
				<g>
					<g>
						<g>
							<defs>
								<path id="SVGID_2_" d="M356.6,91.9c0.6,0,0.7-0.5,0.7-0.5v-3c0,0-1.6-1.4-2.3-1.8c-0.7-0.3-1-1.1-1-1.1V61.9l13.9,30h6.1
									V45.4c0-1.4,2.7-2.2,2.7-2.2v-0.4v-2.3c0-0.8-0.6-1-0.6-1h-10.5c-0.5,0-0.8,0.6-0.8,0.6v2.1c0,0.5,0.6,0.6,0.6,0.6
									s1.5,1,2.1,1.3c0.7,0.3,0.9,1.5,0.9,1.5v19.3l-11.7-25.5h-10c-0.9,0-1.1,1.3-1.1,1.3v2c0,0.4,0.2,0.5,0.6,0.8
									c0.4,0.2,2.4,2,2.4,2v39.9c0,0.4-0.2,1-0.2,1l-2.7,2.2v2.6c0,0.5,0.8,0.8,0.8,0.8L356.6,91.9L356.6,91.9z"/>
							</defs>
							<clipPath id="SVGID_3_">
								<use xlink:href="#SVGID_2_"  style="overflow:visible;"/>
							</clipPath>
							<rect x="345.5" y="39.4" class="st1" width="31.1" height="52.5"/>
						</g>
					</g>
				</g>
			</g>
		</g>
		<g>
			<g>
				<path id="SVGID_00000076591927829029577580000000159641905715440519_" class="st0" d="M323.9,77h-8.5l4.4-25.5L323.9,77z
					 M316.6,91.9c0.9,0,0.9-0.7,0.9-0.7v-1.4c0-0.5-0.2-1.2-0.2-1.2s-1.9-1.5-2.5-1.9c-0.6-0.3-0.4-1.4-0.4-1.4l0.8-4.9h8.9l1.1,5.8
					c0,0-1.5,1.3-2.3,1.7c-0.8,0.4-0.5,1.5-0.5,1.5v1.4c0,0.5,0.5,0.8,0.5,0.8h15.9c0.8,0,1.3-0.8,1.3-0.8v-1.7c0-0.6-0.2-1-0.2-1
					s-0.1-0.4-1.2-1c-1.1-0.6-1.2-2.3-1.2-2.3s-6.8-41.6-7.1-43.4c-0.3-1.9-1.9-2.1-1.9-2.1h-14.2c-0.7,0-0.8,0.8-0.8,0.8v2.1
					c0,0.4,0.5,1,0.5,1l1.9,2c0,0-6.1,37.4-6.4,39c-0.4,1.6-1,3-2,3.4c-1,0.5-1.1,1.6-1.1,1.6V91c0,0.4,0.8,0.9,0.8,0.9L316.6,91.9
					L316.6,91.9z"/>
			</g>
			<g>
				<g>
					<g>
						<g>
							<defs>
								<path id="SVGID_4_" d="M323.9,77h-8.5l4.4-25.5L323.9,77z M316.6,91.9c0.9,0,0.9-0.7,0.9-0.7v-1.4c0-0.5-0.2-1.2-0.2-1.2
									s-1.9-1.5-2.5-1.9c-0.6-0.3-0.4-1.4-0.4-1.4l0.8-4.9h8.9l1.1,5.8c0,0-1.5,1.3-2.3,1.7c-0.8,0.4-0.5,1.5-0.5,1.5v1.4
									c0,0.5,0.5,0.8,0.5,0.8h15.9c0.8,0,1.3-0.8,1.3-0.8v-1.7c0-0.6-0.2-1-0.2-1s-0.1-0.4-1.2-1c-1.1-0.6-1.2-2.3-1.2-2.3
									s-6.8-41.6-7.1-43.4c-0.3-1.9-1.9-2.1-1.9-2.1h-14.2c-0.7,0-0.8,0.8-0.8,0.8v2.1c0,0.4,0.5,1,0.5,1l1.9,2
									c0,0-6.1,37.4-6.4,39c-0.4,1.6-1,3-2,3.4c-1,0.5-1.1,1.6-1.1,1.6V91c0,0.4,0.8,0.9,0.8,0.9L316.6,91.9L316.6,91.9z"/>
							</defs>
							<clipPath id="SVGID_5_">
								<use xlink:href="#SVGID_4_"  style="overflow:visible;"/>
							</clipPath>
							<rect x="306.4" y="39.3" class="st2" width="33.7" height="52.6"/>
						</g>
					</g>
				</g>
			</g>
		</g>
		<g>
			<g>
				<path id="SVGID_00000159453180797363180380000013346790200290955656_" class="st0" d="M300.4,91.9c0.6,0,1-0.9,1-0.9v-2.9
					c0,0-0.7-0.8-1.5-1.2c-0.9-0.5-1.1-1.1-1.1-1.1V45.9c0-0.9,2.1-2.3,2.3-2.5c0.2-0.2,0.7-0.8,0.7-0.8v-2.3c0-0.8-1.2-1-1.2-1
					h-13.4l-5.8,20.6l-5.7-20.6h-13c-1.2,0-1.1,1-1.1,1v3.2c0,0,0.5,0.4,1.3,0.9c0.8,0.5,1.1,1.6,1.1,1.6v39.9
					c-0.1,0.4-0.7,1.2-1.5,1.9c-0.8,0.7-0.9,1.4-0.9,1.4v1.6c0,0.8,1.2,1,1.2,1h8.2c0.7,0,1-0.9,1-0.9v-2.2c0-0.8-0.8-0.9-1.5-1.4
					c-0.7-0.5-1.2-1.4-1.2-1.4V58.6l6.5,21.7h3.4l6.9-22.2v27.5c0,0-1.1,1.3-1.9,1.6c-0.9,0.3-1,1.2-1,1.2v2.5c0,1,0.9,1.2,0.9,1.2
					L300.4,91.9L300.4,91.9L300.4,91.9z"/>
			</g>
			<g>
				<g>
					<g>
						<g>
							<defs>
								<path id="SVGID_6_" d="M300.4,91.9c0.6,0,1-0.9,1-0.9v-2.9c0,0-0.7-0.8-1.5-1.2c-0.9-0.5-1.1-1.1-1.1-1.1V45.9
									c0-0.9,2.1-2.3,2.3-2.5c0.2-0.2,0.7-0.8,0.7-0.8v-2.3c0-0.8-1.2-1-1.2-1h-13.4l-5.8,20.6l-5.7-20.6h-13c-1.2,0-1.1,1-1.1,1
									v3.2c0,0,0.5,0.4,1.3,0.9c0.8,0.5,1.1,1.6,1.1,1.6v39.9c-0.1,0.4-0.7,1.2-1.5,1.9c-0.8,0.7-0.9,1.4-0.9,1.4v1.6
									c0,0.8,1.2,1,1.2,1h8.2c0.7,0,1-0.9,1-0.9v-2.2c0-0.8-0.8-0.9-1.5-1.4c-0.7-0.5-1.2-1.4-1.2-1.4V58.6l6.5,21.7h3.4l6.9-22.2
									v27.5c0,0-1.1,1.3-1.9,1.6c-0.9,0.3-1,1.2-1,1.2v2.5c0,1,0.9,1.2,0.9,1.2L300.4,91.9L300.4,91.9L300.4,91.9z"/>
							</defs>
							<clipPath id="SVGID_7_">
								<use xlink:href="#SVGID_6_"  style="overflow:visible;"/>
							</clipPath>
							<rect x="261.5" y="39.3" class="st3" width="40.2" height="52.6"/>
						</g>
					</g>
				</g>
			</g>
		</g>
		<g>
			<g>
				<path id="SVGID_00000067940494795876456450000011487963211647120008_" class="st0" d="M235,91.7c0,0,0.8-0.3,0.8-1.1v-2.3
					c0,0-2-1.4-2.1-1.9V65.5h5.8v20.9c-0.1,0.5-2.1,1.9-2.1,1.9v2.3c0,0.8,0.8,1.1,0.8,1.1h16.2c0.7,0,1.1-0.1,1.1-0.1v-3.2
					c0,0-0.8-0.5-1.7-1.2c-0.9-0.8-1.1-1.6-1.1-1.6V45.7c0-1.4,2.7-2.8,2.7-2.8v-2.7c0-0.7-0.7-1-0.7-1h-16.1c0,0-0.9,0.5-0.9,1.4
					v1.8c0,0,0,0.8,0.4,1.1c0.4,0.3,1.5,1.1,1.5,1.1v17.1h-6V44.6c0,0,1-0.8,1.5-1.1c0.4-0.3,0.4-1.1,0.4-1.1v-1.8
					c0-0.9-0.9-1.4-0.9-1.4h-16.1c0,0-0.7,0.3-0.7,1v2.7c0,0,2.7,1.4,2.7,2.8v39.9c0,0-0.1,0.8-1.1,1.6c-0.9,0.8-1.7,1.2-1.7,1.2
					v3.2c0,0,0.4,0.1,1.1,0.1H235z"/>
			</g>
			<g>
				<g>
					<g>
						<g>
							<defs>
								<path id="SVGID_8_" d="M235,91.7c0,0,0.8-0.3,0.8-1.1v-2.3c0,0-2-1.4-2.1-1.9V65.5h5.8v20.9c-0.1,0.5-2.1,1.9-2.1,1.9v2.3
									c0,0.8,0.8,1.1,0.8,1.1h16.2c0.7,0,1.1-0.1,1.1-0.1v-3.2c0,0-0.8-0.5-1.7-1.2c-0.9-0.8-1.1-1.6-1.1-1.6V45.7
									c0-1.4,2.7-2.8,2.7-2.8v-2.7c0-0.7-0.7-1-0.7-1h-16.1c0,0-0.9,0.5-0.9,1.4v1.8c0,0,0,0.8,0.4,1.1c0.4,0.3,1.5,1.1,1.5,1.1
									v17.1h-6V44.6c0,0,1-0.8,1.5-1.1c0.4-0.3,0.4-1.1,0.4-1.1v-1.8c0-0.9-0.9-1.4-0.9-1.4h-16.1c0,0-0.7,0.3-0.7,1v2.7
									c0,0,2.7,1.4,2.7,2.8v39.9c0,0-0.1,0.8-1.1,1.6c-0.9,0.8-1.7,1.2-1.7,1.2v3.2c0,0,0.4,0.1,1.1,0.1H235z"/>
							</defs>
							<clipPath id="SVGID_9_">
								<use xlink:href="#SVGID_8_"  style="overflow:visible;"/>
							</clipPath>
							<rect x="217.6" y="39.3" class="st4" width="37.8" height="52.4"/>
						</g>
					</g>
				</g>
			</g>
		</g>
		<g>
			<g>
				<path id="SVGID_00000178924373041497246930000012436820435076602264_" class="st0" d="M178.3,91.7c0,0,0.8-0.3,0.8-1.1v-2.3
					c0,0-2.5-1.4-2.6-1.9l-0.1-41.8c0,0,2.2-1,2.6-1.3s0.4-0.9,0.4-0.9v-1.8c0-0.9-0.9-1.4-0.9-1.4h-17.3c0,0-1.2,0.3-1.2,1v2.7
					c0,0,3.2,1.4,3.2,2.8v39.9c0,0-0.1,0.8-1,1.6c-0.9,0.8-2.4,1.2-2.4,1.2v3.2c0,0,0.6,0.1,1.3,0.1L178.3,91.7L178.3,91.7z"/>
			</g>
			<g>
				<g>
					<g>
						<g>
							<defs>
								<path id="SVGID_10_" d="M178.3,91.7c0,0,0.8-0.3,0.8-1.1v-2.3c0,0-2.5-1.4-2.6-1.9l-0.1-41.8c0,0,2.2-1,2.6-1.3
									s0.4-0.9,0.4-0.9v-1.8c0-0.9-0.9-1.4-0.9-1.4h-17.3c0,0-1.2,0.3-1.2,1v2.7c0,0,3.2,1.4,3.2,2.8v39.9c0,0-0.1,0.8-1,1.6
									c-0.9,0.8-2.4,1.2-2.4,1.2v3.2c0,0,0.6,0.1,1.3,0.1L178.3,91.7L178.3,91.7z"/>
							</defs>
							<clipPath id="SVGID_11_">
								<use xlink:href="#SVGID_10_"  style="overflow:visible;"/>
							</clipPath>
							<rect x="159.7" y="39.3" class="st5" width="19.7" height="52.4"/>
						</g>
					</g>
				</g>
			</g>
		</g>
		<g>
			<g>
				<path id="SVGID_00000156547344525244260300000011393587982935114671_" class="st0" d="M212,82.1v-1.3c0,0,0.2-1.6-1.4-1.6H208
					c0,0-1.4,0.2-1.8,2.6c-0.4,2.5-0.8,6.5-3.1,6.5c-2.3,0-2.7-1.5-2.7-2.9V45.3c0,0,0.5-2.4,2.2-2.4c1.6,0,2.9,1.3,3.7,4.6
					c0.7,3.4,1.1,6.8,3.5,6.8c2.4,0,2.2-1.9,2.2-1.9l-0.8-12.6c0,0-0.2-1.5-1.7-1.5s-2.7,1.3-2.7,1.3s-0.4,0.9-1.1,0.9
					c-0.3,0-0.9-0.5-1.8-1c-0.9-0.5-2.1-1-3.5-1c-2.9,0.1-14.7,2.3-14.7,26c0,1.1-0.3,28.1,15.6,28.1C203,92.5,210.6,91.5,212,82.1"
					/>
			</g>
			<g>
				<g>
					<g>
						<g>
							<defs>
								<path id="SVGID_12_" d="M212,82.1v-1.3c0,0,0.2-1.6-1.4-1.6H208c0,0-1.4,0.2-1.8,2.6c-0.4,2.5-0.8,6.5-3.1,6.5
									c-2.3,0-2.7-1.5-2.7-2.9V45.3c0,0,0.5-2.4,2.2-2.4c1.6,0,2.9,1.3,3.7,4.6c0.7,3.4,1.1,6.8,3.5,6.8c2.4,0,2.2-1.9,2.2-1.9
									l-0.8-12.6c0,0-0.2-1.5-1.7-1.5s-2.7,1.3-2.7,1.3s-0.4,0.9-1.1,0.9c-0.3,0-0.9-0.5-1.8-1c-0.9-0.5-2.1-1-3.5-1
									c-2.9,0.1-14.7,2.3-14.7,26c0,1.1-0.3,28.1,15.6,28.1C203,92.5,210.6,91.5,212,82.1"/>
							</defs>
							<clipPath id="SVGID_13_">
								<use xlink:href="#SVGID_12_"  style="overflow:visible;"/>
							</clipPath>
							<rect x="185.4" y="38.2" class="st6" width="26.9" height="54.2"/>
						</g>
					</g>
				</g>
			</g>
		</g>
		<g>
			<g>
				<path id="SVGID_00000018231312537494539510000004072025205614494371_" class="st0" d="M139.5,46.9v12.6c0,4.3-3,5.5-3,5.5h-3.1
					V42.9h1.8C138.9,42.9,139.5,46.9,139.5,46.9 M152.8,91.9c0.7,0,1.5-0.7,1.5-0.7s0-2.2,0-2.6c-0.1-0.3-0.4-0.6-1.1-1.1
					s-0.7-1.1-0.7-1.1V77c0-8.2-9.9-10.2-9.9-10.2c11.5-2.9,10.9-11.7,10.8-12.9c-0.7-13.5-13-14.5-13-14.5h-21.5
					c-1.7,0-1.8,1.2-1.8,1.2s-0.1,1,0,1.8c0.1,0.7,0.9,1.3,1.8,1.6s1.3,1.6,1.3,1.6s0,38.7,0,39.5s-1.3,1.8-2.1,2.1
					c-0.8,0.3-0.7,1.1-0.7,1.1v1.8c0,0.8,1,1.5,1,1.5h15.3c1,0,1.7-0.9,1.7-0.9v-2.3c0,0-0.2-0.7-1-1.2c-0.8-0.5-1.2-1.3-1.2-1.3
					V68.5h2.6c3.1,0,3.4,3.4,3.4,3.4v14.8c0,3.9,3.4,5,3.4,5L152.8,91.9L152.8,91.9L152.8,91.9z"/>
			</g>
			<g>
				<g>
					<g>
						<g>
							<defs>
								<path id="SVGID_14_" d="M139.5,46.9v12.6c0,4.3-3,5.5-3,5.5h-3.1V42.9h1.8C138.9,42.9,139.5,46.9,139.5,46.9 M152.8,91.9
									c0.7,0,1.5-0.7,1.5-0.7s0-2.2,0-2.6c-0.1-0.3-0.4-0.6-1.1-1.1s-0.7-1.1-0.7-1.1V77c0-8.2-9.9-10.2-9.9-10.2
									c11.5-2.9,10.9-11.7,10.8-12.9c-0.7-13.5-13-14.5-13-14.5h-21.5c-1.7,0-1.8,1.2-1.8,1.2s-0.1,1,0,1.8
									c0.1,0.7,0.9,1.3,1.8,1.6s1.3,1.6,1.3,1.6s0,38.7,0,39.5s-1.3,1.8-2.1,2.1c-0.8,0.3-0.7,1.1-0.7,1.1v1.8c0,0.8,1,1.5,1,1.5
									h15.3c1,0,1.7-0.9,1.7-0.9v-2.3c0,0-0.2-0.7-1-1.2c-0.8-0.5-1.2-1.3-1.2-1.3V68.5h2.6c3.1,0,3.4,3.4,3.4,3.4v14.8
									c0,3.9,3.4,5,3.4,5L152.8,91.9L152.8,91.9L152.8,91.9z"/>
							</defs>
							<clipPath id="SVGID_15_">
								<use xlink:href="#SVGID_14_"  style="overflow:visible;"/>
							</clipPath>
							<rect x="117.1" y="39.4" class="st7" width="37.3" height="52.5"/>
						</g>
					</g>
				</g>
			</g>
		</g>
		<g>
			<g>
				<path id="SVGID_00000029033725842427759980000015668811280859902647_" class="st0" d="M392.5,27.1L392.5,27.1
					c1.2,1.1,1.9,2.7,1.9,4.4s-0.7,3.2-1.9,4.4c-1.2,1.1-2.8,1.8-4.6,1.8c-1.8,0-3.5-0.7-4.6-1.8c-1.2-1.1-1.9-2.7-1.9-4.4
					s0.7-3.2,1.9-4.4l0,0c1.2-1.1,2.8-1.8,4.6-1.8C389.7,25.2,391.4,26,392.5,27.1 M393.6,36.8c1.5-1.4,2.3-3.2,2.3-5.3
					s-0.9-4-2.3-5.3l0,0l0,0c-1.5-1.4-3.5-2.2-5.6-2.2c-2.2,0-4.2,0.9-5.7,2.2l0,0c-1.4,1.4-2.3,3.2-2.3,5.3s0.9,4,2.3,5.3
					c1.5,1.4,3.5,2.2,5.7,2.2C390.1,39,392.1,38.1,393.6,36.8"/>
			</g>
			<g>
				<g>
					<g>
						<g>
							<defs>
								<path id="SVGID_16_" d="M392.5,27.1L392.5,27.1c1.2,1.1,1.9,2.7,1.9,4.4s-0.7,3.2-1.9,4.4c-1.2,1.1-2.8,1.8-4.6,1.8
									c-1.8,0-3.5-0.7-4.6-1.8c-1.2-1.1-1.9-2.7-1.9-4.4s0.7-3.2,1.9-4.4l0,0c1.2-1.1,2.8-1.8,4.6-1.8
									C389.7,25.2,391.4,26,392.5,27.1 M393.6,36.8c1.5-1.4,2.3-3.2,2.3-5.3s-0.9-4-2.3-5.3l0,0l0,0c-1.5-1.4-3.5-2.2-5.6-2.2
									c-2.2,0-4.2,0.9-5.7,2.2l0,0c-1.4,1.4-2.3,3.2-2.3,5.3s0.9,4,2.3,5.3c1.5,1.4,3.5,2.2,5.7,2.2
									C390.1,39,392.1,38.1,393.6,36.8"/>
							</defs>
							<clipPath id="SVGID_17_">
								<use xlink:href="#SVGID_16_"  style="overflow:visible;"/>
							</clipPath>
							<rect x="379.9" y="23.9" class="st8" width="16" height="15.1"/>
						</g>
					</g>
				</g>
			</g>
		</g>
		<g>
			<g>
				<path id="SVGID_00000160172448011271135450000014411763774821631907_" class="st0" d="M388.4,28.7c0.3,0.1,0.5,0.1,0.6,0.3
					s0.2,0.4,0.2,0.7c0,0.2-0.1,0.4-0.2,0.6s-0.3,0.3-0.5,0.3s-0.7,0.1-1.6,0.1h-1.3v-2.1h1.4C387.8,28.7,388.3,28.7,388.4,28.7
					 M385.8,35.5v-3.4h0.4c0.4,0,0.7,0,0.9,0.1c0.2,0.1,0.4,0.2,0.5,0.3c0.2,0.2,0.5,0.6,0.9,1.2l1.3,1.8h2.1l-1-1.6
					c-0.4-0.6-0.8-1.1-1-1.3s-0.5-0.5-0.9-0.7c0.8-0.1,1.3-0.4,1.7-0.8c0.4-0.4,0.6-0.9,0.6-1.5c0-0.5-0.1-0.9-0.4-1.3
					c-0.2-0.4-0.6-0.6-1-0.8c-0.4-0.1-1.1-0.2-2-0.2h-3.7v8.2H385.8L385.8,35.5z"/>
			</g>
			<g>
				<g>
					<g>
						<g>
							<defs>
								<path id="SVGID_18_" d="M388.4,28.7c0.3,0.1,0.5,0.1,0.6,0.3s0.2,0.4,0.2,0.7c0,0.2-0.1,0.4-0.2,0.6s-0.3,0.3-0.5,0.3
									s-0.7,0.1-1.6,0.1h-1.3v-2.1h1.4C387.8,28.7,388.3,28.7,388.4,28.7 M385.8,35.5v-3.4h0.4c0.4,0,0.7,0,0.9,0.1
									c0.2,0.1,0.4,0.2,0.5,0.3c0.2,0.2,0.5,0.6,0.9,1.2l1.3,1.8h2.1l-1-1.6c-0.4-0.6-0.8-1.1-1-1.3s-0.5-0.5-0.9-0.7
									c0.8-0.1,1.3-0.4,1.7-0.8c0.4-0.4,0.6-0.9,0.6-1.5c0-0.5-0.1-0.9-0.4-1.3c-0.2-0.4-0.6-0.6-1-0.8c-0.4-0.1-1.1-0.2-2-0.2
									h-3.7v8.2H385.8L385.8,35.5z"/>
							</defs>
							<clipPath id="SVGID_19_">
								<use xlink:href="#SVGID_18_"  style="overflow:visible;"/>
							</clipPath>
							<rect x="384" y="27.3" class="st9" width="7.8" height="8.1"/>
						</g>
					</g>
				</g>
			</g>
		</g>
	</g>
	<g>
		<g>
			<g>
				<path id="SVGID_1_" d="M28.6,7l-1.8,32.2l0.5-0.1c2.9-0.3,5.9-0.4,9.1-0.4h0.5c0,0,0.5,0,1.3,0c5.8,0,26.5,0.7,47.7,9.6l2.2,0.9
					l6.7-32.1v-0.1C94,8.2,71.8,3,70.8,2.7C61.5,0.9,53.5,0,46.9,0C29.4,0.1,28.6,6.7,28.6,7"/>
			</g>
			<g>
				<g>
					<defs>
						<path id="SVGID_20_" d="M28.6,7l-1.8,32.2l0.5-0.1c2.9-0.3,5.9-0.4,9.1-0.4h0.5c0,0,0.5,0,1.3,0c5.8,0,26.5,0.7,47.7,9.6
							l2.2,0.9l6.7-32.1v-0.1C94,8.2,71.8,3,70.8,2.7C61.5,0.9,53.5,0,46.9,0C29.4,0.1,28.6,6.7,28.6,7"/>
					</defs>
					<clipPath id="SVGID_21_">
						<use xlink:href="#SVGID_20_"  style="overflow:visible;"/>
					</clipPath>
					<rect x="26.8" y="0.1" class="st10" width="68.1" height="49.3"/>
				</g>
			</g>
		</g>
		<g>
			<g>
				<path id="SVGID_00000075874219226930941110000008328339621878040216_" d="M42.3,80.2c-0.2,0.6-0.4,1.5-0.6,2.4
					c-0.1,0.4-0.1,0.6,0.3,0.8c0.8,0.5,0.5,1.1,0.4,2c-0.1,1.5-0.3,6.5,0,8.6c0.7,4.1,4.8,6.3,7.7,7c8,1.6,11.7-3.1,14.8-7.9
					c1.1-1.8,2.4-4.1,4-3.8c2.2,0.5,1.5,3,1.6,5c0.4,7.3,2,11.2,8.2,12.4c4.6,0.9,7.7-0.2,10.3-5.1c0.8-1.6,1.6-3.2,2.4-4.9
					c0.4-0.9,0.6-1.9,1.3-1.8c0.1,0,0.4-0.1,0.4-0.4c0.3-1,0.4-1.5,0.6-2.4c0.1-0.5,0.1-0.6-0.3-0.7c-2.2-0.9-7-3-9.4-3.6
					c-3.8-0.9-6.8-0.7-9.4-0.5c-2,0.1-3.7,0.3-5.3-0.1c-3.3-0.8-7.5-4.7-13.4-6.1c-4.5-1.1-11.5-1.5-12.7-1.8c-0.1,0-0.2,0-0.3,0
					C42.6,79.4,42.4,79.7,42.3,80.2"/>
			</g>
			<g>
				<g>
					<defs>
						<path id="SVGID_22_" d="M42.3,80.2c-0.2,0.6-0.4,1.5-0.6,2.4c-0.1,0.4-0.1,0.6,0.3,0.8c0.8,0.5,0.5,1.1,0.4,2
							c-0.1,1.5-0.3,6.5,0,8.6c0.7,4.1,4.8,6.3,7.7,7c8,1.6,11.7-3.1,14.8-7.9c1.1-1.8,2.4-4.1,4-3.8c2.2,0.5,1.5,3,1.6,5
							c0.4,7.3,2,11.2,8.2,12.4c4.6,0.9,7.7-0.2,10.3-5.1c0.8-1.6,1.6-3.2,2.4-4.9c0.4-0.9,0.6-1.9,1.3-1.8c0.1,0,0.4-0.1,0.4-0.4
							c0.3-1,0.4-1.5,0.6-2.4c0.1-0.5,0.1-0.6-0.3-0.7c-2.2-0.9-7-3-9.4-3.6c-3.8-0.9-6.8-0.7-9.4-0.5c-2,0.1-3.7,0.3-5.3-0.1
							c-3.3-0.8-7.5-4.7-13.4-6.1c-4.5-1.1-11.5-1.5-12.7-1.8c-0.1,0-0.2,0-0.3,0C42.6,79.4,42.4,79.7,42.3,80.2"/>
					</defs>
					<clipPath id="SVGID_23_">
						<use xlink:href="#SVGID_22_"  style="overflow:visible;"/>
					</clipPath>
					<rect x="41.6" y="79.4" class="st11" width="52.3" height="28.3"/>
				</g>
			</g>
		</g>
		<g>
			<g>
				<polygon id="SVGID_00000129186925409970494840000001563382952524741517_" points="18,100.2 17.5,108.5 21,100 19.7,96.1 
					16.7,90.6 				"/>
			</g>
			<g>
				<g>
					<defs>
						<polygon id="SVGID_24_" points="18,100.2 17.5,108.5 21,100 19.7,96.1 16.7,90.6 						"/>
					</defs>
					<clipPath id="SVGID_25_">
						<use xlink:href="#SVGID_24_"  style="overflow:visible;"/>
					</clipPath>
					<rect x="16.7" y="90.6" class="st12" width="4.3" height="17.9"/>
				</g>
			</g>
		</g>
		<g>
			<g>
				<polygon id="SVGID_00000167392870758226117840000005832814460748210339_" points="18.2,73.4 16.6,77.7 18.3,75.6 16.8,78.9 
					17.7,84 18,78.9 20.6,74.9 23.9,78.6 23.7,76.3 20.5,73 				"/>
			</g>
			<g>
				<g>
					<defs>
						<polygon id="SVGID_26_" points="18.2,73.4 16.6,77.7 18.3,75.6 16.8,78.9 17.7,84 18,78.9 20.6,74.9 23.9,78.6 23.7,76.3 
							20.5,73 						"/>
					</defs>
					<clipPath id="SVGID_27_">
						<use xlink:href="#SVGID_26_"  style="overflow:visible;"/>
					</clipPath>
					<rect x="16.6" y="73" class="st13" width="7.3" height="11"/>
				</g>
			</g>
		</g>
		<g>
			<g>
				<polygon id="SVGID_00000108995009609253577440000001436607746201011851_" points="22.2,87.2 22.9,90.5 25.2,91.4 23.5,88.7 
					24.4,83.4 				"/>
			</g>
			<g>
				<g>
					<defs>
						<polygon id="SVGID_28_" points="22.2,87.2 22.9,90.5 25.2,91.4 23.5,88.7 24.4,83.4 						"/>
					</defs>
					<clipPath id="SVGID_29_">
						<use xlink:href="#SVGID_28_"  style="overflow:visible;"/>
					</clipPath>
					<rect x="22.2" y="83.4" class="st14" width="3" height="7.9"/>
				</g>
			</g>
		</g>
		<g>
			<g>
				<polygon id="SVGID_00000034802142746152585170000009800837879189668497_" points="18.4,89.1 21.4,92.4 18,86.8 				"/>
			</g>
			<g>
				<g>
					<defs>
						<polygon id="SVGID_30_" points="18.4,89.1 21.4,92.4 18,86.8 						"/>
					</defs>
					<clipPath id="SVGID_31_">
						<use xlink:href="#SVGID_30_"  style="overflow:visible;"/>
					</clipPath>
					<rect x="18" y="86.8" class="st15" width="3.4" height="5.6"/>
				</g>
			</g>
		</g>
		<g>
			<g>
				<polygon id="SVGID_00000180336351426390931140000013354737118888533161_" points="20.6,81.3 18.6,85 20.8,87.9 21.4,84 
					23.7,80.5 				"/>
			</g>
			<g>
				<g>
					<defs>
						<polygon id="SVGID_32_" points="20.6,81.3 18.6,85 20.8,87.9 21.4,84 23.7,80.5 						"/>
					</defs>
					<clipPath id="SVGID_33_">
						<use xlink:href="#SVGID_32_"  style="overflow:visible;"/>
					</clipPath>
					<rect x="18.6" y="80.5" class="st16" width="5.1" height="7.4"/>
				</g>
			</g>
		</g>
		<g>
			<g>
				<polygon id="SVGID_00000106866638883018925210000017311681405032267672_" points="9.1,115.3 26.3,140.8 6.6,119.3 2.7,122.5 
					7.8,134.4 16.3,154.7 23.4,144.9 35.4,156.6 46,162.8 43.1,162.5 57.7,184.4 59.7,182 61.6,166.3 62.7,167.9 59.7,182 
					68.1,168.7 68.2,165 69,162.6 70.5,156.8 65.1,153.6 71,156.1 73.5,150.4 72,149.2 73.5,148.3 64.6,142.4 59.7,144 56.1,145.1 
					53.9,144.3 52.5,148.3 52.5,148.3 50.7,153.5 51.1,154 56.9,160.8 58,169.6 57.3,180.1 54,169.7 54.1,169.8 53.9,169.4 
					53.5,168.3 53.2,167.9 47.3,155 37.4,138.9 37.6,141.6 33.1,137.4 24.8,143 26.3,141 26.4,141 33.1,136.2 37.1,140 35.2,135 
					15,113.6 10.3,112.4 				"/>
			</g>
			<g>
				<g>
					<defs>
						<polygon id="SVGID_34_" points="9.1,115.3 26.3,140.8 6.6,119.3 2.7,122.5 7.8,134.4 16.3,154.7 23.4,144.9 35.4,156.6 
							46,162.8 43.1,162.5 57.7,184.4 59.7,182 61.6,166.3 62.7,167.9 59.7,182 68.1,168.7 68.2,165 69,162.6 70.5,156.8 
							65.1,153.6 71,156.1 73.5,150.4 72,149.2 73.5,148.3 64.6,142.4 59.7,144 56.1,145.1 53.9,144.3 52.5,148.3 52.5,148.3 
							50.7,153.5 51.1,154 56.9,160.8 58,169.6 57.3,180.1 54,169.7 54.1,169.8 53.9,169.4 53.5,168.3 53.2,167.9 47.3,155 
							37.4,138.9 37.6,141.6 33.1,137.4 24.8,143 26.3,141 26.4,141 33.1,136.2 37.1,140 35.2,135 15,113.6 10.3,112.4 						"/>
					</defs>
					<clipPath id="SVGID_35_">
						<use xlink:href="#SVGID_34_"  style="overflow:visible;"/>
					</clipPath>
					<rect x="2.7" y="112.4" class="st17" width="70.8" height="72"/>
				</g>
			</g>
		</g>
		<g>
			<g>
				<path id="SVGID_00000075159845093964625190000017583563343914761092_" d="M87.8,84.2l0.9-2.7C88.3,82.5,88,83.4,87.8,84.2
					L87.8,84.2z M37,40.2h-0.5c-13.8,0-31.3,2.3-36.1,13.3c-0.8,3.2-0.2,6.1,1.1,8.6c4,7.7,15,12.4,15.6,12.6l0.4,0.1l0.1-0.4
					c0.3-0.9,0.2-2,0.1-3.2l1.3-1.5l0.2-0.1l2.2-0.2l5.7,8.8l-2.1,24.9v11.3l6,10.1l13.5,13.8l11.8,5.9l6.9-2.2l9.4-11.7l7.5-20
					l-7.2,13.7l-0.6-4.7l-6.9-5.5l-1,4.9l5.1,4.4l-1.7,5.3l-3.4,4.5l-2.1,0.4l1.1-2.7l0.2-3.2l-8.8-1.8v2.7l-1.1,2.5l-3,1.2l-4-7.7
					l1.3-5.1l13.7-1.2l1.1-4.9L48.9,113l-3.2,2.4l-2.5,4.4l-2,1.5l-0.4-8.9l-8.9-10.2l-1.5-12.4l3.1-11.8l7.7,4.7l0.9-3.7l-7.7-3.9
					l3-1.1l3.5-1.3l3.2-1.1l-14.6-8.2l0.9-0.6l12.2,7.1l-4.1-5.1l0.2-0.9l-5.2-3l7-4.1l0.4-0.5c0.6,0,1.1,0,1.3,0l0,0
					c8.2,0.1,15,1,20.7,2.2l8.7,7l5.3-2.5c7.7,3.6,10.8,7.2,10.9,7.3l0,0l0.4,3.1l-1.5,8v4V86l0,0v1l-0.2,0.5l0.2-0.1v0.1l0.1-0.1
					l0.6-0.1c0.1,0,0.3-0.1,0.4-0.1l1.6,1.9l4.6,2L90.2,87c14.7-3.7,17.2-10.1,17.4-10.9c0.1-0.2,0.2-0.4,0.3-0.6
					c0.1-0.1,0.1-0.3,0.2-0.4c0.1-0.2,0.2-0.4,0.3-0.6c0.1-0.1,0.1-0.3,0.1-0.4c0.1-0.2,0.1-0.4,0.2-0.6c0.1-0.1,0.1-0.3,0.1-0.4
					c0.1-0.2,0.1-0.4,0.1-0.6c0-0.1,0.1-0.3,0.1-0.4c0-0.2,0.1-0.4,0.1-0.6c0-0.1,0.1-0.4,0.1-0.5c0-0.1,0-0.4,0-0.5
					c0-0.2,0-0.4,0-0.6c0-0.1,0-0.3-0.1-0.4c0-0.2-0.1-0.4-0.1-0.6c-0.1-0.4-0.1-0.7-0.3-1.1c-2.6-8.9-16.7-15.5-17.3-15.8
					C68.5,40.8,45,40,38.3,40C37.5,40.2,37,40.2,37,40.2"/>
			</g>
			<g>
				<g>
					<defs>
						<path id="SVGID_36_" d="M87.8,84.2l0.9-2.7C88.3,82.5,88,83.4,87.8,84.2L87.8,84.2z M37,40.2h-0.5c-13.8,0-31.3,2.3-36.1,13.3
							c-0.8,3.2-0.2,6.1,1.1,8.6c4,7.7,15,12.4,15.6,12.6l0.4,0.1l0.1-0.4c0.3-0.9,0.2-2,0.1-3.2l1.3-1.5l0.2-0.1l2.2-0.2l5.7,8.8
							l-2.1,24.9v11.3l6,10.1l13.5,13.8l11.8,5.9l6.9-2.2l9.4-11.7l7.5-20l-7.2,13.7l-0.6-4.7l-6.9-5.5l-1,4.9l5.1,4.4l-1.7,5.3
							l-3.4,4.5l-2.1,0.4l1.1-2.7l0.2-3.2l-8.8-1.8v2.7l-1.1,2.5l-3,1.2l-4-7.7l1.3-5.1l13.7-1.2l1.1-4.9L48.9,113l-3.2,2.4
							l-2.5,4.4l-2,1.5l-0.4-8.9l-8.9-10.2l-1.5-12.4l3.1-11.8l7.7,4.7l0.9-3.7l-7.7-3.9l3-1.1l3.5-1.3l3.2-1.1l-14.6-8.2l0.9-0.6
							l12.2,7.1l-4.1-5.1l0.2-0.9l-5.2-3l7-4.1l0.4-0.5c0.6,0,1.1,0,1.3,0l0,0c8.2,0.1,15,1,20.7,2.2l8.7,7l5.3-2.5
							c7.7,3.6,10.8,7.2,10.9,7.3l0,0l0.4,3.1l-1.5,8v4V86l0,0v1l-0.2,0.5l0.2-0.1v0.1l0.1-0.1l0.6-0.1c0.1,0,0.3-0.1,0.4-0.1
							l1.6,1.9l4.6,2L90.2,87c14.7-3.7,17.2-10.1,17.4-10.9c0.1-0.2,0.2-0.4,0.3-0.6c0.1-0.1,0.1-0.3,0.2-0.4
							c0.1-0.2,0.2-0.4,0.3-0.6c0.1-0.1,0.1-0.3,0.1-0.4c0.1-0.2,0.1-0.4,0.2-0.6c0.1-0.1,0.1-0.3,0.1-0.4c0.1-0.2,0.1-0.4,0.1-0.6
							c0-0.1,0.1-0.3,0.1-0.4c0-0.2,0.1-0.4,0.1-0.6c0-0.1,0.1-0.4,0.1-0.5c0-0.1,0-0.4,0-0.5c0-0.2,0-0.4,0-0.6
							c0-0.1,0-0.3-0.1-0.4c0-0.2-0.1-0.4-0.1-0.6c-0.1-0.4-0.1-0.7-0.3-1.1c-2.6-8.9-16.7-15.5-17.3-15.8C68.5,40.8,45,40,38.3,40
							C37.5,40.2,37,40.2,37,40.2"/>
					</defs>
					<clipPath id="SVGID_37_">
						<use xlink:href="#SVGID_36_"  style="overflow:visible;"/>
					</clipPath>
					<rect x="-0.4" y="40.2" class="st18" width="109.7" height="104"/>
				</g>
			</g>
		</g>
	</g>
</g>
</svg>
