<?xml version="1.0" encoding="utf-8"?>
<!-- Generator: Adobe Illustrator 23.0.5, SVG Export Plug-In . SVG Version: 6.00 Build 0)  -->
<svg version="1.1" id="Layer_1" xmlns="http://www.w3.org/2000/svg" xmlns:xlink="http://www.w3.org/1999/xlink" x="0px" y="0px"
	 width="395.9px" height="184.4px" viewBox="0 0 395.9 184.4" style="enable-background:new 0 0 395.9 184.4;" xml:space="preserve"
	>
<style type="text/css">
	.st0{clip-path:url(#SVGID_26_);}
	.st1{clip-path:url(#SVGID_28_);}
	.st2{clip-path:url(#SVGID_30_);}
	.st3{clip-path:url(#SVGID_32_);}
	.st4{clip-path:url(#SVGID_34_);}
	.st5{clip-path:url(#SVGID_36_);}
	.st6{clip-path:url(#SVGID_38_);}
	.st7{clip-path:url(#SVGID_40_);}
	.st8{clip-path:url(#SVGID_42_);}
	.st9{clip-path:url(#SVGID_44_);}
	.st10{clip-path:url(#SVGID_46_);}
	.st11{clip-path:url(#SVGID_48_);}
	.st12{clip-path:url(#SVGID_50_);}
	.st13{clip-path:url(#SVGID_52_);}
	.st14{clip-path:url(#SVGID_54_);}
	.st15{clip-path:url(#SVGID_56_);}
	.st16{clip-path:url(#SVGID_58_);}
	.st17{clip-path:url(#SVGID_60_);}
	.st18{clip-path:url(#SVGID_62_);}
	.st19{clip-path:url(#SVGID_64_);}
	.st20{clip-path:url(#SVGID_66_);}
	.st21{clip-path:url(#SVGID_68_);}
	.st22{clip-path:url(#SVGID_70_);}
	.st23{fill:#060001;}
	.st24{clip-path:url(#SVGID_72_);fill:#060001;}
	.st25{clip-path:url(#SVGID_74_);fill:#060001;}
	.st26{clip-path:url(#SVGID_76_);fill:#060001;}
	.st27{clip-path:url(#SVGID_78_);fill:#060001;}
	.st28{clip-path:url(#SVGID_80_);fill:#060001;}
	.st29{clip-path:url(#SVGID_82_);fill:#060001;}
	.st30{clip-path:url(#SVGID_84_);fill:#060001;}
	.st31{clip-path:url(#SVGID_86_);fill:#060001;}
	.st32{clip-path:url(#SVGID_88_);fill:#060001;}
	.st33{clip-path:url(#SVGID_90_);}
	.st34{clip-path:url(#SVGID_92_);}
	.st35{clip-path:url(#SVGID_94_);}
	.st36{clip-path:url(#SVGID_96_);}
	.st37{clip-path:url(#SVGID_98_);}
	.st38{clip-path:url(#SVGID_100_);}
	.st39{clip-path:url(#SVGID_102_);}
	.st40{clip-path:url(#SVGID_104_);}
	.st41{clip-path:url(#SVGID_106_);}
</style>
<g>
	<g>
		<g>
			<g>
				<g>
					<g>
						<g>
							<g>
								<path id="SVGID_25_" d="M130.5,106.1v1.8l2.7-0.1c4.5-0.1,5.1,5.2,5.1,5.2s0.1,49.1-0.1,53.5c-0.1,4.5-3.8,5.2-3.8,5.2
									l-4,0.1l0.3,1.8l43.4,0.1l4.7-15.7l-2.1-0.4c0,0-1.4,4.1-4.1,7.8c-2.7,3.5-6.1,4.1-6.1,4.1s-14.1-0.1-16.8-0.1
									c-2.7-0.1-2.5-3.1-2.5-3.1s0.1-48.5,0-53.4s8.9-4.8,8.9-4.8v-1.8H130.5L130.5,106.1z"/>
							</g>
							<g>
								<g>
									<defs>
										<path id="SVGID_1_" d="M130.5,106.1v1.8l2.7-0.1c4.5-0.1,5.1,5.2,5.1,5.2s0.1,49.1-0.1,53.5c-0.1,4.5-3.8,5.2-3.8,5.2
											l-4,0.1l0.3,1.8l43.4,0.1l4.7-15.7l-2.1-0.4c0,0-1.4,4.1-4.1,7.8c-2.7,3.5-6.1,4.1-6.1,4.1s-14.1-0.1-16.8-0.1
											c-2.7-0.1-2.5-3.1-2.5-3.1s0.1-48.5,0-53.4s8.9-4.8,8.9-4.8v-1.8H130.5L130.5,106.1z"/>
									</defs>
									<clipPath id="SVGID_26_">
										<use xlink:href="#SVGID_1_"  style="overflow:visible;"/>
									</clipPath>
									<polygon class="st0" points="98.2,134.4 158.4,81.4 210.9,145.2 150.7,198.1 									"/>
								</g>
							</g>
						</g>
					</g>
				</g>
			</g>
		</g>
		<g>
			<g>
				<g>
					<g>
						<g>
							<g>
								<path id="SVGID_24_" d="M167.1,127.4h-12.4c-1.1,0.4-0.1,1.4-0.1,1.4s1,0,2.3,0.1c1.3,0.1,1.6,1.5,1.6,1.5
									s0.1,11.5,0.3,16.6c0.1,5.1,3,9.7,13,9.7c11.4-0.1,10.9-10.9,10.9-10.9s0.2-7.8,0-12.6c-0.1-4.8,2.2-4.5,2.2-4.5h1.7v-1
									h-10.9v1.3c0,0,1-0.1,2.5,0s1.7,1.7,1.7,1.7s0.1,9.7,0,15.1c-0.1,5.5-1.8,8.2-9.2,8.6c-7.6,0.1-7-7.8-7-7.8s0.1-10.3,0-14
									c-0.1-3.7,2.1-3.8,2.1-3.8s1.4-0.1,1.8-0.1c0.3,0,0.4-0.1,0.4-0.7C168,127.4,167.3,127.4,167.1,127.4L167.1,127.4"/>
							</g>
							<g>
								<g>
									<defs>
										<path id="SVGID_27_" d="M167.1,127.4h-12.4c-1.1,0.4-0.1,1.4-0.1,1.4s1,0,2.3,0.1c1.3,0.1,1.6,1.5,1.6,1.5
											s0.1,11.5,0.3,16.6c0.1,5.1,3,9.7,13,9.7c11.4-0.1,10.9-10.9,10.9-10.9s0.2-7.8,0-12.6c-0.1-4.8,2.2-4.5,2.2-4.5h1.7v-1
											h-10.9v1.3c0,0,1-0.1,2.5,0s1.7,1.7,1.7,1.7s0.1,9.7,0,15.1c-0.1,5.5-1.8,8.2-9.2,8.6c-7.6,0.1-7-7.8-7-7.8s0.1-10.3,0-14
											c-0.1-3.7,2.1-3.8,2.1-3.8s1.4-0.1,1.8-0.1c0.3,0,0.4-0.1,0.4-0.7C168,127.4,167.3,127.4,167.1,127.4L167.1,127.4"/>
									</defs>
									<clipPath id="SVGID_28_">
										<use xlink:href="#SVGID_27_"  style="overflow:visible;"/>
									</clipPath>
									<rect x="153.6" y="127.4" class="st1" width="33" height="29.2"/>
								</g>
							</g>
						</g>
					</g>
				</g>
			</g>
		</g>
		<g>
			<g>
				<g>
					<g>
						<g>
							<g>
								<path id="SVGID_23_" d="M207.3,127.3v1.2h2c0,0,2.4,0.7,0.4,2.9c-2,2.1-5.6,6.7-5.6,6.7L199,131c0,0-0.5-2,1.3-2
									c1.9,0,2-1.6,0.5-1.6c-1.4,0-13.2,0.1-13.2,0.1s-0.5,0.6,0.1,1c0,0,2.9-0.4,5.1,1.8c2.3,2.5,8.4,11,8.4,11s-7.8,10-9.2,11.1
									c-1.3,1.1-2.4,1.3-3.4,1.6c-1,0.4-1.8,0.5-1.7,1.1c0.1,0.6,0.7,0.7,1.4,0.6c0.7-0.1,9.6,0,9.6,0v-1.3c0,0-3.9,0.3-2.1-2.5
									c1.8-2.8,6.7-8.2,6.7-8.2l6.2,8.9c0,0,0.2,1.3-0.7,1.4c-1,0.1-2,0.4-2,0.4s-0.7,1.1,0.4,1.3c1.2,0.1,12.5,0,12.5,0
									s0.6-1.2-0.2-1.2s-3.6-1-4.7-2.9c-1.2-1.8-8.3-11.7-8.3-11.7s7.6-9.2,8.4-9.8c0.8-0.6,1.9-1.5,3-1.6c1-0.1,1.7-0.1,1.7-0.1
									v-1.1c0,0-0.4-0.3-1-0.3L207.3,127.3L207.3,127.3z"/>
							</g>
							<g>
								<g>
									<defs>
										<path id="SVGID_29_" d="M207.3,127.3v1.2h2c0,0,2.4,0.7,0.4,2.9c-2,2.1-5.6,6.7-5.6,6.7L199,131c0,0-0.5-2,1.3-2
											c1.9,0,2-1.6,0.5-1.6c-1.4,0-13.2,0.1-13.2,0.1s-0.5,0.6,0.1,1c0,0,2.9-0.4,5.1,1.8c2.3,2.5,8.4,11,8.4,11
											s-7.8,10-9.2,11.1c-1.3,1.1-2.4,1.3-3.4,1.6c-1,0.4-1.8,0.5-1.7,1.1c0.1,0.6,0.7,0.7,1.4,0.6c0.7-0.1,9.6,0,9.6,0v-1.3
											c0,0-3.9,0.3-2.1-2.5c1.8-2.8,6.7-8.2,6.7-8.2l6.2,8.9c0,0,0.2,1.3-0.7,1.4c-1,0.1-2,0.4-2,0.4s-0.7,1.1,0.4,1.3
											c1.2,0.1,12.5,0,12.5,0s0.6-1.2-0.2-1.2s-3.6-1-4.7-2.9c-1.2-1.8-8.3-11.7-8.3-11.7s7.6-9.2,8.4-9.8
											c0.8-0.6,1.9-1.5,3-1.6c1-0.1,1.7-0.1,1.7-0.1v-1.1c0,0-0.4-0.3-1-0.3L207.3,127.3L207.3,127.3z"/>
									</defs>
									<clipPath id="SVGID_30_">
										<use xlink:href="#SVGID_29_"  style="overflow:visible;"/>
									</clipPath>
									<rect x="186.8" y="127.3" class="st2" width="32.7" height="28.7"/>
								</g>
							</g>
						</g>
					</g>
				</g>
			</g>
		</g>
		<g>
			<g>
				<g>
					<g>
						<g>
							<g>
								<path id="SVGID_22_" d="M219.4,127.4l-0.1,1.3c0,0,1,0,2.7,0.1c1.6,0.1,1.6,2.2,1.6,2.2s0.2,8.4,0.3,15.2
									c0.1,6.8,4.9,10.9,14.5,10.3c9.7-0.9,9.2-9.8,9.2-9.8s0.1-10.3,0-14c-0.1-3.7,1.9-4.1,1.9-4.1h2.3v-1h-11.1v1.2
									c0,0,1.5-0.1,2.7,0c1.3,0.1,1.4,1.5,1.4,1.5s-0.1,10.8,0,15.1s-1.8,8.1-9,8.6c-7.3,0.2-7-7.4-7-7.4s-0.1-12.3,0-15.3
									c0.2-3,4.1-2.7,4.1-2.7v-1.3L219.4,127.4L219.4,127.4L219.4,127.4z"/>
							</g>
							<g>
								<g>
									<defs>
										<path id="SVGID_31_" d="M219.4,127.4l-0.1,1.3c0,0,1,0,2.7,0.1c1.6,0.1,1.6,2.2,1.6,2.2s0.2,8.4,0.3,15.2
											c0.1,6.8,4.9,10.9,14.5,10.3c9.7-0.9,9.2-9.8,9.2-9.8s0.1-10.3,0-14c-0.1-3.7,1.9-4.1,1.9-4.1h2.3v-1h-11.1v1.2
											c0,0,1.5-0.1,2.7,0c1.3,0.1,1.4,1.5,1.4,1.5s-0.1,10.8,0,15.1s-1.8,8.1-9,8.6c-7.3,0.2-7-7.4-7-7.4s-0.1-12.3,0-15.3
											c0.2-3,4.1-2.7,4.1-2.7v-1.3L219.4,127.4L219.4,127.4L219.4,127.4z"/>
									</defs>
									<clipPath id="SVGID_32_">
										<use xlink:href="#SVGID_31_"  style="overflow:visible;"/>
									</clipPath>
									<rect x="219.4" y="127.4" class="st3" width="32.4" height="29.8"/>
								</g>
							</g>
						</g>
					</g>
				</g>
			</g>
		</g>
		<g>
			<g>
				<g>
					<g>
						<g>
							<g>
								<path id="SVGID_21_" d="M261.8,129.7c6.6-1.2,8.8,0.8,9.1,5.1c0,6.1-9.1,6.3-9.1,6.3V129.7z M252.6,128
									c0.1,0.7,0.7,0.6,2.3,0.7c1.6,0.1,2,1.5,2,1.5v20.9c0,2.9-2.3,3.5-3.6,3.6s-1,1.3-1,1.3h13c0,0,0.6,0.1,0.7-0.2
									c0.1-0.3,0.1-1.3-2-1.3c-2.1-0.1-2.4-2.2-2.4-2.2v-9.6l2.5,0.1l10.6,13.2h7.5c0.4,0,0.4-0.2,0.4-0.6c-0.1-0.4-1-0.9-2.1-1.2
									c-1.2-0.2-2.4-0.4-3.4-1.7c-1-1.3-6-7.1-8.1-10.3c2.9-0.7,7.1-2.1,6.9-7.2c-0.3-7.4-8.8-7.5-8.8-7.5h-14.3c0,0-0.1,0-0.1,0
									C252.9,127.4,252.5,127.5,252.6,128"/>
							</g>
							<g>
								<g>
									<defs>
										<path id="SVGID_33_" d="M261.8,129.7c6.6-1.2,8.8,0.8,9.1,5.1c0,6.1-9.1,6.3-9.1,6.3V129.7z M252.6,128
											c0.1,0.7,0.7,0.6,2.3,0.7c1.6,0.1,2,1.5,2,1.5v20.9c0,2.9-2.3,3.5-3.6,3.6s-1,1.3-1,1.3h13c0,0,0.6,0.1,0.7-0.2
											c0.1-0.3,0.1-1.3-2-1.3c-2.1-0.1-2.4-2.2-2.4-2.2v-9.6l2.5,0.1l10.6,13.2h7.5c0.4,0,0.4-0.2,0.4-0.6
											c-0.1-0.4-1-0.9-2.1-1.2c-1.2-0.2-2.4-0.4-3.4-1.7c-1-1.3-6-7.1-8.1-10.3c2.9-0.7,7.1-2.1,6.9-7.2
											c-0.3-7.4-8.8-7.5-8.8-7.5h-14.3c0,0-0.1,0-0.1,0C252.9,127.4,252.5,127.5,252.6,128"/>
									</defs>
									<clipPath id="SVGID_34_">
										<use xlink:href="#SVGID_33_"  style="overflow:visible;"/>
									</clipPath>
									<rect x="251.9" y="127.4" class="st4" width="31" height="28.5"/>
								</g>
							</g>
						</g>
					</g>
				</g>
			</g>
		</g>
		<g>
			<g>
				<g>
					<g>
						<g>
							<g>
								<path id="SVGID_20_" d="M262,106.1l-0.1,1.8c0,0,2.1,0.1,3.8,0.8c1.7,0.7,3.5,2.4,3.5,2.4l18.3,29v26c0,4.8-4.6,5.7-6.2,5.7
									c-1.6,0-2.1-0.1-2.1,1c0,1.1,0.9,0.5,0.9,0.5h23.6v-1.7l-3.7-0.2c-3.7-0.2-3.9-5.2-3.9-5.2v-26.8c0,0,10.6-17.5,15.4-24.8
									c4.8-7.3,10-6.7,10-6.7v-2h-20.1v1.7c0,0,1-0.1,3.6,1c2.8,1.3,1.8,4.5,1.8,4.5l-13,21.7c0,0-10.7-16.9-13.3-21.9
									c-2.5-5.1,6.1-4.9,6.1-4.9l-0.1-2.1L262,106.1z"/>
							</g>
							<g>
								<g>
									<defs>
										<path id="SVGID_35_" d="M262,106.1l-0.1,1.8c0,0,2.1,0.1,3.8,0.8c1.7,0.7,3.5,2.4,3.5,2.4l18.3,29v26
											c0,4.8-4.6,5.7-6.2,5.7c-1.6,0-2.1-0.1-2.1,1c0,1.1,0.9,0.5,0.9,0.5h23.6v-1.7l-3.7-0.2c-3.7-0.2-3.9-5.2-3.9-5.2v-26.8
											c0,0,10.6-17.5,15.4-24.8c4.8-7.3,10-6.7,10-6.7v-2h-20.1v1.7c0,0,1-0.1,3.6,1c2.8,1.3,1.8,4.5,1.8,4.5l-13,21.7
											c0,0-10.7-16.9-13.3-21.9c-2.5-5.1,6.1-4.9,6.1-4.9l-0.1-2.1L262,106.1z"/>
									</defs>
									<clipPath id="SVGID_36_">
										<use xlink:href="#SVGID_35_"  style="overflow:visible;"/>
									</clipPath>
									<rect x="261.8" y="105.9" class="st5" width="59.6" height="68.1"/>
								</g>
							</g>
						</g>
					</g>
				</g>
			</g>
		</g>
		<g>
			<g>
				<g>
					<g>
						<g>
							<g>
								<rect id="SVGID_19_" x="182.9" y="162.5" width="88" height="0.7"/>
							</g>
							<g>
								<g>
									<defs>
										<rect id="SVGID_37_" x="182.9" y="162.5" width="88" height="0.7"/>
									</defs>
									<clipPath id="SVGID_38_">
										<use xlink:href="#SVGID_37_"  style="overflow:visible;"/>
									</clipPath>
									<rect x="182.9" y="162.5" class="st6" width="88" height="0.7"/>
								</g>
							</g>
						</g>
					</g>
				</g>
			</g>
		</g>
		<g>
			<g>
				<g>
					<g>
						<g>
							<g>
								<path id="SVGID_18_" d="M182.8,166.4v0.2c0.7,0,1,0.2,1,0.7v4.4c0.1,0.4-0.3,0.7-1,0.7v0.2h3.9v-0.2c-0.9,0-1.3-0.2-1.2-0.7
									v-2.1c1,0,1.6,0.4,1.6,1.4h0.3v-3h-0.3c-0.1,1-0.7,1.4-1.6,1.3v-2.1c-0.1-0.3,0.2-0.4,0.8-0.4c1.5-0.1,2.2,0.4,2.4,1.5h0.2
									v-1.8L182.8,166.4L182.8,166.4z"/>
							</g>
							<g>
								<g>
									<defs>
										<path id="SVGID_39_" d="M182.8,166.4v0.2c0.7,0,1,0.2,1,0.7v4.4c0.1,0.4-0.3,0.7-1,0.7v0.2h3.9v-0.2
											c-0.9,0-1.3-0.2-1.2-0.7v-2.1c1,0,1.6,0.4,1.6,1.4h0.3v-3h-0.3c-0.1,1-0.7,1.4-1.6,1.3v-2.1c-0.1-0.3,0.2-0.4,0.8-0.4
											c1.5-0.1,2.2,0.4,2.4,1.5h0.2v-1.8L182.8,166.4L182.8,166.4z"/>
									</defs>
									<clipPath id="SVGID_40_">
										<use xlink:href="#SVGID_39_"  style="overflow:visible;"/>
									</clipPath>
									<rect x="182.8" y="166.4" class="st7" width="6.1" height="6.1"/>
								</g>
							</g>
						</g>
					</g>
				</g>
			</g>
		</g>
		<g>
			<g>
				<g>
					<g>
						<g>
							<g>
								<path id="SVGID_17_" d="M192.8,170.5c0,1.3-0.2,2-0.8,1.9c-0.7,0.1-1-0.6-0.9-1.9c-0.1-1.3,0.2-2,0.9-1.9
									C192.5,168.5,192.8,169.2,192.8,170.5 M189.5,170.5c0.1,1.4,1,2.1,2.4,2.1c1.5-0.1,2.3-0.7,2.4-2.1c-0.1-1.3-1-2.1-2.4-2.2
									C190.4,168.4,189.6,169.2,189.5,170.5"/>
							</g>
							<g>
								<g>
									<defs>
										<path id="SVGID_41_" d="M192.8,170.5c0,1.3-0.2,2-0.8,1.9c-0.7,0.1-1-0.6-0.9-1.9c-0.1-1.3,0.2-2,0.9-1.9
											C192.5,168.5,192.8,169.2,192.8,170.5 M189.5,170.5c0.1,1.4,1,2.1,2.4,2.1c1.5-0.1,2.3-0.7,2.4-2.1
											c-0.1-1.3-1-2.1-2.4-2.2C190.4,168.4,189.6,169.2,189.5,170.5"/>
									</defs>
									<clipPath id="SVGID_42_">
										<use xlink:href="#SVGID_41_"  style="overflow:visible;"/>
									</clipPath>
									<rect x="189.5" y="168.3" class="st8" width="5" height="4.4"/>
								</g>
							</g>
						</g>
					</g>
				</g>
			</g>
		</g>
		<g>
			<g>
				<g>
					<g>
						<g>
							<g>
								<path id="SVGID_16_" d="M197,169.1v-0.7H195v0.2c0.4,0,0.6,0.2,0.6,0.5v2.7c0,0.4-0.1,0.5-0.6,0.6v0.2h3v-0.2
									c-0.6,0-0.9-0.2-0.8-0.7v-1.7c0-0.4,0.2-0.7,0.7-0.9c0.1,0,0.1,0.1,0.3,0.2c0.2,0.2,0.4,0.3,0.7,0.3c0.4,0,0.7-0.2,0.7-0.6
									c-0.1-0.4-0.4-0.7-0.9-0.7C198,168.3,197.5,168.6,197,169.1"/>
							</g>
							<g>
								<g>
									<defs>
										<path id="SVGID_43_" d="M197,169.1v-0.7H195v0.2c0.4,0,0.6,0.2,0.6,0.5v2.7c0,0.4-0.1,0.5-0.6,0.6v0.2h3v-0.2
											c-0.6,0-0.9-0.2-0.8-0.7v-1.7c0-0.4,0.2-0.7,0.7-0.9c0.1,0,0.1,0.1,0.3,0.2c0.2,0.2,0.4,0.3,0.7,0.3
											c0.4,0,0.7-0.2,0.7-0.6c-0.1-0.4-0.4-0.7-0.9-0.7C198,168.3,197.5,168.6,197,169.1"/>
									</defs>
									<clipPath id="SVGID_44_">
										<use xlink:href="#SVGID_43_"  style="overflow:visible;"/>
									</clipPath>
									<rect x="195" y="168.3" class="st9" width="4.4" height="4.3"/>
								</g>
							</g>
						</g>
					</g>
				</g>
			</g>
		</g>
		<g>
			<g>
				<g>
					<g>
						<g>
							<g>
								<path id="SVGID_15_" d="M202.4,166.4v0.2c0.7,0,1,0.2,1,0.7v4.4c0.1,0.4-0.3,0.7-1,0.7v0.2h6.4l0.4-1.8h-0.3
									c-0.5,1.1-1.5,1.6-2.9,1.6c-0.7,0.1-1-0.1-1-0.5v-2.2c1-0.1,1.7,0.4,1.8,1.4h0.2v-3h-0.2c-0.1,1-0.7,1.4-1.8,1.3v-2.1
									c-0.1-0.3,0.2-0.4,0.8-0.4c1.6-0.1,2.4,0.4,2.4,1.5h0.3v-1.8L202.4,166.4L202.4,166.4z"/>
							</g>
							<g>
								<g>
									<defs>
										<path id="SVGID_45_" d="M202.4,166.4v0.2c0.7,0,1,0.2,1,0.7v4.4c0.1,0.4-0.3,0.7-1,0.7v0.2h6.4l0.4-1.8h-0.3
											c-0.5,1.1-1.5,1.6-2.9,1.6c-0.7,0.1-1-0.1-1-0.5v-2.2c1-0.1,1.7,0.4,1.8,1.4h0.2v-3h-0.2c-0.1,1-0.7,1.4-1.8,1.3v-2.1
											c-0.1-0.3,0.2-0.4,0.8-0.4c1.6-0.1,2.4,0.4,2.4,1.5h0.3v-1.8L202.4,166.4L202.4,166.4z"/>
									</defs>
									<clipPath id="SVGID_46_">
										<use xlink:href="#SVGID_45_"  style="overflow:visible;"/>
									</clipPath>
									<rect x="202.4" y="166.4" class="st10" width="6.8" height="6.1"/>
								</g>
							</g>
						</g>
					</g>
				</g>
			</g>
		</g>
		<g>
			<g>
				<g>
					<g>
						<g>
							<g>
								<path id="SVGID_14_" d="M209.5,166.4v0.2c0.4,0,0.5,0.2,0.5,0.5v4.6c0,0.4-0.2,0.6-0.5,0.6v0.2h2.6v-0.2
									c-0.4,0-0.5-0.1-0.5-0.6v-5.3H209.5z"/>
							</g>
							<g>
								<g>
									<defs>
										<path id="SVGID_47_" d="M209.5,166.4v0.2c0.4,0,0.5,0.2,0.5,0.5v4.6c0,0.4-0.2,0.6-0.5,0.6v0.2h2.6v-0.2
											c-0.4,0-0.5-0.1-0.5-0.6v-5.3H209.5z"/>
									</defs>
									<clipPath id="SVGID_48_">
										<use xlink:href="#SVGID_47_"  style="overflow:visible;"/>
									</clipPath>
									<rect x="209.5" y="166.4" class="st11" width="2.6" height="6.1"/>
								</g>
							</g>
						</g>
					</g>
				</g>
			</g>
		</g>
		<g>
			<g>
				<g>
					<g>
						<g>
							<g>
								<path id="SVGID_13_" d="M214.9,168.6c0.3,0,0.4,0.1,0.6,0.4c0.1,0.2,0.1,0.5,0.1,1h-1.5C214.2,169,214.4,168.6,214.9,168.6
									 M212.6,170.5c0,1.4,0.7,2.1,2.2,2.1c0.8,0,1.6-0.3,2.1-1l-0.2-0.1c-0.4,0.4-0.8,0.6-1.3,0.6c-0.8,0-1.3-0.6-1.3-1.7h2.7
									c-0.1-1.3-0.8-2-2.1-2.1C213.5,168.4,212.7,169.2,212.6,170.5"/>
							</g>
							<g>
								<g>
									<defs>
										<path id="SVGID_49_" d="M214.9,168.6c0.3,0,0.4,0.1,0.6,0.4c0.1,0.2,0.1,0.5,0.1,1h-1.5
											C214.2,169,214.4,168.6,214.9,168.6 M212.6,170.5c0,1.4,0.7,2.1,2.2,2.1c0.8,0,1.6-0.3,2.1-1l-0.2-0.1
											c-0.4,0.4-0.8,0.6-1.3,0.6c-0.8,0-1.3-0.6-1.3-1.7h2.7c-0.1-1.3-0.8-2-2.1-2.1C213.5,168.4,212.7,169.2,212.6,170.5"/>
									</defs>
									<clipPath id="SVGID_50_">
										<use xlink:href="#SVGID_49_"  style="overflow:visible;"/>
									</clipPath>
									<rect x="212.6" y="168.3" class="st12" width="4.4" height="4.4"/>
								</g>
							</g>
						</g>
					</g>
				</g>
			</g>
		</g>
		<g>
			<g>
				<g>
					<g>
						<g>
							<g>
								<path id="SVGID_12_" d="M218.5,173.5c0-0.2,0.1-0.4,0.4-0.5h1.8c0.5,0,0.8,0.1,0.9,0.4c0,0.4-0.6,0.7-1.8,0.7
									C218.9,174.1,218.5,173.8,218.5,173.5 M219.1,169.8c-0.1-0.8,0.1-1.2,0.7-1.2c0.4,0,0.7,0.4,0.7,1.2c0,0.8-0.2,1.2-0.7,1.2
									h-0.1C219.3,171,219.1,170.5,219.1,169.8 M217.6,169.8c0,0.7,0.4,1.1,1.3,1.4c-0.8,0.2-1.3,0.6-1.3,1c0,0.4,0.2,0.6,0.9,0.7
									c-0.7,0.1-1,0.3-1,0.7c0,0.5,0.7,0.8,2.1,0.9c1.8,0,2.7-0.5,2.8-1.4c0-0.7-0.6-1-1.8-1h-0.7c-0.9,0-1.2-0.1-1.1-0.4
									c0-0.2,0.2-0.4,0.7-0.4c0.8,0,1.3,0,1.3-0.1c0.7-0.2,1.1-0.6,1.2-1.3c0-0.3-0.1-0.6-0.4-0.8l-0.1-0.1h0.9v-0.4h-1.4
									c-0.4-0.1-0.7-0.2-1.2-0.2C218.4,168.4,217.7,168.8,217.6,169.8"/>
							</g>
							<g>
								<g>
									<defs>
										<path id="SVGID_51_" d="M218.5,173.5c0-0.2,0.1-0.4,0.4-0.5h1.8c0.5,0,0.8,0.1,0.9,0.4c0,0.4-0.6,0.7-1.8,0.7
											C218.9,174.1,218.5,173.8,218.5,173.5 M219.1,169.8c-0.1-0.8,0.1-1.2,0.7-1.2c0.4,0,0.7,0.4,0.7,1.2
											c0,0.8-0.2,1.2-0.7,1.2h-0.1C219.3,171,219.1,170.5,219.1,169.8 M217.6,169.8c0,0.7,0.4,1.1,1.3,1.4
											c-0.8,0.2-1.3,0.6-1.3,1c0,0.4,0.2,0.6,0.9,0.7c-0.7,0.1-1,0.3-1,0.7c0,0.5,0.7,0.8,2.1,0.9c1.8,0,2.7-0.5,2.8-1.4
											c0-0.7-0.6-1-1.8-1h-0.7c-0.9,0-1.2-0.1-1.1-0.4c0-0.2,0.2-0.4,0.7-0.4c0.8,0,1.3,0,1.3-0.1c0.7-0.2,1.1-0.6,1.2-1.3
											c0-0.3-0.1-0.6-0.4-0.8l-0.1-0.1h0.9v-0.4h-1.4c-0.4-0.1-0.7-0.2-1.2-0.2C218.4,168.4,217.7,168.8,217.6,169.8"/>
									</defs>
									<clipPath id="SVGID_52_">
										<use xlink:href="#SVGID_51_"  style="overflow:visible;"/>
									</clipPath>
									<rect x="217.5" y="168.3" class="st13" width="5" height="6.1"/>
								</g>
							</g>
						</g>
					</g>
				</g>
			</g>
		</g>
		<g>
			<g>
				<g>
					<g>
						<g>
							<g>
								<path id="SVGID_11_" d="M224.5,171.5c0-0.5,0.4-0.9,1.3-1.1v1.3l-0.1,0.1c-0.2,0.2-0.4,0.3-0.7,0.3
									C224.7,172.1,224.5,171.8,224.5,171.5 M223.1,169.5c0,0.4,0.2,0.6,0.7,0.6c0.4,0,0.7-0.1,0.7-0.5c0-0.1-0.1-0.2-0.2-0.4
									c-0.1-0.1-0.1-0.1-0.1-0.2c0-0.2,0.2-0.3,0.7-0.3c0.7,0,1,0.3,1,0.8v0.7c-2.1,0.4-3,1-3,1.7c0,0.6,0.4,0.9,1.3,0.9
									c0.6-0.1,1.2-0.2,1.7-0.6c0.1,0.4,0.4,0.6,1,0.6c0.4,0,0.8-0.1,1.2-0.4l-0.1-0.1l-0.1,0.1c-0.1,0.1-0.1,0.1-0.1,0
									c-0.1,0-0.2-0.1-0.2-0.2v-2.4c-0.1-0.8-0.7-1.2-2.1-1.3C223.9,168.4,223.2,168.7,223.1,169.5"/>
							</g>
							<g>
								<g>
									<defs>
										<path id="SVGID_53_" d="M224.5,171.5c0-0.5,0.4-0.9,1.3-1.1v1.3l-0.1,0.1c-0.2,0.2-0.4,0.3-0.7,0.3
											C224.7,172.1,224.5,171.8,224.5,171.5 M223.1,169.5c0,0.4,0.2,0.6,0.7,0.6c0.4,0,0.7-0.1,0.7-0.5c0-0.1-0.1-0.2-0.2-0.4
											c-0.1-0.1-0.1-0.1-0.1-0.2c0-0.2,0.2-0.3,0.7-0.3c0.7,0,1,0.3,1,0.8v0.7c-2.1,0.4-3,1-3,1.7c0,0.6,0.4,0.9,1.3,0.9
											c0.6-0.1,1.2-0.2,1.7-0.6c0.1,0.4,0.4,0.6,1,0.6c0.4,0,0.8-0.1,1.2-0.4l-0.1-0.1l-0.1,0.1c-0.1,0.1-0.1,0.1-0.1,0
											c-0.1,0-0.2-0.1-0.2-0.2v-2.4c-0.1-0.8-0.7-1.2-2.1-1.3C223.9,168.4,223.2,168.7,223.1,169.5"/>
									</defs>
									<clipPath id="SVGID_54_">
										<use xlink:href="#SVGID_53_"  style="overflow:visible;"/>
									</clipPath>
									<rect x="222.8" y="168.3" class="st14" width="5.2" height="4.4"/>
								</g>
							</g>
						</g>
					</g>
				</g>
			</g>
		</g>
		<g>
			<g>
				<g>
					<g>
						<g>
							<g>
								<path id="SVGID_10_" d="M230.4,169L230.4,169l-0.1-0.7h-2.1v0.2c0.4,0.1,0.6,0.2,0.6,0.5v2.7c0,0.4-0.1,0.6-0.6,0.6v0.2h2.7
									v-0.2c-0.4,0-0.6-0.1-0.5-0.5v-2.4c0.2-0.3,0.5-0.5,0.9-0.5s0.6,0.2,0.6,0.7v2.2c0,0.4-0.1,0.5-0.5,0.5v0.2h2.5v-0.2
									c-0.4,0-0.6-0.1-0.5-0.5v-2.2c0-0.7-0.5-1.2-1.5-1.3C231.3,168.4,230.7,168.6,230.4,169"/>
							</g>
							<g>
								<g>
									<defs>
										<path id="SVGID_55_" d="M230.4,169L230.4,169l-0.1-0.7h-2.1v0.2c0.4,0.1,0.6,0.2,0.6,0.5v2.7c0,0.4-0.1,0.6-0.6,0.6v0.2
											h2.7v-0.2c-0.4,0-0.6-0.1-0.5-0.5v-2.4c0.2-0.3,0.5-0.5,0.9-0.5s0.6,0.2,0.6,0.7v2.2c0,0.4-0.1,0.5-0.5,0.5v0.2h2.5v-0.2
											c-0.4,0-0.6-0.1-0.5-0.5v-2.2c0-0.7-0.5-1.2-1.5-1.3C231.3,168.4,230.7,168.6,230.4,169"/>
									</defs>
									<clipPath id="SVGID_56_">
										<use xlink:href="#SVGID_55_"  style="overflow:visible;"/>
									</clipPath>
									<rect x="228.3" y="168.3" class="st15" width="5.6" height="4.3"/>
								</g>
							</g>
						</g>
					</g>
				</g>
			</g>
		</g>
		<g>
			<g>
				<g>
					<g>
						<g>
							<g>
								<path id="SVGID_9_" d="M236.1,166.9c-0.7,0.7-1.3,1.3-1.8,1.6v0.2h0.5v3v0.1c0.1,0.5,0.5,0.8,1.3,0.8s1.3-0.3,1.6-1
									l-0.2-0.1c-0.2,0.3-0.4,0.5-0.7,0.4c-0.3,0-0.4-0.1-0.4-0.5v-2.7h1v-0.4h-1v-1.6L236.1,166.9L236.1,166.9L236.1,166.9z"/>
							</g>
							<g>
								<g>
									<defs>
										<path id="SVGID_57_" d="M236.1,166.9c-0.7,0.7-1.3,1.3-1.8,1.6v0.2h0.5v3v0.1c0.1,0.5,0.5,0.8,1.3,0.8s1.3-0.3,1.6-1
											l-0.2-0.1c-0.2,0.3-0.4,0.5-0.7,0.4c-0.3,0-0.4-0.1-0.4-0.5v-2.7h1v-0.4h-1v-1.6L236.1,166.9L236.1,166.9L236.1,166.9z"/>
									</defs>
									<clipPath id="SVGID_58_">
										<use xlink:href="#SVGID_57_"  style="overflow:visible;"/>
									</clipPath>
									<rect x="234.3" y="166.9" class="st16" width="3.4" height="5.7"/>
								</g>
							</g>
						</g>
					</g>
				</g>
			</g>
		</g>
		<g>
			<g>
				<g>
					<g>
						<g>
							<g>
								<path id="SVGID_8_" d="M243.2,169.5v-2.4c0-0.2,0.1-0.3,0.5-0.3c0.9,0,1.3,0.4,1.3,1.4c0.1,0.9-0.4,1.3-1.5,1.3
									C243.5,169.5,243.4,169.5,243.2,169.5 M240.6,166.4v0.2c0.7,0,1,0.3,1,0.8v4c0,0.4-0.1,0.6-0.3,0.7l-0.1,0.1
									c-0.1,0.1-0.3,0.1-0.6,0.1v0.2h3.6v-0.2c-0.7,0-1.1-0.2-1-0.9v-1.7c1.4,0.1,2.3-0.1,2.7-0.3c0.7-0.3,1-0.7,1-1.4
									c0-1-1-1.6-2.9-1.6H240.6L240.6,166.4z"/>
							</g>
							<g>
								<g>
									<defs>
										<path id="SVGID_59_" d="M243.2,169.5v-2.4c0-0.2,0.1-0.3,0.5-0.3c0.9,0,1.3,0.4,1.3,1.4c0.1,0.9-0.4,1.3-1.5,1.3
											C243.5,169.5,243.4,169.5,243.2,169.5 M240.6,166.4v0.2c0.7,0,1,0.3,1,0.8v4c0,0.4-0.1,0.6-0.3,0.7l-0.1,0.1
											c-0.1,0.1-0.3,0.1-0.6,0.1v0.2h3.6v-0.2c-0.7,0-1.1-0.2-1-0.9v-1.7c1.4,0.1,2.3-0.1,2.7-0.3c0.7-0.3,1-0.7,1-1.4
											c0-1-1-1.6-2.9-1.6H240.6L240.6,166.4z"/>
									</defs>
									<clipPath id="SVGID_60_">
										<use xlink:href="#SVGID_59_"  style="overflow:visible;"/>
									</clipPath>
									<rect x="240.6" y="166.4" class="st17" width="6.4" height="6.1"/>
								</g>
							</g>
						</g>
					</g>
				</g>
			</g>
		</g>
		<g>
			<g>
				<g>
					<g>
						<g>
							<g>
								<path id="SVGID_7_" d="M249.6,168.6c0.3,0,0.4,0.1,0.6,0.4c0.1,0.2,0.1,0.5,0.1,1h-1.5C248.8,169,249.1,168.6,249.6,168.6
									 M247.3,170.5c0,1.4,0.7,2.1,2.2,2.1c0.8,0,1.6-0.3,2.1-1l-0.2-0.1c-0.4,0.4-0.8,0.6-1.3,0.6c-0.8,0-1.3-0.6-1.3-1.7h2.7
									c-0.1-1.3-0.8-2-2.1-2.1C248.1,168.4,247.4,169.2,247.3,170.5"/>
							</g>
							<g>
								<g>
									<defs>
										<path id="SVGID_61_" d="M249.6,168.6c0.3,0,0.4,0.1,0.6,0.4c0.1,0.2,0.1,0.5,0.1,1h-1.5
											C248.8,169,249.1,168.6,249.6,168.6 M247.3,170.5c0,1.4,0.7,2.1,2.2,2.1c0.8,0,1.6-0.3,2.1-1l-0.2-0.1
											c-0.4,0.4-0.8,0.6-1.3,0.6c-0.8,0-1.3-0.6-1.3-1.7h2.7c-0.1-1.3-0.8-2-2.1-2.1C248.1,168.4,247.4,169.2,247.3,170.5"/>
									</defs>
									<clipPath id="SVGID_62_">
										<use xlink:href="#SVGID_61_"  style="overflow:visible;"/>
									</clipPath>
									<rect x="247.3" y="168.3" class="st18" width="4.4" height="4.4"/>
								</g>
							</g>
						</g>
					</g>
				</g>
			</g>
		</g>
		<g>
			<g>
				<g>
					<g>
						<g>
							<g>
								<path id="SVGID_6_" d="M255.4,170.5c0,1.3-0.2,2-0.8,1.9c-0.7,0.1-1-0.6-0.9-1.9c-0.1-1.3,0.2-2,0.9-1.9
									C255.1,168.5,255.4,169.2,255.4,170.5 M252.1,170.5c0.1,1.4,1,2.1,2.4,2.1c1.5-0.1,2.3-0.7,2.4-2.1c-0.1-1.3-1-2.1-2.4-2.2
									C253,168.4,252.2,169.2,252.1,170.5"/>
							</g>
							<g>
								<g>
									<defs>
										<path id="SVGID_63_" d="M255.4,170.5c0,1.3-0.2,2-0.8,1.9c-0.7,0.1-1-0.6-0.9-1.9c-0.1-1.3,0.2-2,0.9-1.9
											C255.1,168.5,255.4,169.2,255.4,170.5 M252.1,170.5c0.1,1.4,1,2.1,2.4,2.1c1.5-0.1,2.3-0.7,2.4-2.1
											c-0.1-1.3-1-2.1-2.4-2.2C253,168.4,252.2,169.2,252.1,170.5"/>
									</defs>
									<clipPath id="SVGID_64_">
										<use xlink:href="#SVGID_63_"  style="overflow:visible;"/>
									</clipPath>
									<rect x="252.1" y="168.3" class="st19" width="5" height="4.4"/>
								</g>
							</g>
						</g>
					</g>
				</g>
			</g>
		</g>
		<g>
			<g>
				<g>
					<g>
						<g>
							<g>
								<path id="SVGID_5_" d="M259.6,171.7v-2.2c0.2-0.4,0.5-0.5,0.9-0.6c0.6,0,0.9,0.6,0.9,1.7s-0.3,1.6-1,1.6
									C260,172.2,259.8,172.1,259.6,171.7 M259.6,169L259.6,169l-0.1-0.6h-2.1v0.2c0.4,0.1,0.6,0.2,0.6,0.5v4.4
									c0,0.4-0.1,0.5-0.6,0.5v0.2h3v-0.1c-0.6,0-0.9-0.2-0.9-0.8v-1.2c0.4,0.3,0.8,0.4,1.3,0.4c1.3-0.1,2-0.8,2.1-2.2
									c-0.1-1.3-0.7-2-2-2.1C260.3,168.3,259.9,168.5,259.6,169"/>
							</g>
							<g>
								<g>
									<defs>
										<path id="SVGID_65_" d="M259.6,171.7v-2.2c0.2-0.4,0.5-0.5,0.9-0.6c0.6,0,0.9,0.6,0.9,1.7s-0.3,1.6-1,1.6
											C260,172.2,259.8,172.1,259.6,171.7 M259.6,169L259.6,169l-0.1-0.6h-2.1v0.2c0.4,0.1,0.6,0.2,0.6,0.5v4.4
											c0,0.4-0.1,0.5-0.6,0.5v0.2h3v-0.1c-0.6,0-0.9-0.2-0.9-0.8v-1.2c0.4,0.3,0.8,0.4,1.3,0.4c1.3-0.1,2-0.8,2.1-2.2
											c-0.1-1.3-0.7-2-2-2.1C260.3,168.3,259.9,168.5,259.6,169"/>
									</defs>
									<clipPath id="SVGID_66_">
										<use xlink:href="#SVGID_65_"  style="overflow:visible;"/>
									</clipPath>
									<rect x="257.5" y="168.3" class="st20" width="5.5" height="6.1"/>
								</g>
							</g>
						</g>
					</g>
				</g>
			</g>
		</g>
		<g>
			<g>
				<g>
					<g>
						<g>
							<g>
								<path id="SVGID_4_" d="M263.5,166.4v0.2c0.4,0,0.5,0.2,0.5,0.5v4.6c0,0.4-0.2,0.6-0.5,0.6v0.2h2.6v-0.2
									c-0.4,0-0.5-0.1-0.5-0.6v-5.3H263.5z"/>
							</g>
							<g>
								<g>
									<defs>
										<path id="SVGID_67_" d="M263.5,166.4v0.2c0.4,0,0.5,0.2,0.5,0.5v4.6c0,0.4-0.2,0.6-0.5,0.6v0.2h2.6v-0.2
											c-0.4,0-0.5-0.1-0.5-0.6v-5.3H263.5z"/>
									</defs>
									<clipPath id="SVGID_68_">
										<use xlink:href="#SVGID_67_"  style="overflow:visible;"/>
									</clipPath>
									<rect x="263.5" y="166.4" class="st21" width="2.6" height="6.1"/>
								</g>
							</g>
						</g>
					</g>
				</g>
			</g>
		</g>
		<g>
			<g>
				<g>
					<g>
						<g>
							<g>
								<path id="SVGID_3_" d="M268.9,168.6c0.3,0,0.4,0.1,0.6,0.4c0.1,0.2,0.1,0.5,0.1,1h-1.5C268.1,169,268.3,168.6,268.9,168.6
									 M266.6,170.5c0,1.4,0.7,2.1,2.2,2.1c0.8,0,1.6-0.3,2.1-1l-0.2-0.1c-0.4,0.4-0.8,0.6-1.3,0.6c-0.8,0-1.3-0.6-1.3-1.7h2.7
									c-0.1-1.3-0.8-2-2.1-2.1C267.4,168.4,266.7,169.2,266.6,170.5"/>
							</g>
							<g>
								<g>
									<defs>
										<path id="SVGID_69_" d="M268.9,168.6c0.3,0,0.4,0.1,0.6,0.4c0.1,0.2,0.1,0.5,0.1,1h-1.5
											C268.1,169,268.3,168.6,268.9,168.6 M266.6,170.5c0,1.4,0.7,2.1,2.2,2.1c0.8,0,1.6-0.3,2.1-1l-0.2-0.1
											c-0.4,0.4-0.8,0.6-1.3,0.6c-0.8,0-1.3-0.6-1.3-1.7h2.7c-0.1-1.3-0.8-2-2.1-2.1C267.4,168.4,266.7,169.2,266.6,170.5"/>
									</defs>
									<clipPath id="SVGID_70_">
										<use xlink:href="#SVGID_69_"  style="overflow:visible;"/>
									</clipPath>
									<rect x="266.6" y="168.3" class="st22" width="4.4" height="4.4"/>
								</g>
							</g>
						</g>
					</g>
				</g>
			</g>
		</g>
	</g>
	<g>
		<g>
			<path id="SVGID_00000116234166872954772620000015351937650294902684_" class="st23" d="M356.6,91.9c0.6,0,0.7-0.5,0.7-0.5v-3
				c0,0-1.6-1.4-2.3-1.8c-0.7-0.3-1-1.1-1-1.1V61.9l13.9,30h6.1V45.4c0-1.4,2.7-2.2,2.7-2.2v-0.4v-2.3c0-0.8-0.6-1-0.6-1h-10.5
				c-0.5,0-0.8,0.6-0.8,0.6v2.1c0,0.5,0.6,0.6,0.6,0.6s1.5,1,2.1,1.3c0.7,0.3,0.9,1.5,0.9,1.5v19.3l-11.7-25.5h-10
				c-0.9,0-1.1,1.3-1.1,1.3v2c0,0.4,0.2,0.5,0.6,0.8c0.4,0.2,2.4,2,2.4,2v39.9c0,0.4-0.2,1-0.2,1l-2.7,2.2v2.6
				c0,0.5,0.8,0.8,0.8,0.8L356.6,91.9L356.6,91.9z"/>
		</g>
		<g>
			<g>
				<g>
					<g>
						<defs>
							<path id="SVGID_71_" d="M356.6,91.9c0.6,0,0.7-0.5,0.7-0.5v-3c0,0-1.6-1.4-2.3-1.8c-0.7-0.3-1-1.1-1-1.1V61.9l13.9,30h6.1
								V45.4c0-1.4,2.7-2.2,2.7-2.2v-0.4v-2.3c0-0.8-0.6-1-0.6-1h-10.5c-0.5,0-0.8,0.6-0.8,0.6v2.1c0,0.5,0.6,0.6,0.6,0.6
								s1.5,1,2.1,1.3c0.7,0.3,0.9,1.5,0.9,1.5v19.3l-11.7-25.5h-10c-0.9,0-1.1,1.3-1.1,1.3v2c0,0.4,0.2,0.5,0.6,0.8
								c0.4,0.2,2.4,2,2.4,2v39.9c0,0.4-0.2,1-0.2,1l-2.7,2.2v2.6c0,0.5,0.8,0.8,0.8,0.8L356.6,91.9L356.6,91.9z"/>
						</defs>
						<clipPath id="SVGID_72_">
							<use xlink:href="#SVGID_71_"  style="overflow:visible;"/>
						</clipPath>
						<rect x="345.5" y="39.4" class="st24" width="31.1" height="52.5"/>
					</g>
				</g>
			</g>
		</g>
	</g>
	<g>
		<g>
			<path id="SVGID_00000076591927829029577580000000159641905715440519_" class="st23" d="M323.9,77h-8.5l4.4-25.5L323.9,77z
				 M316.6,91.9c0.9,0,0.9-0.7,0.9-0.7v-1.4c0-0.5-0.2-1.2-0.2-1.2s-1.9-1.5-2.5-1.9c-0.6-0.3-0.4-1.4-0.4-1.4l0.8-4.9h8.9l1.1,5.8
				c0,0-1.5,1.3-2.3,1.7c-0.8,0.4-0.5,1.5-0.5,1.5v1.4c0,0.5,0.5,0.8,0.5,0.8h15.9c0.8,0,1.3-0.8,1.3-0.8v-1.7c0-0.6-0.2-1-0.2-1
				s-0.1-0.4-1.2-1c-1.1-0.6-1.2-2.3-1.2-2.3s-6.8-41.6-7.1-43.4c-0.3-1.9-1.9-2.1-1.9-2.1h-14.2c-0.7,0-0.8,0.8-0.8,0.8v2.1
				c0,0.4,0.5,1,0.5,1l1.9,2c0,0-6.1,37.4-6.4,39c-0.4,1.6-1,3-2,3.4c-1,0.5-1.1,1.6-1.1,1.6V91c0,0.4,0.8,0.9,0.8,0.9L316.6,91.9
				L316.6,91.9z"/>
		</g>
		<g>
			<g>
				<g>
					<g>
						<defs>
							<path id="SVGID_73_" d="M323.9,77h-8.5l4.4-25.5L323.9,77z M316.6,91.9c0.9,0,0.9-0.7,0.9-0.7v-1.4c0-0.5-0.2-1.2-0.2-1.2
								s-1.9-1.5-2.5-1.9c-0.6-0.3-0.4-1.4-0.4-1.4l0.8-4.9h8.9l1.1,5.8c0,0-1.5,1.3-2.3,1.7c-0.8,0.4-0.5,1.5-0.5,1.5v1.4
								c0,0.5,0.5,0.8,0.5,0.8h15.9c0.8,0,1.3-0.8,1.3-0.8v-1.7c0-0.6-0.2-1-0.2-1s-0.1-0.4-1.2-1c-1.1-0.6-1.2-2.3-1.2-2.3
								s-6.8-41.6-7.1-43.4c-0.3-1.9-1.9-2.1-1.9-2.1h-14.2c-0.7,0-0.8,0.8-0.8,0.8v2.1c0,0.4,0.5,1,0.5,1l1.9,2
								c0,0-6.1,37.4-6.4,39c-0.4,1.6-1,3-2,3.4c-1,0.5-1.1,1.6-1.1,1.6V91c0,0.4,0.8,0.9,0.8,0.9L316.6,91.9L316.6,91.9z"/>
						</defs>
						<clipPath id="SVGID_74_">
							<use xlink:href="#SVGID_73_"  style="overflow:visible;"/>
						</clipPath>
						<rect x="306.4" y="39.3" class="st25" width="33.7" height="52.6"/>
					</g>
				</g>
			</g>
		</g>
	</g>
	<g>
		<g>
			<path id="SVGID_00000159453180797363180380000013346790200290955656_" class="st23" d="M300.4,91.9c0.6,0,1-0.9,1-0.9v-2.9
				c0,0-0.7-0.8-1.5-1.2c-0.9-0.5-1.1-1.1-1.1-1.1V45.9c0-0.9,2.1-2.3,2.3-2.5c0.2-0.2,0.7-0.8,0.7-0.8v-2.3c0-0.8-1.2-1-1.2-1
				h-13.4l-5.8,20.6l-5.7-20.6h-13c-1.2,0-1.1,1-1.1,1v3.2c0,0,0.5,0.4,1.3,0.9c0.8,0.5,1.1,1.6,1.1,1.6v39.9
				c-0.1,0.4-0.7,1.2-1.5,1.9c-0.8,0.7-0.9,1.4-0.9,1.4v1.6c0,0.8,1.2,1,1.2,1h8.2c0.7,0,1-0.9,1-0.9v-2.2c0-0.8-0.8-0.9-1.5-1.4
				c-0.7-0.5-1.2-1.4-1.2-1.4V58.6l6.5,21.7h3.4l6.9-22.2v27.5c0,0-1.1,1.3-1.9,1.6c-0.9,0.3-1,1.2-1,1.2v2.5c0,1,0.9,1.2,0.9,1.2
				L300.4,91.9L300.4,91.9L300.4,91.9z"/>
		</g>
		<g>
			<g>
				<g>
					<g>
						<defs>
							<path id="SVGID_75_" d="M300.4,91.9c0.6,0,1-0.9,1-0.9v-2.9c0,0-0.7-0.8-1.5-1.2c-0.9-0.5-1.1-1.1-1.1-1.1V45.9
								c0-0.9,2.1-2.3,2.3-2.5c0.2-0.2,0.7-0.8,0.7-0.8v-2.3c0-0.8-1.2-1-1.2-1h-13.4l-5.8,20.6l-5.7-20.6h-13c-1.2,0-1.1,1-1.1,1
								v3.2c0,0,0.5,0.4,1.3,0.9c0.8,0.5,1.1,1.6,1.1,1.6v39.9c-0.1,0.4-0.7,1.2-1.5,1.9c-0.8,0.7-0.9,1.4-0.9,1.4v1.6
								c0,0.8,1.2,1,1.2,1h8.2c0.7,0,1-0.9,1-0.9v-2.2c0-0.8-0.8-0.9-1.5-1.4c-0.7-0.5-1.2-1.4-1.2-1.4V58.6l6.5,21.7h3.4l6.9-22.2
								v27.5c0,0-1.1,1.3-1.9,1.6c-0.9,0.3-1,1.2-1,1.2v2.5c0,1,0.9,1.2,0.9,1.2L300.4,91.9L300.4,91.9L300.4,91.9z"/>
						</defs>
						<clipPath id="SVGID_76_">
							<use xlink:href="#SVGID_75_"  style="overflow:visible;"/>
						</clipPath>
						<rect x="261.5" y="39.3" class="st26" width="40.2" height="52.6"/>
					</g>
				</g>
			</g>
		</g>
	</g>
	<g>
		<g>
			<path id="SVGID_00000067940494795876456450000011487963211647120008_" class="st23" d="M235,91.7c0,0,0.8-0.3,0.8-1.1v-2.3
				c0,0-2-1.4-2.1-1.9V65.5h5.8v20.9c-0.1,0.5-2.1,1.9-2.1,1.9v2.3c0,0.8,0.8,1.1,0.8,1.1h16.2c0.7,0,1.1-0.1,1.1-0.1v-3.2
				c0,0-0.8-0.5-1.7-1.2c-0.9-0.8-1.1-1.6-1.1-1.6V45.7c0-1.4,2.7-2.8,2.7-2.8v-2.7c0-0.7-0.7-1-0.7-1h-16.1c0,0-0.9,0.5-0.9,1.4
				v1.8c0,0,0,0.8,0.4,1.1c0.4,0.3,1.5,1.1,1.5,1.1v17.1h-6V44.6c0,0,1-0.8,1.5-1.1c0.4-0.3,0.4-1.1,0.4-1.1v-1.8
				c0-0.9-0.9-1.4-0.9-1.4h-16.1c0,0-0.7,0.3-0.7,1v2.7c0,0,2.7,1.4,2.7,2.8v39.9c0,0-0.1,0.8-1.1,1.6c-0.9,0.8-1.7,1.2-1.7,1.2v3.2
				c0,0,0.4,0.1,1.1,0.1H235z"/>
		</g>
		<g>
			<g>
				<g>
					<g>
						<defs>
							<path id="SVGID_77_" d="M235,91.7c0,0,0.8-0.3,0.8-1.1v-2.3c0,0-2-1.4-2.1-1.9V65.5h5.8v20.9c-0.1,0.5-2.1,1.9-2.1,1.9v2.3
								c0,0.8,0.8,1.1,0.8,1.1h16.2c0.7,0,1.1-0.1,1.1-0.1v-3.2c0,0-0.8-0.5-1.7-1.2c-0.9-0.8-1.1-1.6-1.1-1.6V45.7
								c0-1.4,2.7-2.8,2.7-2.8v-2.7c0-0.7-0.7-1-0.7-1h-16.1c0,0-0.9,0.5-0.9,1.4v1.8c0,0,0,0.8,0.4,1.1c0.4,0.3,1.5,1.1,1.5,1.1
								v17.1h-6V44.6c0,0,1-0.8,1.5-1.1c0.4-0.3,0.4-1.1,0.4-1.1v-1.8c0-0.9-0.9-1.4-0.9-1.4h-16.1c0,0-0.7,0.3-0.7,1v2.7
								c0,0,2.7,1.4,2.7,2.8v39.9c0,0-0.1,0.8-1.1,1.6c-0.9,0.8-1.7,1.2-1.7,1.2v3.2c0,0,0.4,0.1,1.1,0.1H235z"/>
						</defs>
						<clipPath id="SVGID_78_">
							<use xlink:href="#SVGID_77_"  style="overflow:visible;"/>
						</clipPath>
						<rect x="217.6" y="39.3" class="st27" width="37.8" height="52.4"/>
					</g>
				</g>
			</g>
		</g>
	</g>
	<g>
		<g>
			<path id="SVGID_00000178924373041497246930000012436820435076602264_" class="st23" d="M178.3,91.7c0,0,0.8-0.3,0.8-1.1v-2.3
				c0,0-2.5-1.4-2.6-1.9l-0.1-41.8c0,0,2.2-1,2.6-1.3s0.4-0.9,0.4-0.9v-1.8c0-0.9-0.9-1.4-0.9-1.4h-17.3c0,0-1.2,0.3-1.2,1v2.7
				c0,0,3.2,1.4,3.2,2.8v39.9c0,0-0.1,0.8-1,1.6c-0.9,0.8-2.4,1.2-2.4,1.2v3.2c0,0,0.6,0.1,1.3,0.1L178.3,91.7L178.3,91.7z"/>
		</g>
		<g>
			<g>
				<g>
					<g>
						<defs>
							<path id="SVGID_79_" d="M178.3,91.7c0,0,0.8-0.3,0.8-1.1v-2.3c0,0-2.5-1.4-2.6-1.9l-0.1-41.8c0,0,2.2-1,2.6-1.3
								s0.4-0.9,0.4-0.9v-1.8c0-0.9-0.9-1.4-0.9-1.4h-17.3c0,0-1.2,0.3-1.2,1v2.7c0,0,3.2,1.4,3.2,2.8v39.9c0,0-0.1,0.8-1,1.6
								c-0.9,0.8-2.4,1.2-2.4,1.2v3.2c0,0,0.6,0.1,1.3,0.1L178.3,91.7L178.3,91.7z"/>
						</defs>
						<clipPath id="SVGID_80_">
							<use xlink:href="#SVGID_79_"  style="overflow:visible;"/>
						</clipPath>
						<rect x="159.7" y="39.3" class="st28" width="19.7" height="52.4"/>
					</g>
				</g>
			</g>
		</g>
	</g>
	<g>
		<g>
			<path id="SVGID_00000156547344525244260300000011393587982935114671_" class="st23" d="M212,82.1v-1.3c0,0,0.2-1.6-1.4-1.6H208
				c0,0-1.4,0.2-1.8,2.6c-0.4,2.5-0.8,6.5-3.1,6.5c-2.3,0-2.7-1.5-2.7-2.9V45.3c0,0,0.5-2.4,2.2-2.4c1.6,0,2.9,1.3,3.7,4.6
				c0.7,3.4,1.1,6.8,3.5,6.8c2.4,0,2.2-1.9,2.2-1.9l-0.8-12.6c0,0-0.2-1.5-1.7-1.5s-2.7,1.3-2.7,1.3s-0.4,0.9-1.1,0.9
				c-0.3,0-0.9-0.5-1.8-1c-0.9-0.5-2.1-1-3.5-1c-2.9,0.1-14.7,2.3-14.7,26c0,1.1-0.3,28.1,15.6,28.1C203,92.5,210.6,91.5,212,82.1"
				/>
		</g>
		<g>
			<g>
				<g>
					<g>
						<defs>
							<path id="SVGID_81_" d="M212,82.1v-1.3c0,0,0.2-1.6-1.4-1.6H208c0,0-1.4,0.2-1.8,2.6c-0.4,2.5-0.8,6.5-3.1,6.5
								c-2.3,0-2.7-1.5-2.7-2.9V45.3c0,0,0.5-2.4,2.2-2.4c1.6,0,2.9,1.3,3.7,4.6c0.7,3.4,1.1,6.8,3.5,6.8c2.4,0,2.2-1.9,2.2-1.9
								l-0.8-12.6c0,0-0.2-1.5-1.7-1.5s-2.7,1.3-2.7,1.3s-0.4,0.9-1.1,0.9c-0.3,0-0.9-0.5-1.8-1c-0.9-0.5-2.1-1-3.5-1
								c-2.9,0.1-14.7,2.3-14.7,26c0,1.1-0.3,28.1,15.6,28.1C203,92.5,210.6,91.5,212,82.1"/>
						</defs>
						<clipPath id="SVGID_82_">
							<use xlink:href="#SVGID_81_"  style="overflow:visible;"/>
						</clipPath>
						<rect x="185.4" y="38.2" class="st29" width="26.9" height="54.2"/>
					</g>
				</g>
			</g>
		</g>
	</g>
	<g>
		<g>
			<path id="SVGID_00000018231312537494539510000004072025205614494371_" class="st23" d="M139.5,46.9v12.6c0,4.3-3,5.5-3,5.5h-3.1
				V42.9h1.8C138.9,42.9,139.5,46.9,139.5,46.9 M152.8,91.9c0.7,0,1.5-0.7,1.5-0.7s0-2.2,0-2.6c-0.1-0.3-0.4-0.6-1.1-1.1
				s-0.7-1.1-0.7-1.1V77c0-8.2-9.9-10.2-9.9-10.2c11.5-2.9,10.9-11.7,10.8-12.9c-0.7-13.5-13-14.5-13-14.5h-21.5
				c-1.7,0-1.8,1.2-1.8,1.2s-0.1,1,0,1.8c0.1,0.7,0.9,1.3,1.8,1.6s1.3,1.6,1.3,1.6s0,38.7,0,39.5s-1.3,1.8-2.1,2.1
				c-0.8,0.3-0.7,1.1-0.7,1.1v1.8c0,0.8,1,1.5,1,1.5h15.3c1,0,1.7-0.9,1.7-0.9v-2.3c0,0-0.2-0.7-1-1.2c-0.8-0.5-1.2-1.3-1.2-1.3
				V68.5h2.6c3.1,0,3.4,3.4,3.4,3.4v14.8c0,3.9,3.4,5,3.4,5L152.8,91.9L152.8,91.9L152.8,91.9z"/>
		</g>
		<g>
			<g>
				<g>
					<g>
						<defs>
							<path id="SVGID_83_" d="M139.5,46.9v12.6c0,4.3-3,5.5-3,5.5h-3.1V42.9h1.8C138.9,42.9,139.5,46.9,139.5,46.9 M152.8,91.9
								c0.7,0,1.5-0.7,1.5-0.7s0-2.2,0-2.6c-0.1-0.3-0.4-0.6-1.1-1.1s-0.7-1.1-0.7-1.1V77c0-8.2-9.9-10.2-9.9-10.2
								c11.5-2.9,10.9-11.7,10.8-12.9c-0.7-13.5-13-14.5-13-14.5h-21.5c-1.7,0-1.8,1.2-1.8,1.2s-0.1,1,0,1.8
								c0.1,0.7,0.9,1.3,1.8,1.6s1.3,1.6,1.3,1.6s0,38.7,0,39.5s-1.3,1.8-2.1,2.1c-0.8,0.3-0.7,1.1-0.7,1.1v1.8c0,0.8,1,1.5,1,1.5
								h15.3c1,0,1.7-0.9,1.7-0.9v-2.3c0,0-0.2-0.7-1-1.2c-0.8-0.5-1.2-1.3-1.2-1.3V68.5h2.6c3.1,0,3.4,3.4,3.4,3.4v14.8
								c0,3.9,3.4,5,3.4,5L152.8,91.9L152.8,91.9L152.8,91.9z"/>
						</defs>
						<clipPath id="SVGID_84_">
							<use xlink:href="#SVGID_83_"  style="overflow:visible;"/>
						</clipPath>
						<rect x="117.1" y="39.4" class="st30" width="37.3" height="52.5"/>
					</g>
				</g>
			</g>
		</g>
	</g>
	<g>
		<g>
			<path id="SVGID_00000029033725842427759980000015668811280859902647_" class="st23" d="M392.5,27.1L392.5,27.1
				c1.2,1.1,1.9,2.7,1.9,4.4s-0.7,3.2-1.9,4.4c-1.2,1.1-2.8,1.8-4.6,1.8c-1.8,0-3.5-0.7-4.6-1.8c-1.2-1.1-1.9-2.7-1.9-4.4
				s0.7-3.2,1.9-4.4l0,0c1.2-1.1,2.8-1.8,4.6-1.8C389.7,25.2,391.4,26,392.5,27.1 M393.6,36.8c1.5-1.4,2.3-3.2,2.3-5.3
				s-0.9-4-2.3-5.3l0,0l0,0c-1.5-1.4-3.5-2.2-5.6-2.2c-2.2,0-4.2,0.9-5.7,2.2l0,0c-1.4,1.4-2.3,3.2-2.3,5.3s0.9,4,2.3,5.3
				c1.5,1.4,3.5,2.2,5.7,2.2C390.1,39,392.1,38.1,393.6,36.8"/>
		</g>
		<g>
			<g>
				<g>
					<g>
						<defs>
							<path id="SVGID_85_" d="M392.5,27.1L392.5,27.1c1.2,1.1,1.9,2.7,1.9,4.4s-0.7,3.2-1.9,4.4c-1.2,1.1-2.8,1.8-4.6,1.8
								c-1.8,0-3.5-0.7-4.6-1.8c-1.2-1.1-1.9-2.7-1.9-4.4s0.7-3.2,1.9-4.4l0,0c1.2-1.1,2.8-1.8,4.6-1.8
								C389.7,25.2,391.4,26,392.5,27.1 M393.6,36.8c1.5-1.4,2.3-3.2,2.3-5.3s-0.9-4-2.3-5.3l0,0l0,0c-1.5-1.4-3.5-2.2-5.6-2.2
								c-2.2,0-4.2,0.9-5.7,2.2l0,0c-1.4,1.4-2.3,3.2-2.3,5.3s0.9,4,2.3,5.3c1.5,1.4,3.5,2.2,5.7,2.2
								C390.1,39,392.1,38.1,393.6,36.8"/>
						</defs>
						<clipPath id="SVGID_86_">
							<use xlink:href="#SVGID_85_"  style="overflow:visible;"/>
						</clipPath>
						<rect x="379.9" y="23.9" class="st31" width="16" height="15.1"/>
					</g>
				</g>
			</g>
		</g>
	</g>
	<g>
		<g>
			<path id="SVGID_00000160172448011271135450000014411763774821631907_" class="st23" d="M388.4,28.7c0.3,0.1,0.5,0.1,0.6,0.3
				s0.2,0.4,0.2,0.7c0,0.2-0.1,0.4-0.2,0.6s-0.3,0.3-0.5,0.3s-0.7,0.1-1.6,0.1h-1.3v-2.1h1.4C387.8,28.7,388.3,28.7,388.4,28.7
				 M385.8,35.5v-3.4h0.4c0.4,0,0.7,0,0.9,0.1c0.2,0.1,0.4,0.2,0.5,0.3c0.2,0.2,0.5,0.6,0.9,1.2l1.3,1.8h2.1l-1-1.6
				c-0.4-0.6-0.8-1.1-1-1.3s-0.5-0.5-0.9-0.7c0.8-0.1,1.3-0.4,1.7-0.8c0.4-0.4,0.6-0.9,0.6-1.5c0-0.5-0.1-0.9-0.4-1.3
				c-0.2-0.4-0.6-0.6-1-0.8c-0.4-0.1-1.1-0.2-2-0.2h-3.7v8.2H385.8L385.8,35.5z"/>
		</g>
		<g>
			<g>
				<g>
					<g>
						<defs>
							<path id="SVGID_87_" d="M388.4,28.7c0.3,0.1,0.5,0.1,0.6,0.3s0.2,0.4,0.2,0.7c0,0.2-0.1,0.4-0.2,0.6s-0.3,0.3-0.5,0.3
								s-0.7,0.1-1.6,0.1h-1.3v-2.1h1.4C387.8,28.7,388.3,28.7,388.4,28.7 M385.8,35.5v-3.4h0.4c0.4,0,0.7,0,0.9,0.1
								c0.2,0.1,0.4,0.2,0.5,0.3c0.2,0.2,0.5,0.6,0.9,1.2l1.3,1.8h2.1l-1-1.6c-0.4-0.6-0.8-1.1-1-1.3s-0.5-0.5-0.9-0.7
								c0.8-0.1,1.3-0.4,1.7-0.8c0.4-0.4,0.6-0.9,0.6-1.5c0-0.5-0.1-0.9-0.4-1.3c-0.2-0.4-0.6-0.6-1-0.8c-0.4-0.1-1.1-0.2-2-0.2
								h-3.7v8.2H385.8L385.8,35.5z"/>
						</defs>
						<clipPath id="SVGID_88_">
							<use xlink:href="#SVGID_87_"  style="overflow:visible;"/>
						</clipPath>
						<rect x="384" y="27.3" class="st32" width="7.8" height="8.1"/>
					</g>
				</g>
			</g>
		</g>
	</g>
	<g>
		<g>
			<g>
				<path id="SVGID_2_" d="M28.6,7l-1.8,32.2l0.5-0.1c2.9-0.3,5.9-0.4,9.1-0.4h0.5c0,0,0.5,0,1.3,0c5.8,0,26.5,0.7,47.7,9.6l2.2,0.9
					l6.7-32.1v-0.1C94,8.2,71.8,3,70.8,2.7C61.5,0.9,53.5,0,46.9,0C29.4,0.1,28.6,6.7,28.6,7"/>
			</g>
			<g>
				<g>
					<defs>
						<path id="SVGID_89_" d="M28.6,7l-1.8,32.2l0.5-0.1c2.9-0.3,5.9-0.4,9.1-0.4h0.5c0,0,0.5,0,1.3,0c5.8,0,26.5,0.7,47.7,9.6
							l2.2,0.9l6.7-32.1v-0.1C94,8.2,71.8,3,70.8,2.7C61.5,0.9,53.5,0,46.9,0C29.4,0.1,28.6,6.7,28.6,7"/>
					</defs>
					<clipPath id="SVGID_90_">
						<use xlink:href="#SVGID_89_"  style="overflow:visible;"/>
					</clipPath>
					<rect x="26.8" y="0.1" class="st33" width="68.1" height="49.3"/>
				</g>
			</g>
		</g>
		<g>
			<g>
				<path id="SVGID_00000075874219226930941110000008328339621878040216_" d="M42.3,80.2c-0.2,0.6-0.4,1.5-0.6,2.4
					c-0.1,0.4-0.1,0.6,0.3,0.8c0.8,0.5,0.5,1.1,0.4,2c-0.1,1.5-0.3,6.5,0,8.6c0.7,4.1,4.8,6.3,7.7,7c8,1.6,11.7-3.1,14.8-7.9
					c1.1-1.8,2.4-4.1,4-3.8c2.2,0.5,1.5,3,1.6,5c0.4,7.3,2,11.2,8.2,12.4c4.6,0.9,7.7-0.2,10.3-5.1c0.8-1.6,1.6-3.2,2.4-4.9
					c0.4-0.9,0.6-1.9,1.3-1.8c0.1,0,0.4-0.1,0.4-0.4c0.3-1,0.4-1.5,0.6-2.4c0.1-0.5,0.1-0.6-0.3-0.7c-2.2-0.9-7-3-9.4-3.6
					c-3.8-0.9-6.8-0.7-9.4-0.5c-2,0.1-3.7,0.3-5.3-0.1c-3.3-0.8-7.5-4.7-13.4-6.1c-4.5-1.1-11.5-1.5-12.7-1.8c-0.1,0-0.2,0-0.3,0
					C42.6,79.4,42.4,79.7,42.3,80.2"/>
			</g>
			<g>
				<g>
					<defs>
						<path id="SVGID_91_" d="M42.3,80.2c-0.2,0.6-0.4,1.5-0.6,2.4c-0.1,0.4-0.1,0.6,0.3,0.8c0.8,0.5,0.5,1.1,0.4,2
							c-0.1,1.5-0.3,6.5,0,8.6c0.7,4.1,4.8,6.3,7.7,7c8,1.6,11.7-3.1,14.8-7.9c1.1-1.8,2.4-4.1,4-3.8c2.2,0.5,1.5,3,1.6,5
							c0.4,7.3,2,11.2,8.2,12.4c4.6,0.9,7.7-0.2,10.3-5.1c0.8-1.6,1.6-3.2,2.4-4.9c0.4-0.9,0.6-1.9,1.3-1.8c0.1,0,0.4-0.1,0.4-0.4
							c0.3-1,0.4-1.5,0.6-2.4c0.1-0.5,0.1-0.6-0.3-0.7c-2.2-0.9-7-3-9.4-3.6c-3.8-0.9-6.8-0.7-9.4-0.5c-2,0.1-3.7,0.3-5.3-0.1
							c-3.3-0.8-7.5-4.7-13.4-6.1c-4.5-1.1-11.5-1.5-12.7-1.8c-0.1,0-0.2,0-0.3,0C42.6,79.4,42.4,79.7,42.3,80.2"/>
					</defs>
					<clipPath id="SVGID_92_">
						<use xlink:href="#SVGID_91_"  style="overflow:visible;"/>
					</clipPath>
					<rect x="41.6" y="79.4" class="st34" width="52.3" height="28.3"/>
				</g>
			</g>
		</g>
		<g>
			<g>
				<polygon id="SVGID_00000129186925409970494840000001563382952524741517_" points="18,100.2 17.5,108.5 21,100 19.7,96.1 
					16.7,90.6 				"/>
			</g>
			<g>
				<g>
					<defs>
						<polygon id="SVGID_93_" points="18,100.2 17.5,108.5 21,100 19.7,96.1 16.7,90.6 						"/>
					</defs>
					<clipPath id="SVGID_94_">
						<use xlink:href="#SVGID_93_"  style="overflow:visible;"/>
					</clipPath>
					<rect x="16.7" y="90.6" class="st35" width="4.3" height="17.9"/>
				</g>
			</g>
		</g>
		<g>
			<g>
				<polygon id="SVGID_00000167392870758226117840000005832814460748210339_" points="18.2,73.4 16.6,77.7 18.3,75.6 16.8,78.9 
					17.7,84 18,78.9 20.6,74.9 23.9,78.6 23.7,76.3 20.5,73 				"/>
			</g>
			<g>
				<g>
					<defs>
						<polygon id="SVGID_95_" points="18.2,73.4 16.6,77.7 18.3,75.6 16.8,78.9 17.7,84 18,78.9 20.6,74.9 23.9,78.6 23.7,76.3 
							20.5,73 						"/>
					</defs>
					<clipPath id="SVGID_96_">
						<use xlink:href="#SVGID_95_"  style="overflow:visible;"/>
					</clipPath>
					<rect x="16.6" y="73" class="st36" width="7.3" height="11"/>
				</g>
			</g>
		</g>
		<g>
			<g>
				<polygon id="SVGID_00000108995009609253577440000001436607746201011851_" points="22.2,87.2 22.9,90.5 25.2,91.4 23.5,88.7 
					24.4,83.4 				"/>
			</g>
			<g>
				<g>
					<defs>
						<polygon id="SVGID_97_" points="22.2,87.2 22.9,90.5 25.2,91.4 23.5,88.7 24.4,83.4 						"/>
					</defs>
					<clipPath id="SVGID_98_">
						<use xlink:href="#SVGID_97_"  style="overflow:visible;"/>
					</clipPath>
					<rect x="22.2" y="83.4" class="st37" width="3" height="7.9"/>
				</g>
			</g>
		</g>
		<g>
			<g>
				<polygon id="SVGID_00000034802142746152585170000009800837879189668497_" points="18.4,89.1 21.4,92.4 18,86.8 				"/>
			</g>
			<g>
				<g>
					<defs>
						<polygon id="SVGID_99_" points="18.4,89.1 21.4,92.4 18,86.8 						"/>
					</defs>
					<clipPath id="SVGID_100_">
						<use xlink:href="#SVGID_99_"  style="overflow:visible;"/>
					</clipPath>
					<rect x="18" y="86.8" class="st38" width="3.4" height="5.6"/>
				</g>
			</g>
		</g>
		<g>
			<g>
				<polygon id="SVGID_00000180336351426390931140000013354737118888533161_" points="20.6,81.3 18.6,85 20.8,87.9 21.4,84 
					23.7,80.5 				"/>
			</g>
			<g>
				<g>
					<defs>
						<polygon id="SVGID_101_" points="20.6,81.3 18.6,85 20.8,87.9 21.4,84 23.7,80.5 						"/>
					</defs>
					<clipPath id="SVGID_102_">
						<use xlink:href="#SVGID_101_"  style="overflow:visible;"/>
					</clipPath>
					<rect x="18.6" y="80.5" class="st39" width="5.1" height="7.4"/>
				</g>
			</g>
		</g>
		<g>
			<g>
				<polygon id="SVGID_00000106866638883018925210000017311681405032267672_" points="9.1,115.3 26.3,140.8 6.6,119.3 2.7,122.5 
					7.8,134.4 16.3,154.7 23.4,144.9 35.4,156.6 46,162.8 43.1,162.5 57.7,184.4 59.7,182 61.6,166.3 62.7,167.9 59.7,182 
					68.1,168.7 68.2,165 69,162.6 70.5,156.8 65.1,153.6 71,156.1 73.5,150.4 72,149.2 73.5,148.3 64.6,142.4 59.7,144 56.1,145.1 
					53.9,144.3 52.5,148.3 52.5,148.3 50.7,153.5 51.1,154 56.9,160.8 58,169.6 57.3,180.1 54,169.7 54.1,169.8 53.9,169.4 
					53.5,168.3 53.2,167.9 47.3,155 37.4,138.9 37.6,141.6 33.1,137.4 24.8,143 26.3,141 26.4,141 33.1,136.2 37.1,140 35.2,135 
					15,113.6 10.3,112.4 				"/>
			</g>
			<g>
				<g>
					<defs>
						<polygon id="SVGID_103_" points="9.1,115.3 26.3,140.8 6.6,119.3 2.7,122.5 7.8,134.4 16.3,154.7 23.4,144.9 35.4,156.6 
							46,162.8 43.1,162.5 57.7,184.4 59.7,182 61.6,166.3 62.7,167.9 59.7,182 68.1,168.7 68.2,165 69,162.6 70.5,156.8 
							65.1,153.6 71,156.1 73.5,150.4 72,149.2 73.5,148.3 64.6,142.4 59.7,144 56.1,145.1 53.9,144.3 52.5,148.3 52.5,148.3 
							50.7,153.5 51.1,154 56.9,160.8 58,169.6 57.3,180.1 54,169.7 54.1,169.8 53.9,169.4 53.5,168.3 53.2,167.9 47.3,155 
							37.4,138.9 37.6,141.6 33.1,137.4 24.8,143 26.3,141 26.4,141 33.1,136.2 37.1,140 35.2,135 15,113.6 10.3,112.4 						"/>
					</defs>
					<clipPath id="SVGID_104_">
						<use xlink:href="#SVGID_103_"  style="overflow:visible;"/>
					</clipPath>
					<rect x="2.7" y="112.4" class="st40" width="70.8" height="72"/>
				</g>
			</g>
		</g>
		<g>
			<g>
				<path id="SVGID_00000075159845093964625190000017583563343914761092_" d="M87.8,84.2l0.9-2.7C88.3,82.5,88,83.4,87.8,84.2
					L87.8,84.2z M37,40.2h-0.5c-13.8,0-31.3,2.3-36.1,13.3c-0.8,3.2-0.2,6.1,1.1,8.6c4,7.7,15,12.4,15.6,12.6l0.4,0.1l0.1-0.4
					c0.3-0.9,0.2-2,0.1-3.2l1.3-1.5l0.2-0.1l2.2-0.2l5.7,8.8l-2.1,24.9v11.3l6,10.1l13.5,13.8l11.8,5.9l6.9-2.2l9.4-11.7l7.5-20
					l-7.2,13.7l-0.6-4.7l-6.9-5.5l-1,4.9l5.1,4.4l-1.7,5.3l-3.4,4.5l-2.1,0.4l1.1-2.7l0.2-3.2l-8.8-1.8v2.7l-1.1,2.5l-3,1.2l-4-7.7
					l1.3-5.1l13.7-1.2l1.1-4.9L48.9,113l-3.2,2.4l-2.5,4.4l-2,1.5l-0.4-8.9l-8.9-10.2l-1.5-12.4l3.1-11.8l7.7,4.7l0.9-3.7l-7.7-3.9
					l3-1.1l3.5-1.3l3.2-1.1l-14.6-8.2l0.9-0.6l12.2,7.1l-4.1-5.1l0.2-0.9l-5.2-3l7-4.1l0.4-0.5c0.6,0,1.1,0,1.3,0l0,0
					c8.2,0.1,15,1,20.7,2.2l8.7,7l5.3-2.5c7.7,3.6,10.8,7.2,10.9,7.3l0,0l0.4,3.1l-1.5,8v4V86l0,0v1l-0.2,0.5l0.2-0.1v0.1l0.1-0.1
					l0.6-0.1c0.1,0,0.3-0.1,0.4-0.1l1.6,1.9l4.6,2L90.2,87c14.7-3.7,17.2-10.1,17.4-10.9c0.1-0.2,0.2-0.4,0.3-0.6
					c0.1-0.1,0.1-0.3,0.2-0.4c0.1-0.2,0.2-0.4,0.3-0.6c0.1-0.1,0.1-0.3,0.1-0.4c0.1-0.2,0.1-0.4,0.2-0.6c0.1-0.1,0.1-0.3,0.1-0.4
					c0.1-0.2,0.1-0.4,0.1-0.6c0-0.1,0.1-0.3,0.1-0.4c0-0.2,0.1-0.4,0.1-0.6c0-0.1,0.1-0.4,0.1-0.5c0-0.1,0-0.4,0-0.5
					c0-0.2,0-0.4,0-0.6c0-0.1,0-0.3-0.1-0.4c0-0.2-0.1-0.4-0.1-0.6c-0.1-0.4-0.1-0.7-0.3-1.1c-2.6-8.9-16.7-15.5-17.3-15.8
					C68.5,40.8,45,40,38.3,40C37.5,40.2,37,40.2,37,40.2"/>
			</g>
			<g>
				<g>
					<defs>
						<path id="SVGID_105_" d="M87.8,84.2l0.9-2.7C88.3,82.5,88,83.4,87.8,84.2L87.8,84.2z M37,40.2h-0.5
							c-13.8,0-31.3,2.3-36.1,13.3c-0.8,3.2-0.2,6.1,1.1,8.6c4,7.7,15,12.4,15.6,12.6l0.4,0.1l0.1-0.4c0.3-0.9,0.2-2,0.1-3.2
							l1.3-1.5l0.2-0.1l2.2-0.2l5.7,8.8l-2.1,24.9v11.3l6,10.1l13.5,13.8l11.8,5.9l6.9-2.2l9.4-11.7l7.5-20l-7.2,13.7l-0.6-4.7
							l-6.9-5.5l-1,4.9l5.1,4.4l-1.7,5.3l-3.4,4.5l-2.1,0.4l1.1-2.7l0.2-3.2l-8.8-1.8v2.7l-1.1,2.5l-3,1.2l-4-7.7l1.3-5.1l13.7-1.2
							l1.1-4.9L48.9,113l-3.2,2.4l-2.5,4.4l-2,1.5l-0.4-8.9l-8.9-10.2l-1.5-12.4l3.1-11.8l7.7,4.7l0.9-3.7l-7.7-3.9l3-1.1l3.5-1.3
							l3.2-1.1l-14.6-8.2l0.9-0.6l12.2,7.1l-4.1-5.1l0.2-0.9l-5.2-3l7-4.1l0.4-0.5c0.6,0,1.1,0,1.3,0l0,0c8.2,0.1,15,1,20.7,2.2
							l8.7,7l5.3-2.5c7.7,3.6,10.8,7.2,10.9,7.3l0,0l0.4,3.1l-1.5,8v4V86l0,0v1l-0.2,0.5l0.2-0.1v0.1l0.1-0.1l0.6-0.1
							c0.1,0,0.3-0.1,0.4-0.1l1.6,1.9l4.6,2L90.2,87c14.7-3.7,17.2-10.1,17.4-10.9c0.1-0.2,0.2-0.4,0.3-0.6c0.1-0.1,0.1-0.3,0.2-0.4
							c0.1-0.2,0.2-0.4,0.3-0.6c0.1-0.1,0.1-0.3,0.1-0.4c0.1-0.2,0.1-0.4,0.2-0.6c0.1-0.1,0.1-0.3,0.1-0.4c0.1-0.2,0.1-0.4,0.1-0.6
							c0-0.1,0.1-0.3,0.1-0.4c0-0.2,0.1-0.4,0.1-0.6c0-0.1,0.1-0.4,0.1-0.5c0-0.1,0-0.4,0-0.5c0-0.2,0-0.4,0-0.6
							c0-0.1,0-0.3-0.1-0.4c0-0.2-0.1-0.4-0.1-0.6c-0.1-0.4-0.1-0.7-0.3-1.1c-2.6-8.9-16.7-15.5-17.3-15.8C68.5,40.8,45,40,38.3,40
							C37.5,40.2,37,40.2,37,40.2"/>
					</defs>
					<clipPath id="SVGID_106_">
						<use xlink:href="#SVGID_105_"  style="overflow:visible;"/>
					</clipPath>
					<rect x="-0.4" y="40.2" class="st41" width="109.7" height="104"/>
				</g>
			</g>
		</g>
	</g>
</g>
</svg>
